SplineFontDB: 3.0
FontName: ShantiOne
FullName: Shanti One
FamilyName: Shanti One
Weight: Book
Copyright: Copyright (c) 2011 by vernon adams. All rights reserved.
Version: 1.000
ItalicAngle: 0
UnderlinePosition: -103
UnderlineWidth: 102
Ascent: 1638
Descent: 410
sfntRevision: 0x00010000
LayerCount: 2
Layer: 0 1 "Back"  1
Layer: 1 1 "Fore"  0
XUID: [1021 759 1887733602 3364849]
FSType: 256
OS2Version: 2
OS2_WeightWidthSlopeOnly: 0
OS2_UseTypoMetrics: 1
CreationTime: 1304673720
ModificationTime: 1304678469
PfmFamily: 17
TTFWeight: 400
TTFWidth: 5
LineGap: 0
VLineGap: 0
Panose: 2 0 5 3 5 0 0 2 0 4
OS2TypoAscent: 323
OS2TypoAOffset: 1
OS2TypoDescent: -67
OS2TypoDOffset: 1
OS2TypoLinegap: 0
OS2WinAscent: -51
OS2WinAOffset: 1
OS2WinDescent: -122
OS2WinDOffset: 1
HheadAscent: -51
HheadAOffset: 1
HheadDescent: 122
HheadDOffset: 1
OS2SubXSize: -28504
OS2SubYSize: -31306
OS2SubXOff: 0
OS2SubYOff: 2673
OS2SupXSize: -28504
OS2SupYSize: -31306
OS2SupXOff: 0
OS2SupYOff: 17254
OS2StrikeYSize: 102
OS2StrikeYPos: 512
OS2Vendor: 'newt'
OS2CodePages: 20000001.00000000
OS2UnicodeRanges: 800000ef.5000204b.00000000.00000000
Lookup: 258 0 0 "'kern' Horizontal Kerning in Latin lookup 0"  {"'kern' Horizontal Kerning in Latin lookup 0 subtable"  } ['kern' ('DFLT' <'dflt' > 'latn' <'dflt' > ) ]
MarkAttachClasses: 1
DEI: 91125
TtTable: prep
PUSHW_1
 22
CALL
SVTCA[x-axis]
PUSHW_3
 3
 25
 24
CALL
SVTCA[x-axis]
PUSHW_8
 26
 73
 64
 42
 32
 20
 0
 30
CALL
PUSHW_8
 27
 59
 48
 42
 32
 20
 0
 30
CALL
SVTCA[y-axis]
PUSHW_8
 24
 76
 64
 52
 32
 20
 0
 30
CALL
PUSHW_8
 25
 85
 64
 52
 39
 20
 0
 30
CALL
PUSHW_1
 511
SCANCTRL
PUSHB_1
 1
SCANTYPE
SVTCA[y-axis]
MPPEM
PUSHB_1
 8
LT
IF
PUSHB_2
 1
 1
INSTCTRL
EIF
PUSHB_2
 70
 6
CALL
IF
POP
PUSHB_1
 16
EIF
MPPEM
PUSHB_1
 20
GT
IF
POP
PUSHB_1
 128
EIF
SCVTCI
PUSHB_1
 6
CALL
NOT
IF
SVTCA[y-axis]
PUSHB_1
 5
DUP
RCVT
PUSHB_1
 3
CALL
WCVTP
PUSHB_1
 10
DUP
RCVT
PUSHB_3
 5
 76
 2
CALL
PUSHB_1
 3
CALL
WCVTP
PUSHB_1
 9
DUP
RCVT
PUSHB_3
 10
 41
 2
CALL
PUSHB_1
 3
CALL

StartChar: exclam
Encoding: 33 33 7
Width: 530
Flags: W
LayerCount: 2
Fore
SplineSet
321 339 m 1,0,-1
 209 339 l 1,1,-1
 161 1394 l 1,2,-1
 369 1394 l 1,3,-1
 321 339 l 1,0,-1
161 0 m 1,4,-1
 369 0 l 1,5,-1
 369 211 l 1,6,-1
 161 211 l 1,7,-1
 161 0 l 1,4,-1
EndSplineSet
EndChar

StartChar: quotedbl
Encoding: 34 34 8
Width: 762
Flags: W
LayerCount: 2
Fore
SplineSet
308 1377 m 1,0,-1
 308 875 l 1,1,-1
 169 875 l 1,2,-1
 123 1377 l 1,3,-1
 308 1377 l 1,0,-1
638 1377 m 1,4,-1
 593 875 l 1,5,-1
 474 875 l 1,6,-1
 474 1377 l 1,7,-1
 638 1377 l 1,4,-1
EndSplineSet
EndChar

StartChar: numbersign
Encoding: 35 35 9
Width: 1274
Flags: W
LayerCount: 2
Fore
SplineSet
943 824 m 1,0,-1
 888 539 l 1,1,-1
 1113 539 l 1,2,-1
 1113 393 l 1,3,-1
 861 393 l 1,4,-1
 787 0 l 1,5,-1
 627 0 l 1,6,-1
 701 393 l 1,7,-1
 459 393 l 1,8,-1
 384 0 l 1,9,-1
 226 0 l 1,10,-1
 300 393 l 1,11,-1
 85 393 l 1,12,-1
 85 539 l 1,13,-1
 327 539 l 1,14,-1
 381 824 l 1,15,-1
 159 824 l 1,16,-1
 159 971 l 1,17,-1
 409 971 l 1,18,-1
 483 1377 l 1,19,-1
 644 1377 l 1,20,-1
 568 971 l 1,21,-1
 813 971 l 1,22,-1
 888 1377 l 1,23,-1
 1048 1377 l 1,24,-1
 969 971 l 1,25,-1
 1187 971 l 1,26,-1
 1187 824 l 1,27,-1
 943 824 l 1,0,-1
486 539 m 1,28,-1
 729 539 l 1,29,-1
 784 824 l 1,30,-1
 540 824 l 1,31,-1
 486 539 l 1,28,-1
EndSplineSet
EndChar

StartChar: dollar
Encoding: 36 36 10
Width: 1099
Flags: W
LayerCount: 2
Fore
SplineSet
484 39 m 1,0,1
 418 40 418 40 358 53.5 c 128,-1,2
 298 67 298 67 246.5 96.5 c 128,-1,3
 195 126 195 126 155 172.5 c 128,-1,4
 115 219 115 219 90 285 c 1,5,6
 120 307 120 307 148.5 325.5 c 128,-1,7
 177 344 177 344 206 365 c 1,8,9
 222 339 222 339 246 312.5 c 128,-1,10
 270 286 270 286 304 263.5 c 128,-1,11
 338 241 338 241 382.5 225.5 c 128,-1,12
 427 210 427 210 484 207 c 1,13,-1
 484 629 l 1,14,15
 379 661 379 661 308 695.5 c 128,-1,16
 237 730 237 730 193.5 773.5 c 128,-1,17
 150 817 150 817 131.5 872.5 c 128,-1,18
 113 928 113 928 113 1002 c 0,19,20
 113 1080 113 1080 143.5 1139.5 c 128,-1,21
 174 1199 174 1199 225.5 1240.5 c 128,-1,22
 277 1282 277 1282 344.5 1306 c 128,-1,23
 412 1330 412 1330 487 1339 c 1,24,-1
 487 1503 l 1,25,-1
 611 1503 l 1,26,-1
 611 1342 l 1,27,28
 640 1340 640 1340 675 1336 c 128,-1,29
 710 1332 710 1332 747.5 1322.5 c 128,-1,30
 785 1313 785 1313 821.5 1298 c 128,-1,31
 858 1283 858 1283 890 1259.5 c 128,-1,32
 922 1236 922 1236 946 1202.5 c 128,-1,33
 970 1169 970 1169 983 1124 c 1,34,-1
 838 1058 l 1,35,36
 823 1088 823 1088 800 1109 c 128,-1,37
 777 1130 777 1130 747.5 1144 c 128,-1,38
 718 1158 718 1158 683.5 1166 c 128,-1,39
 649 1174 649 1174 610 1178 c 1,40,-1
 610 787 l 1,41,42
 682 765 682 765 752.5 735 c 128,-1,43
 823 705 823 705 879 661 c 128,-1,44
 935 617 935 617 970 555.5 c 128,-1,45
 1005 494 1005 494 1005 409 c 256,46,47
 1005 324 1005 324 973 260.5 c 128,-1,48
 941 197 941 197 886.5 152 c 128,-1,49
 832 107 832 107 760 80 c 128,-1,50
 688 53 688 53 607 43 c 1,51,-1
 607 -161 l 1,52,-1
 484 -161 l 1,53,-1
 484 39 l 1,0,1
808 396 m 0,54,55
 808 435 808 435 792 464.5 c 128,-1,56
 776 494 776 494 749 517 c 128,-1,57
 722 540 722 540 686 557.5 c 128,-1,58
 650 575 650 575 610 590 c 1,59,-1
 610 212 l 1,60,61
 662 218 662 218 699.5 236 c 128,-1,62
 737 254 737 254 761 279 c 128,-1,63
 785 304 785 304 796.5 334 c 128,-1,64
 808 364 808 364 808 396 c 0,54,55
305 1009 m 0,65,66
 305 970 305 970 318.5 942 c 128,-1,67
 332 914 332 914 356.5 893 c 128,-1,68
 381 872 381 872 414 856 c 128,-1,69
 447 840 447 840 486 826 c 1,70,-1
 486 1175 l 1,71,72
 428 1164 428 1164 392.5 1144.5 c 128,-1,73
 357 1125 357 1125 337.5 1101.5 c 128,-1,74
 318 1078 318 1078 311.5 1053.5 c 128,-1,75
 305 1029 305 1029 305 1009 c 0,65,66
EndSplineSet
EndChar

StartChar: percent
Encoding: 37 37 11
Width: 1643
Flags: W
LayerCount: 2
Fore
SplineSet
238 1009 m 256,0,1
 238 965 238 965 243 919 c 128,-1,2
 248 873 248 873 264 835 c 128,-1,3
 280 797 280 797 310 772.5 c 128,-1,4
 340 748 340 748 389 748 c 0,5,6
 437 748 437 748 466.5 773 c 128,-1,7
 496 798 496 798 511.5 836.5 c 128,-1,8
 527 875 527 875 532.5 921.5 c 128,-1,9
 538 968 538 968 538 1010 c 0,10,11
 538 1064 538 1064 531 1111.5 c 128,-1,12
 524 1159 524 1159 507 1194.5 c 128,-1,13
 490 1230 490 1230 461.5 1251 c 128,-1,14
 433 1272 433 1272 389 1272 c 0,15,16
 340 1272 340 1272 310 1247.5 c 128,-1,17
 280 1223 280 1223 264 1184.5 c 128,-1,18
 248 1146 248 1146 243 1099.5 c 128,-1,19
 238 1053 238 1053 238 1009 c 256,0,1
695 1015 m 0,20,21
 695 917 695 917 673.5 842.5 c 128,-1,22
 652 768 652 768 612 718 c 128,-1,23
 572 668 572 668 515 642 c 128,-1,24
 458 616 458 616 387 616 c 0,25,26
 319 616 319 616 263 640.5 c 128,-1,27
 207 665 207 665 167 714.5 c 128,-1,28
 127 764 127 764 104.5 837 c 128,-1,29
 82 910 82 910 82 1008 c 0,30,31
 82 1098 82 1098 101 1171 c 128,-1,32
 120 1244 120 1244 159 1296 c 128,-1,33
 198 1348 198 1348 257 1376.5 c 128,-1,34
 316 1405 316 1405 396 1405 c 0,35,36
 475 1405 475 1405 531.5 1375.5 c 128,-1,37
 588 1346 588 1346 624.5 1294 c 128,-1,38
 661 1242 661 1242 678 1170.5 c 128,-1,39
 695 1099 695 1099 695 1015 c 0,20,21
1106 362 m 0,40,41
 1106 314 1106 314 1112 268.5 c 128,-1,42
 1118 223 1118 223 1134.5 188.5 c 128,-1,43
 1151 154 1151 154 1179.5 133 c 128,-1,44
 1208 112 1208 112 1254 112 c 0,45,46
 1302 112 1302 112 1332 135 c 128,-1,47
 1362 158 1362 158 1379 195.5 c 128,-1,48
 1396 233 1396 233 1402 280 c 128,-1,49
 1408 327 1408 327 1408 375 c 0,50,51
 1408 422 1408 422 1401.5 469 c 128,-1,52
 1395 516 1395 516 1378.5 553.5 c 128,-1,53
 1362 591 1362 591 1332 614.5 c 128,-1,54
 1302 638 1302 638 1256 638 c 0,55,56
 1207 638 1207 638 1177.5 612.5 c 128,-1,57
 1148 587 1148 587 1132 546.5 c 128,-1,58
 1116 506 1116 506 1111 457 c 128,-1,59
 1106 408 1106 408 1106 362 c 0,40,41
1562 377 m 0,60,61
 1562 285 1562 285 1543.5 211.5 c 128,-1,62
 1525 138 1525 138 1487 86 c 128,-1,63
 1449 34 1449 34 1391.5 6 c 128,-1,64
 1334 -22 1334 -22 1255 -22 c 0,65,66
 1171 -22 1171 -22 1113 9.5 c 128,-1,67
 1055 41 1055 41 1018.5 94.5 c 128,-1,68
 982 148 982 148 966 219.5 c 128,-1,69
 950 291 950 291 950 372 c 0,70,71
 950 468 950 468 971.5 542 c 128,-1,72
 993 616 993 616 1033 666.5 c 128,-1,73
 1073 717 1073 717 1129.5 742.5 c 128,-1,74
 1186 768 1186 768 1255 768 c 0,75,76
 1286 768 1286 768 1321 760.5 c 128,-1,77
 1356 753 1356 753 1390 736 c 128,-1,78
 1424 719 1424 719 1455 689.5 c 128,-1,79
 1486 660 1486 660 1510 617 c 128,-1,80
 1534 574 1534 574 1548 514.5 c 128,-1,81
 1562 455 1562 455 1562 377 c 0,60,61
1305 1418 m 1,82,83
 1201 1233 1201 1233 1098 1051.5 c 128,-1,84
 995 870 995 870 892.5 688.5 c 128,-1,85
 790 507 790 507 687.5 325.5 c 128,-1,86
 585 144 585 144 480 -40 c 1,87,-1
 330 -40 l 1,88,-1
 1156 1418 l 1,89,-1
 1305 1418 l 1,82,83
EndSplineSet
EndChar

StartChar: ampersand
Encoding: 38 38 12
Width: 1452
Flags: W
LayerCount: 2
Fore
SplineSet
97 377 m 0,0,1
 97 454 97 454 119 515.5 c 128,-1,2
 141 577 141 577 179 628.5 c 128,-1,3
 217 680 217 680 269 723 c 128,-1,4
 321 766 321 766 380 807 c 1,5,6
 354 835 354 835 327.5 868.5 c 128,-1,7
 301 902 301 902 278.5 942.5 c 128,-1,8
 256 983 256 983 242 1031 c 128,-1,9
 228 1079 228 1079 228 1135 c 0,10,11
 228 1207 228 1207 252.5 1265 c 128,-1,12
 277 1323 277 1323 324 1364 c 128,-1,13
 371 1405 371 1405 440 1427 c 128,-1,14
 509 1449 509 1449 598 1449 c 0,15,16
 672 1449 672 1449 738 1431 c 128,-1,17
 804 1413 804 1413 853 1376 c 128,-1,18
 902 1339 902 1339 930.5 1282.5 c 128,-1,19
 959 1226 959 1226 959 1150 c 0,20,21
 959 1082 959 1082 933 1025.5 c 128,-1,22
 907 969 907 969 867 923 c 128,-1,23
 827 877 827 877 779 840 c 128,-1,24
 731 803 731 803 687 775 c 1,25,-1
 1015 441 l 1,26,27
 1040 477 1040 477 1058.5 515 c 128,-1,28
 1077 553 1077 553 1090.5 596.5 c 128,-1,29
 1104 640 1104 640 1112.5 693 c 128,-1,30
 1121 746 1121 746 1126 812 c 1,31,-1
 1319 812 l 1,32,33
 1312 728 1312 728 1298 659.5 c 128,-1,34
 1284 591 1284 591 1262 532 c 128,-1,35
 1240 473 1240 473 1209.5 420 c 128,-1,36
 1179 367 1179 367 1138 315 c 1,37,-1
 1444 1 l 1,38,-1
 1185 1 l 1,39,-1
 1014 171 l 1,40,41
 964 126 964 126 912.5 90 c 128,-1,42
 861 54 861 54 804.5 29.5 c 128,-1,43
 748 5 748 5 685.5 -8.5 c 128,-1,44
 623 -22 623 -22 552 -22 c 0,45,46
 444 -22 444 -22 359.5 7 c 128,-1,47
 275 36 275 36 216.5 89 c 128,-1,48
 158 142 158 142 127.5 215 c 128,-1,49
 97 288 97 288 97 377 c 0,0,1
568 151 m 0,50,51
 626 151 626 151 674.5 164 c 128,-1,52
 723 177 723 177 762 197.5 c 128,-1,53
 801 218 801 218 832.5 243.5 c 128,-1,54
 864 269 864 269 889 293 c 1,55,56
 825 354 825 354 761.5 418.5 c 128,-1,57
 698 483 698 483 638 545 c 2,58,-1
 505 684 l 1,59,60
 451 646 451 646 412 610.5 c 128,-1,61
 373 575 373 575 348.5 539 c 128,-1,62
 324 503 324 503 312 464.5 c 128,-1,63
 300 426 300 426 300 383 c 0,64,65
 300 322 300 322 323.5 278.5 c 128,-1,66
 347 235 347 235 385 206.5 c 128,-1,67
 423 178 423 178 471 164.5 c 128,-1,68
 519 151 519 151 568 151 c 0,50,51
428 1140 m 0,69,70
 428 1083 428 1083 463 1025.5 c 128,-1,71
 498 968 498 968 563 902 c 1,72,73
 599 925 599 925 633.5 951.5 c 128,-1,74
 668 978 668 978 696 1008.5 c 128,-1,75
 724 1039 724 1039 741 1073.5 c 128,-1,76
 758 1108 758 1108 758 1147 c 0,77,78
 758 1173 758 1173 748 1197.5 c 128,-1,79
 738 1222 738 1222 718.5 1241.5 c 128,-1,80
 699 1261 699 1261 668.5 1273 c 128,-1,81
 638 1285 638 1285 598 1285 c 0,82,83
 560 1285 560 1285 528.5 1274 c 128,-1,84
 497 1263 497 1263 474.5 1243.5 c 128,-1,85
 452 1224 452 1224 440 1197.5 c 128,-1,86
 428 1171 428 1171 428 1140 c 0,69,70
EndSplineSet
EndChar

StartChar: quotesingle
Encoding: 39 39 13
Width: 437
Flags: W
LayerCount: 2
Fore
SplineSet
267 875 m 1,0,-1
 149 875 l 1,1,-1
 149 1377 l 1,2,-1
 312 1377 l 1,3,-1
 267 875 l 1,0,-1
EndSplineSet
EndChar

StartChar: parenleft
Encoding: 40 40 14
Width: 579
Flags: W
LayerCount: 2
Fore
SplineSet
100 598 m 0,0,1
 100 716 100 716 122.5 837.5 c 128,-1,2
 145 959 145 959 181 1071.5 c 128,-1,3
 217 1184 217 1184 262.5 1281.5 c 128,-1,4
 308 1379 308 1379 353 1449 c 1,5,-1
 508 1449 l 1,6,7
 460 1357 460 1357 419.5 1250 c 128,-1,8
 379 1143 379 1143 349.5 1031.5 c 128,-1,9
 320 920 320 920 304 809.5 c 128,-1,10
 288 699 288 699 288 601 c 0,11,12
 288 494 288 494 301.5 393.5 c 128,-1,13
 315 293 315 293 342.5 189.5 c 128,-1,14
 370 86 370 86 412 -24.5 c 128,-1,15
 454 -135 454 -135 511 -261 c 1,16,-1
 358 -261 l 1,17,18
 303 -168 303 -168 255.5 -63.5 c 128,-1,19
 208 41 208 41 173.5 151 c 128,-1,20
 139 261 139 261 119.5 374 c 128,-1,21
 100 487 100 487 100 598 c 0,0,1
EndSplineSet
EndChar

StartChar: parenright
Encoding: 41 41 15
Width: 579
Flags: W
LayerCount: 2
Fore
SplineSet
220 1449 m 1,0,1
 275 1354 275 1354 322.5 1248.5 c 128,-1,2
 370 1143 370 1143 405 1032 c 128,-1,3
 440 921 440 921 459.5 807.5 c 128,-1,4
 479 694 479 694 479 583 c 0,5,6
 479 465 479 465 456.5 344 c 128,-1,7
 434 223 434 223 398 111 c 128,-1,8
 362 -1 362 -1 317 -97 c 128,-1,9
 272 -193 272 -193 227 -261 c 1,10,-1
 72 -261 l 1,11,12
 120 -165 120 -165 160.5 -63.5 c 128,-1,13
 201 38 201 38 229.5 144 c 128,-1,14
 258 250 258 250 274 360 c 128,-1,15
 290 470 290 470 290 582 c 0,16,17
 290 690 290 690 276.5 791.5 c 128,-1,18
 263 893 263 893 235.5 996.5 c 128,-1,19
 208 1100 208 1100 166 1211 c 128,-1,20
 124 1322 124 1322 67 1449 c 1,21,-1
 220 1449 l 1,0,1
EndSplineSet
EndChar

StartChar: asterisk
Encoding: 42 42 16
Width: 948
Flags: W
LayerCount: 2
Fore
SplineSet
211 1334 m 1,0,-1
 336 1411 l 1,1,-1
 473 1183 l 1,2,-1
 610 1411 l 1,3,-1
 737 1334 l 1,4,-1
 604 1118 l 1,5,-1
 839 1118 l 1,6,-1
 839 969 l 1,7,-1
 603 969 l 1,8,-1
 736 754 l 1,9,-1
 610 677 l 1,10,-1
 473 904 l 1,11,-1
 336 677 l 1,12,-1
 210 754 l 1,13,-1
 340 969 l 1,14,-1
 109 969 l 1,15,-1
 109 1118 l 1,16,-1
 341 1118 l 1,17,-1
 211 1334 l 1,0,-1
EndSplineSet
EndChar

StartChar: plus
Encoding: 43 43 17
Width: 1122
Flags: W
LayerCount: 2
Fore
SplineSet
478 505 m 1,0,-1
 87 505 l 1,1,-1
 87 665 l 1,2,-1
 478 665 l 1,3,-1
 478 1058 l 1,4,-1
 642 1058 l 1,5,-1
 642 665 l 1,6,-1
 1035 665 l 1,7,-1
 1035 505 l 1,8,-1
 642 505 l 1,9,-1
 642 114 l 1,10,-1
 478 114 l 1,11,-1
 478 505 l 1,0,-1
EndSplineSet
EndChar

StartChar: comma
Encoding: 44 44 18
Width: 519
Flags: W
LayerCount: 2
Fore
SplineSet
57 -248 m 1,0,-1
 169 244 l 1,1,-1
 391 244 l 1,2,-1
 197 -248 l 1,3,-1
 57 -248 l 1,0,-1
EndSplineSet
EndChar

StartChar: hyphen
Encoding: 45 45 19
Width: 776
Flags: W
LayerCount: 2
Fore
SplineSet
143 439 m 1,0,-1
 143 606 l 1,1,-1
 632 606 l 1,2,-1
 632 439 l 1,3,-1
 143 439 l 1,0,-1
EndSplineSet
EndChar

StartChar: period
Encoding: 46 46 20
Width: 518
Flags: W
LayerCount: 2
Fore
SplineSet
143 239 m 1,0,-1
 374 239 l 1,1,-1
 374 0 l 1,2,-1
 143 0 l 1,3,-1
 143 239 l 1,0,-1
EndSplineSet
EndChar

StartChar: slash
Encoding: 47 47 21
Width: 792
Flags: W
LayerCount: 2
Fore
SplineSet
719 1448 m 1,0,-1
 234 -18 l 1,1,-1
 73 -18 l 1,2,-1
 562 1448 l 1,3,-1
 719 1448 l 1,0,-1
EndSplineSet
EndChar

StartChar: zero
Encoding: 48 48 22
Width: 1164
Flags: W
LayerCount: 2
Fore
SplineSet
131 695 m 256,0,1
 131 774 131 774 138 858.5 c 128,-1,2
 145 943 145 943 163 1023 c 128,-1,3
 181 1103 181 1103 213 1174.5 c 128,-1,4
 245 1246 245 1246 295 1299.5 c 128,-1,5
 345 1353 345 1353 415.5 1384.5 c 128,-1,6
 486 1416 486 1416 582 1416 c 0,7,8
 672 1416 672 1416 740.5 1386.5 c 128,-1,9
 809 1357 809 1357 859 1306 c 128,-1,10
 909 1255 909 1255 943 1185.5 c 128,-1,11
 977 1116 977 1116 997 1036 c 128,-1,12
 1017 956 1017 956 1025.5 869 c 128,-1,13
 1034 782 1034 782 1034 695 c 256,14,15
 1034 608 1034 608 1025.5 521 c 128,-1,16
 1017 434 1017 434 997 354 c 128,-1,17
 977 274 977 274 943 204.5 c 128,-1,18
 909 135 909 135 859 84 c 128,-1,19
 809 33 809 33 740.5 3.5 c 128,-1,20
 672 -26 672 -26 582 -26 c 0,21,22
 486 -26 486 -26 415.5 5.5 c 128,-1,23
 345 37 345 37 295 90.5 c 128,-1,24
 245 144 245 144 213 215.5 c 128,-1,25
 181 287 181 287 163 367 c 128,-1,26
 145 447 145 447 138 531.5 c 128,-1,27
 131 616 131 616 131 695 c 256,0,1
842 695 m 256,28,29
 842 824 842 824 829 926.5 c 128,-1,30
 816 1029 816 1029 786 1101 c 128,-1,31
 756 1173 756 1173 706 1211.5 c 128,-1,32
 656 1250 656 1250 583 1250 c 0,33,34
 503 1250 503 1250 452 1205.5 c 128,-1,35
 401 1161 401 1161 372 1085.5 c 128,-1,36
 343 1010 343 1010 332 909 c 128,-1,37
 321 808 321 808 321 695 c 256,38,39
 321 582 321 582 332 481 c 128,-1,40
 343 380 343 380 372 304.5 c 128,-1,41
 401 229 401 229 452 184.5 c 128,-1,42
 503 140 503 140 583 140 c 0,43,44
 656 140 656 140 706 178.5 c 128,-1,45
 756 217 756 217 786 289 c 128,-1,46
 816 361 816 361 829 463.5 c 128,-1,47
 842 566 842 566 842 695 c 256,28,29
EndSplineSet
EndChar

StartChar: one
Encoding: 49 49 23
Width: 757
Flags: W
LayerCount: 2
Fore
SplineSet
368 932 m 2,0,1
 368 941 368 941 368 956 c 128,-1,2
 368 971 368 971 368.5 989 c 128,-1,3
 369 1007 369 1007 369.5 1026.5 c 128,-1,4
 370 1046 370 1046 370 1065 c 0,5,6
 371 1110 371 1110 372 1161 c 1,7,8
 291 1089 291 1089 216 1039 c 128,-1,9
 141 989 141 989 87 958 c 1,10,-1
 42 1130 l 1,11,12
 62 1141 62 1141 92 1160.5 c 128,-1,13
 122 1180 122 1180 156 1204 c 128,-1,14
 190 1228 190 1228 225.5 1253.5 c 128,-1,15
 261 1279 261 1279 293 1303 c 128,-1,16
 325 1327 325 1327 350.5 1346.5 c 128,-1,17
 376 1366 376 1366 391 1377 c 1,18,-1
 556 1377 l 1,19,-1
 556 0 l 1,20,-1
 368 0 l 1,21,-1
 368 932 l 2,0,1
EndSplineSet
EndChar

StartChar: two
Encoding: 50 50 24
Width: 1077
Flags: W
LayerCount: 2
Fore
SplineSet
114 1106 m 1,0,1
 179 1260 179 1260 283 1332 c 128,-1,2
 387 1404 387 1404 548 1404 c 0,3,4
 628 1404 628 1404 699 1381.5 c 128,-1,5
 770 1359 770 1359 823 1312 c 128,-1,6
 876 1265 876 1265 907 1193.5 c 128,-1,7
 938 1122 938 1122 938 1024 c 0,8,9
 938 964 938 964 918.5 902 c 128,-1,10
 899 840 899 840 854.5 768.5 c 128,-1,11
 810 697 810 697 737.5 611 c 128,-1,12
 665 525 665 525 560 416 c 2,13,-1
 321 170 l 1,14,-1
 968 170 l 1,15,-1
 968 0 l 1,16,-1
 99 0 l 1,17,-1
 99 174 l 1,18,-1
 443 534 l 2,19,20
 503 597 503 597 558 661 c 128,-1,21
 613 725 613 725 655 787 c 128,-1,22
 697 849 697 849 721.5 908 c 128,-1,23
 746 967 746 967 746 1021 c 0,24,25
 746 1058 746 1058 735 1096.5 c 128,-1,26
 724 1135 724 1135 699 1166.5 c 128,-1,27
 674 1198 674 1198 633 1218 c 128,-1,28
 592 1238 592 1238 532 1238 c 0,29,30
 470 1238 470 1238 427 1219.5 c 128,-1,31
 384 1201 384 1201 355 1173 c 128,-1,32
 326 1145 326 1145 308 1112 c 128,-1,33
 290 1079 290 1079 278 1049 c 1,34,-1
 114 1106 l 1,0,1
EndSplineSet
EndChar

StartChar: three
Encoding: 51 51 25
Width: 1115
Flags: W
LayerCount: 2
Fore
SplineSet
516 -20 m 0,0,1
 410 -20 410 -20 301.5 20.5 c 128,-1,2
 193 61 193 61 101 148 c 1,3,-1
 169 308 l 1,4,5
 205 270 205 270 248 240.5 c 128,-1,6
 291 211 291 211 337 191.5 c 128,-1,7
 383 172 383 172 429 162 c 128,-1,8
 475 152 475 152 519 152 c 0,9,10
 574 152 574 152 623.5 166.5 c 128,-1,11
 673 181 673 181 710.5 210.5 c 128,-1,12
 748 240 748 240 770.5 285.5 c 128,-1,13
 793 331 793 331 793 394 c 0,14,15
 793 472 793 472 760 519 c 128,-1,16
 727 566 727 566 673.5 591 c 128,-1,17
 620 616 620 616 553 624 c 128,-1,18
 486 632 486 632 418 632 c 0,19,20
 413 632 413 632 403.5 631.5 c 128,-1,21
 394 631 394 631 385 631 c 2,22,-1
 363 631 l 1,23,-1
 363 796 l 1,24,25
 371 795 371 795 379 795 c 1,26,27
 386 794 386 794 393 794 c 128,-1,28
 400 794 400 794 406 794 c 0,29,30
 474 794 474 794 538 804 c 128,-1,31
 602 814 602 814 652 841 c 128,-1,32
 702 868 702 868 732 914.5 c 128,-1,33
 762 961 762 961 762 1035 c 0,34,35
 762 1080 762 1080 744 1117.5 c 128,-1,36
 726 1155 726 1155 693.5 1182 c 128,-1,37
 661 1209 661 1209 615 1224 c 128,-1,38
 569 1239 569 1239 514 1239 c 0,39,40
 448 1239 448 1239 366.5 1205.5 c 128,-1,41
 285 1172 285 1172 191 1098 c 1,42,-1
 95 1219 l 1,43,44
 195 1313 195 1313 307.5 1358.5 c 128,-1,45
 420 1404 420 1404 525 1404 c 0,46,47
 613 1404 613 1404 691.5 1380 c 128,-1,48
 770 1356 770 1356 829.5 1310 c 128,-1,49
 889 1264 889 1264 924 1197 c 128,-1,50
 959 1130 959 1130 959 1044 c 0,51,52
 959 994 959 994 944 946.5 c 128,-1,53
 929 899 929 899 898.5 856.5 c 128,-1,54
 868 814 868 814 822.5 778.5 c 128,-1,55
 777 743 777 743 716 718 c 1,56,57
 799 693 799 693 852.5 651 c 128,-1,58
 906 609 906 609 936.5 562.5 c 128,-1,59
 967 516 967 516 978.5 469.5 c 128,-1,60
 990 423 990 423 990 389 c 0,61,62
 990 292 990 292 950.5 216 c 128,-1,63
 911 140 911 140 845.5 87.5 c 128,-1,64
 780 35 780 35 694.5 7.5 c 128,-1,65
 609 -20 609 -20 516 -20 c 0,0,1
EndSplineSet
EndChar

StartChar: four
Encoding: 52 52 26
Width: 1149
Flags: W
LayerCount: 2
Fore
SplineSet
689 0 m 1,0,-1
 689 300 l 1,1,-1
 66 300 l 1,2,-1
 66 504 l 1,3,-1
 673 1390 l 1,4,-1
 875 1390 l 1,5,-1
 875 472 l 1,6,-1
 1074 472 l 1,7,-1
 1074 300 l 1,8,-1
 875 300 l 1,9,-1
 875 0 l 1,10,-1
 689 0 l 1,0,-1
240 472 m 1,11,-1
 689 472 l 1,12,-1
 689 1158 l 1,13,14
 655 1104 655 1104 625 1056 c 0,15,16
 612 1036 612 1036 599 1015 c 128,-1,17
 586 994 586 994 574 975 c 128,-1,18
 562 956 562 956 552.5 941 c 128,-1,19
 543 926 543 926 537 917 c 2,20,-1
 240 472 l 1,11,-1
EndSplineSet
EndChar

StartChar: five
Encoding: 53 53 27
Width: 1087
Flags: W
LayerCount: 2
Fore
SplineSet
555 878 m 0,0,1
 654 878 654 878 733 845.5 c 128,-1,2
 812 813 812 813 867 755.5 c 128,-1,3
 922 698 922 698 951.5 618 c 128,-1,4
 981 538 981 538 981 444 c 0,5,6
 981 339 981 339 947.5 253.5 c 128,-1,7
 914 168 914 168 850.5 107.5 c 128,-1,8
 787 47 787 47 695.5 13.5 c 128,-1,9
 604 -20 604 -20 488 -20 c 0,10,11
 422 -20 422 -20 361.5 -5 c 128,-1,12
 301 10 301 10 251.5 39.5 c 128,-1,13
 202 69 202 69 165.5 112.5 c 128,-1,14
 129 156 129 156 110 214 c 1,15,-1
 228 297 l 1,16,17
 246 256 246 256 277 227 c 128,-1,18
 308 198 308 198 344.5 179.5 c 128,-1,19
 381 161 381 161 420 152 c 128,-1,20
 459 143 459 143 494 143 c 0,21,22
 577 143 577 143 633.5 169 c 128,-1,23
 690 195 690 195 724.5 237 c 128,-1,24
 759 279 759 279 773.5 332.5 c 128,-1,25
 788 386 788 386 788 440 c 0,26,27
 788 572 788 572 714 644 c 128,-1,28
 640 716 640 716 506 716 c 0,29,30
 463 716 463 716 426.5 704.5 c 128,-1,31
 390 693 390 693 361 676.5 c 128,-1,32
 332 660 332 660 310 641 c 128,-1,33
 288 622 288 622 274 606 c 1,34,-1
 177 634 l 1,35,-1
 177 1377 l 1,36,-1
 897 1377 l 1,37,-1
 897 1206 l 1,38,-1
 346 1206 l 1,39,-1
 316 807 l 1,40,41
 358 833 358 833 418 855.5 c 128,-1,42
 478 878 478 878 555 878 c 0,0,1
EndSplineSet
EndChar

StartChar: six
Encoding: 54 54 28
Width: 1141
Flags: W
LayerCount: 2
Fore
SplineSet
927 1186 m 1,0,1
 856 1215 856 1215 793 1231 c 128,-1,2
 730 1247 730 1247 677 1247 c 0,3,4
 582 1247 582 1247 518 1211 c 128,-1,5
 454 1175 454 1175 413 1108 c 128,-1,6
 372 1041 372 1041 351.5 945 c 128,-1,7
 331 849 331 849 323 729 c 1,8,9
 347 760 347 760 377.5 789 c 128,-1,10
 408 818 408 818 445 840 c 128,-1,11
 482 862 482 862 527 875.5 c 128,-1,12
 572 889 572 889 625 889 c 0,13,14
 712 889 712 889 786 861 c 128,-1,15
 860 833 860 833 914.5 778 c 128,-1,16
 969 723 969 723 1000 642 c 128,-1,17
 1031 561 1031 561 1031 455 c 0,18,19
 1031 341 1031 341 996 252.5 c 128,-1,20
 961 164 961 164 900.5 103.5 c 128,-1,21
 840 43 840 43 759 11.5 c 128,-1,22
 678 -20 678 -20 587 -20 c 0,23,24
 465 -20 465 -20 378.5 29 c 128,-1,25
 292 78 292 78 236 163.5 c 128,-1,26
 180 249 180 249 154 365 c 128,-1,27
 128 481 128 481 128 615 c 0,28,29
 128 701 128 701 137.5 792.5 c 128,-1,30
 147 884 147 884 171 972 c 128,-1,31
 195 1060 195 1060 234.5 1138.5 c 128,-1,32
 274 1217 274 1217 333.5 1276 c 128,-1,33
 393 1335 393 1335 475.5 1369.5 c 128,-1,34
 558 1404 558 1404 666 1404 c 0,35,36
 735 1404 735 1404 815.5 1384.5 c 128,-1,37
 896 1365 896 1365 987 1323 c 1,38,-1
 927 1186 l 1,0,1
590 141 m 0,39,40
 639 141 639 141 684.5 158.5 c 128,-1,41
 730 176 730 176 765 213.5 c 128,-1,42
 800 251 800 251 821 308.5 c 128,-1,43
 842 366 842 366 842 446 c 0,44,45
 842 494 842 494 831 544.5 c 128,-1,46
 820 595 820 595 792 637 c 128,-1,47
 764 679 764 679 717 705.5 c 128,-1,48
 670 732 670 732 597 732 c 0,49,50
 532 732 532 732 482 708.5 c 128,-1,51
 432 685 432 685 398 646.5 c 128,-1,52
 364 608 364 608 346 559 c 128,-1,53
 328 510 328 510 328 459 c 0,54,55
 328 396 328 396 346 338.5 c 128,-1,56
 364 281 364 281 397.5 237 c 128,-1,57
 431 193 431 193 479.5 167 c 128,-1,58
 528 141 528 141 590 141 c 0,39,40
EndSplineSet
EndChar

StartChar: seven
Encoding: 55 55 29
Width: 959
Flags: W
LayerCount: 2
Fore
SplineSet
180 0 m 1,0,-1
 704 1203 l 1,1,-1
 60 1203 l 1,2,-1
 60 1377 l 1,3,-1
 904 1377 l 1,4,-1
 904 1218 l 1,5,-1
 395 0 l 1,6,-1
 180 0 l 1,0,-1
EndSplineSet
EndChar

StartChar: eight
Encoding: 56 56 30
Width: 1163
Flags: W
LayerCount: 2
Fore
SplineSet
581 -20 m 0,0,1
 490 -20 490 -20 407.5 3 c 128,-1,2
 325 26 325 26 262 73.5 c 128,-1,3
 199 121 199 121 162 193 c 128,-1,4
 125 265 125 265 125 364 c 0,5,6
 125 430 125 430 144 483.5 c 128,-1,7
 163 537 163 537 198.5 580.5 c 128,-1,8
 234 624 234 624 283.5 659.5 c 128,-1,9
 333 695 333 695 394 724 c 1,10,11
 284 776 284 776 221.5 858 c 128,-1,12
 159 940 159 940 159 1045 c 0,13,14
 159 1108 159 1108 184 1172 c 128,-1,15
 209 1236 209 1236 260.5 1287.5 c 128,-1,16
 312 1339 312 1339 391.5 1371.5 c 128,-1,17
 471 1404 471 1404 580 1404 c 0,18,19
 675 1404 675 1404 753 1379 c 128,-1,20
 831 1354 831 1354 887 1308 c 128,-1,21
 943 1262 943 1262 974 1196 c 128,-1,22
 1005 1130 1005 1130 1005 1048 c 0,23,24
 1005 943 1005 943 941 859.5 c 128,-1,25
 877 776 877 776 757 728 c 1,26,27
 803 706 803 706 852.5 676 c 128,-1,28
 902 646 902 646 943 604 c 128,-1,29
 984 562 984 562 1010.5 505 c 128,-1,30
 1037 448 1037 448 1037 372 c 0,31,32
 1037 294 1037 294 1008.5 223 c 128,-1,33
 980 152 980 152 923 98 c 128,-1,34
 866 44 866 44 780.5 12 c 128,-1,35
 695 -20 695 -20 581 -20 c 0,0,1
580 143 m 0,36,37
 652 143 652 143 702.5 163.5 c 128,-1,38
 753 184 753 184 784 217 c 128,-1,39
 815 250 815 250 829 292 c 128,-1,40
 843 334 843 334 843 378 c 0,41,42
 843 431 843 431 822.5 474.5 c 128,-1,43
 802 518 802 518 765.5 551.5 c 128,-1,44
 729 585 729 585 679.5 608 c 128,-1,45
 630 631 630 631 572 643 c 1,46,47
 515 629 515 629 468 604 c 128,-1,48
 421 579 421 579 387.5 544 c 128,-1,49
 354 509 354 509 336 465.5 c 128,-1,50
 318 422 318 422 318 372 c 0,51,52
 318 328 318 328 332.5 287 c 128,-1,53
 347 246 347 246 378.5 214 c 128,-1,54
 410 182 410 182 459.5 162.5 c 128,-1,55
 509 143 509 143 580 143 c 0,36,37
349 1044 m 0,56,57
 349 994 349 994 367 955 c 128,-1,58
 385 916 385 916 416.5 887 c 128,-1,59
 448 858 448 858 490 839.5 c 128,-1,60
 532 821 532 821 581 813 c 1,61,62
 630 821 630 821 673 840.5 c 128,-1,63
 716 860 716 860 748 889.5 c 128,-1,64
 780 919 780 919 798.5 958 c 128,-1,65
 817 997 817 997 817 1044 c 0,66,67
 817 1089 817 1089 801 1126 c 128,-1,68
 785 1163 785 1163 754.5 1189.5 c 128,-1,69
 724 1216 724 1216 680.5 1230.5 c 128,-1,70
 637 1245 637 1245 582 1245 c 0,71,72
 531 1245 531 1245 488.5 1231.5 c 128,-1,73
 446 1218 446 1218 415 1192 c 128,-1,74
 384 1166 384 1166 366.5 1128.5 c 128,-1,75
 349 1091 349 1091 349 1044 c 0,56,57
EndSplineSet
EndChar

StartChar: nine
Encoding: 57 57 31
Width: 1133
Flags: W
LayerCount: 2
Fore
SplineSet
231 204 m 1,0,1
 304 172 304 172 366.5 155.5 c 128,-1,2
 429 139 429 139 480 139 c 0,3,4
 550 139 550 139 608.5 169.5 c 128,-1,5
 667 200 667 200 709.5 265 c 128,-1,6
 752 330 752 330 777.5 430.5 c 128,-1,7
 803 531 803 531 808 672 c 1,8,9
 744 592 744 592 669.5 555.5 c 128,-1,10
 595 519 595 519 513 519 c 0,11,12
 426 519 426 519 351.5 546.5 c 128,-1,13
 277 574 277 574 222.5 628 c 128,-1,14
 168 682 168 682 136.5 761.5 c 128,-1,15
 105 841 105 841 105 946 c 0,16,17
 105 1060 105 1060 139.5 1145.5 c 128,-1,18
 174 1231 174 1231 232.5 1288 c 128,-1,19
 291 1345 291 1345 369 1374 c 128,-1,20
 447 1403 447 1403 534 1403 c 0,21,22
 592 1403 592 1403 649.5 1390 c 128,-1,23
 707 1377 707 1377 759 1347 c 128,-1,24
 811 1317 811 1317 856 1267 c 128,-1,25
 901 1217 901 1217 934 1143.5 c 128,-1,26
 967 1070 967 1070 985.5 970 c 128,-1,27
 1004 870 1004 870 1004 739 c 0,28,29
 1004 553 1004 553 966.5 411 c 128,-1,30
 929 269 929 269 861 173.5 c 128,-1,31
 793 78 793 78 699 29 c 128,-1,32
 605 -20 605 -20 491 -20 c 0,33,34
 419 -20 419 -20 337.5 1.5 c 128,-1,35
 256 23 256 23 167 61 c 1,36,-1
 231 204 l 1,0,1
541 672 m 0,37,38
 600 672 600 672 647.5 693 c 128,-1,39
 695 714 695 714 728.5 749.5 c 128,-1,40
 762 785 762 785 780 832 c 128,-1,41
 798 879 798 879 798 931 c 0,42,43
 798 998 798 998 779.5 1055 c 128,-1,44
 761 1112 761 1112 727 1154 c 128,-1,45
 693 1196 693 1196 646 1219.5 c 128,-1,46
 599 1243 599 1243 542 1243 c 256,47,48
 485 1243 485 1243 439.5 1222.5 c 128,-1,49
 394 1202 394 1202 362 1163 c 128,-1,50
 330 1124 330 1124 312.5 1069 c 128,-1,51
 295 1014 295 1014 295 945 c 0,52,53
 295 882 295 882 312 831 c 128,-1,54
 329 780 329 780 360.5 745 c 128,-1,55
 392 710 392 710 438 691 c 128,-1,56
 484 672 484 672 541 672 c 0,37,38
EndSplineSet
EndChar

StartChar: colon
Encoding: 58 58 32
Width: 518
Flags: W
LayerCount: 2
Fore
SplineSet
143 1019 m 1,0,-1
 374 1019 l 1,1,-1
 374 780 l 1,2,-1
 143 780 l 1,3,-1
 143 1019 l 1,0,-1
143 239 m 1,4,-1
 374 239 l 1,5,-1
 374 0 l 1,6,-1
 143 0 l 1,7,-1
 143 239 l 1,4,-1
EndSplineSet
EndChar

StartChar: semicolon
Encoding: 59 59 33
Width: 579
Flags: W
LayerCount: 2
Fore
SplineSet
97 -233 m 1,0,-1
 207 229 l 1,1,-1
 403 229 l 1,2,-1
 220 -233 l 1,3,-1
 97 -233 l 1,0,-1
191 1018 m 1,4,-1
 422 1018 l 1,5,-1
 422 779 l 1,6,-1
 191 779 l 1,7,-1
 191 1018 l 1,4,-1
EndSplineSet
EndChar

StartChar: less
Encoding: 60 60 34
Width: 1164
Flags: W
LayerCount: 2
Fore
SplineSet
1025 111 m 1,0,-1
 77 510 l 1,1,-1
 77 651 l 1,2,-1
 1025 1074 l 1,3,-1
 1025 899 l 1,4,-1
 293 585 l 1,5,-1
 1025 289 l 1,6,-1
 1025 111 l 1,0,-1
EndSplineSet
EndChar

StartChar: equal
Encoding: 61 61 35
Width: 1268
Flags: W
LayerCount: 2
Fore
SplineSet
160 700 m 1,0,-1
 160 860 l 1,1,-1
 1108 860 l 1,2,-1
 1108 700 l 1,3,-1
 160 700 l 1,0,-1
160 308 m 1,4,-1
 160 470 l 1,5,-1
 1108 470 l 1,6,-1
 1108 308 l 1,7,-1
 160 308 l 1,4,-1
EndSplineSet
EndChar

StartChar: greater
Encoding: 62 62 36
Width: 1164
Flags: W
LayerCount: 2
Fore
SplineSet
139 289 m 1,0,-1
 871 585 l 1,1,-1
 139 899 l 1,2,-1
 139 1074 l 1,3,-1
 1087 651 l 1,4,-1
 1087 510 l 1,5,-1
 139 111 l 1,6,-1
 139 289 l 1,0,-1
EndSplineSet
EndChar

StartChar: question
Encoding: 63 63 37
Width: 882
Flags: W
LayerCount: 2
Fore
SplineSet
283 338 m 1,0,-1
 283 417 l 2,1,2
 283 467 283 467 287.5 507 c 128,-1,3
 292 547 292 547 305.5 584 c 128,-1,4
 319 621 319 621 344.5 657 c 128,-1,5
 370 693 370 693 412 735 c 0,6,7
 455 778 455 778 491.5 817.5 c 128,-1,8
 528 857 528 857 553.5 895 c 128,-1,9
 579 933 579 933 593.5 971.5 c 128,-1,10
 608 1010 608 1010 608 1052 c 0,11,12
 608 1111 608 1111 583.5 1149 c 128,-1,13
 559 1187 559 1187 523 1208.5 c 128,-1,14
 487 1230 487 1230 446 1238.5 c 128,-1,15
 405 1247 405 1247 372 1247 c 0,16,17
 327 1247 327 1247 257.5 1232.5 c 128,-1,18
 188 1218 188 1218 95 1177 c 1,19,-1
 65 1348 l 1,20,21
 125 1374 125 1374 204 1395.5 c 128,-1,22
 283 1417 283 1417 378 1417 c 0,23,24
 476 1417 476 1417 555 1393 c 128,-1,25
 634 1369 634 1369 689 1323 c 128,-1,26
 744 1277 744 1277 773.5 1211 c 128,-1,27
 803 1145 803 1145 803 1061 c 0,28,29
 803 998 803 998 789 950 c 128,-1,30
 775 902 775 902 747.5 858.5 c 128,-1,31
 720 815 720 815 678 771.5 c 128,-1,32
 636 728 636 728 580 675 c 0,33,34
 537 635 537 635 510 607 c 128,-1,35
 483 579 483 579 468 551.5 c 128,-1,36
 453 524 453 524 447.5 491 c 128,-1,37
 442 458 442 458 442 408 c 2,38,-1
 442 338 l 1,39,-1
 283 338 l 1,0,-1
256 0 m 1,40,-1
 469 0 l 1,41,-1
 469 211 l 1,42,-1
 256 211 l 1,43,-1
 256 0 l 1,40,-1
EndSplineSet
EndChar

StartChar: at
Encoding: 64 64 38
Width: 1642
Flags: W
LayerCount: 2
Fore
SplineSet
834 -77 m 0,0,1
 667 -77 667 -77 531 -26.5 c 128,-1,2
 395 24 395 24 299 118 c 128,-1,3
 203 212 203 212 150.5 346 c 128,-1,4
 98 480 98 480 98 647 c 0,5,6
 98 769 98 769 126 876.5 c 128,-1,7
 154 984 154 984 205.5 1073 c 128,-1,8
 257 1162 257 1162 329 1232 c 128,-1,9
 401 1302 401 1302 489 1350 c 128,-1,10
 577 1398 577 1398 678 1423.5 c 128,-1,11
 779 1449 779 1449 888 1449 c 0,12,13
 1024 1449 1024 1449 1145 1407 c 128,-1,14
 1266 1365 1266 1365 1357 1283.5 c 128,-1,15
 1448 1202 1448 1202 1501 1082 c 128,-1,16
 1554 962 1554 962 1554 807 c 0,17,18
 1554 701 1554 701 1525 608.5 c 128,-1,19
 1496 516 1496 516 1445.5 447.5 c 128,-1,20
 1395 379 1395 379 1328 339.5 c 128,-1,21
 1261 300 1261 300 1185 300 c 256,22,23
 1109 300 1109 300 1065.5 346.5 c 128,-1,24
 1022 393 1022 393 1019 485 c 1,25,26
 999 452 999 452 972 419 c 128,-1,27
 945 386 945 386 914.5 359.5 c 128,-1,28
 884 333 884 333 842 316.5 c 128,-1,29
 800 300 800 300 750 300 c 0,30,31
 685 300 685 300 632 323.5 c 128,-1,32
 579 347 579 347 541.5 391 c 128,-1,33
 504 435 504 435 484 496.5 c 128,-1,34
 464 558 464 558 470 635 c 1,35,36
 470 722 470 722 498 804 c 128,-1,37
 526 886 526 886 575 949.5 c 128,-1,38
 624 1013 624 1013 697.5 1051.5 c 128,-1,39
 771 1090 771 1090 862 1090 c 0,40,41
 913 1090 913 1090 963.5 1067 c 128,-1,42
 1014 1044 1014 1044 1058 1000 c 1,43,44
 1059 1011 1059 1011 1061 1023 c 128,-1,45
 1063 1035 1063 1035 1065 1045 c 0,46,47
 1067 1056 1067 1056 1069 1068 c 1,48,-1
 1208 1049 l 1,49,-1
 1134 646 l 1,50,51
 1126 608 1126 608 1123 576.5 c 128,-1,52
 1120 545 1120 545 1120 521 c 0,53,54
 1120 461 1120 461 1141.5 437 c 128,-1,55
 1163 413 1163 413 1209 413 c 0,56,57
 1253 413 1253 413 1293 443.5 c 128,-1,58
 1333 474 1333 474 1364 527.5 c 128,-1,59
 1395 581 1395 581 1413 654 c 128,-1,60
 1431 727 1431 727 1431 813 c 0,61,62
 1431 940 1431 940 1388 1037 c 128,-1,63
 1345 1134 1345 1134 1270.5 1198.5 c 128,-1,64
 1196 1263 1196 1263 1097.5 1296 c 128,-1,65
 999 1329 999 1329 888 1329 c 0,66,67
 742 1329 742 1329 619.5 1281 c 128,-1,68
 497 1233 497 1233 408.5 1144 c 128,-1,69
 320 1055 320 1055 270.5 929 c 128,-1,70
 221 803 221 803 221 647 c 0,71,72
 221 505 221 505 264.5 392.5 c 128,-1,73
 308 280 308 280 388.5 202 c 128,-1,74
 469 124 469 124 582.5 83 c 128,-1,75
 696 42 696 42 837 42 c 0,76,77
 906 42 906 42 970.5 53.5 c 128,-1,78
 1035 65 1035 65 1094.5 84.5 c 128,-1,79
 1154 104 1154 104 1209.5 129.5 c 128,-1,80
 1265 155 1265 155 1316 183 c 1,81,-1
 1347 72 l 1,82,83
 1237 5 1237 5 1112.5 -36 c 128,-1,84
 988 -77 988 -77 834 -77 c 0,0,1
782 423 m 0,85,86
 824 423 824 423 855 438.5 c 128,-1,87
 886 454 886 454 905 479.5 c 128,-1,88
 924 505 924 505 940 537.5 c 128,-1,89
 956 570 956 570 967.5 604.5 c 128,-1,90
 979 639 979 639 987 672.5 c 128,-1,91
 995 706 995 706 1002 733 c 1,92,-1
 1038 940 l 1,93,94
 1002 948 1002 948 969 954 c 0,95,96
 941 959 941 959 917.5 964 c 128,-1,97
 894 969 894 969 880 969 c 0,98,99
 818 969 818 969 768.5 936.5 c 128,-1,100
 719 904 719 904 684.5 853.5 c 128,-1,101
 650 803 650 803 633.5 742.5 c 128,-1,102
 617 682 617 682 617 626 c 1,103,104
 619 529 619 529 661 476 c 128,-1,105
 703 423 703 423 782 423 c 0,85,86
EndSplineSet
EndChar

StartChar: A
Encoding: 65 65 39
Width: 1295
Flags: W
LayerCount: 2
Fore
SplineSet
19 64 m 1,0,-1
 553 1412 l 1,1,-1
 746 1412 l 1,2,-1
 1273 59 l 1,3,-1
 1273 0 l 1,4,-1
 1084 0 l 1,5,-1
 932 396 l 1,6,-1
 349 396 l 1,7,-1
 195 0 l 1,8,-1
 19 0 l 1,9,-1
 19 64 l 1,0,-1
547 928 m 1,10,-1
 414 568 l 1,11,-1
 869 568 l 1,12,-1
 739 928 l 1,13,-1
 644 1198 l 1,14,-1
 547 928 l 1,10,-1
EndSplineSet
EndChar

StartChar: B
Encoding: 66 66 40
Width: 1269
Flags: W
LayerCount: 2
Fore
SplineSet
190 1412 m 1,0,-1
 645 1412 l 2,1,2
 757 1412 757 1412 845.5 1393.5 c 128,-1,3
 934 1375 934 1375 995.5 1332.5 c 128,-1,4
 1057 1290 1057 1290 1089.5 1221.5 c 128,-1,5
 1122 1153 1122 1153 1122 1054 c 0,6,7
 1122 990 1122 990 1102 939.5 c 128,-1,8
 1082 889 1082 889 1049.5 850.5 c 128,-1,9
 1017 812 1017 812 976 784.5 c 128,-1,10
 935 757 935 757 892 740 c 1,11,12
 941 725 941 725 990 700 c 128,-1,13
 1039 675 1039 675 1077 635.5 c 128,-1,14
 1115 596 1115 596 1139 538 c 128,-1,15
 1163 480 1163 480 1163 399 c 0,16,17
 1163 339 1163 339 1148.5 289 c 128,-1,18
 1134 239 1134 239 1111.5 199.5 c 128,-1,19
 1089 160 1089 160 1062.5 130.5 c 128,-1,20
 1036 101 1036 101 1012 83 c 1,21,-1
 1013 84 l 1,22,23
 949 38 949 38 863.5 19 c 128,-1,24
 778 0 778 0 688 0 c 2,25,-1
 190 0 l 1,26,-1
 190 1412 l 1,0,-1
387 821 m 1,27,-1
 637 821 l 2,28,29
 686 821 686 821 736.5 829 c 128,-1,30
 787 837 787 837 827.5 860 c 128,-1,31
 868 883 868 883 893.5 925.5 c 128,-1,32
 919 968 919 968 919 1037 c 0,33,34
 919 1104 919 1104 895 1144.5 c 128,-1,35
 871 1185 871 1185 831 1206 c 128,-1,36
 791 1227 791 1227 739 1233.5 c 128,-1,37
 687 1240 687 1240 631 1240 c 2,38,-1
 387 1240 l 1,39,-1
 387 821 l 1,27,-1
387 647 m 1,40,-1
 387 170 l 1,41,-1
 678 170 l 2,42,43
 815 170 815 170 886.5 232.5 c 128,-1,44
 958 295 958 295 958 413 c 0,45,46
 958 464 958 464 942 506.5 c 128,-1,47
 926 549 926 549 891.5 580.5 c 128,-1,48
 857 612 857 612 804 629.5 c 128,-1,49
 751 647 751 647 677 647 c 2,50,-1
 387 647 l 1,40,-1
EndSplineSet
EndChar

StartChar: C
Encoding: 67 67 41
Width: 1236
Flags: W
LayerCount: 2
Fore
SplineSet
1162 93 m 1,0,1
 1042 32 1042 32 934 3 c 128,-1,2
 826 -26 826 -26 730 -26 c 0,3,4
 624 -26 624 -26 536.5 2.5 c 128,-1,5
 449 31 449 31 380 81 c 128,-1,6
 311 131 311 131 259 199.5 c 128,-1,7
 207 268 207 268 173 348 c 128,-1,8
 139 428 139 428 122 516.5 c 128,-1,9
 105 605 105 605 105 695 c 0,10,11
 105 788 105 788 122.5 879.5 c 128,-1,12
 140 971 140 971 175 1054 c 128,-1,13
 210 1137 210 1137 262.5 1208 c 128,-1,14
 315 1279 315 1279 384 1331 c 128,-1,15
 453 1383 453 1383 538.5 1412.5 c 128,-1,16
 624 1442 624 1442 726 1442 c 0,17,18
 795 1442 795 1442 859.5 1426 c 128,-1,19
 924 1410 924 1410 980 1375 c 128,-1,20
 1036 1340 1036 1340 1080.5 1282.5 c 128,-1,21
 1125 1225 1125 1225 1152 1143 c 1,22,-1
 977 1101 l 1,23,24
 962 1150 962 1150 936.5 1182 c 128,-1,25
 911 1214 911 1214 879 1233 c 128,-1,26
 847 1252 847 1252 808.5 1260 c 128,-1,27
 770 1268 770 1268 729 1268 c 0,28,29
 628 1268 628 1268 550.5 1221 c 128,-1,30
 473 1174 473 1174 420 1095 c 128,-1,31
 367 1016 367 1016 340 912.5 c 128,-1,32
 313 809 313 809 313 697 c 0,33,34
 313 594 313 594 339 495.5 c 128,-1,35
 365 397 365 397 419 320 c 128,-1,36
 473 243 473 243 555 196 c 128,-1,37
 637 149 637 149 749 149 c 0,38,39
 824 149 824 149 910 173.5 c 128,-1,40
 996 198 996 198 1096 247 c 1,41,-1
 1162 93 l 1,0,1
EndSplineSet
EndChar

StartChar: D
Encoding: 68 68 42
Width: 1400
Flags: W
LayerCount: 2
Fore
SplineSet
1289 706 m 0,0,1
 1289 604 1289 604 1271.5 518.5 c 128,-1,2
 1254 433 1254 433 1225 363 c 128,-1,3
 1196 293 1196 293 1158.5 238.5 c 128,-1,4
 1121 184 1121 184 1079 145 c 1,5,6
 1031 103 1031 103 973.5 75 c 128,-1,7
 916 47 916 47 851.5 30.5 c 128,-1,8
 787 14 787 14 715.5 7 c 128,-1,9
 644 0 644 0 568 0 c 2,10,-1
 190 0 l 1,11,-1
 190 1412 l 1,12,-1
 592 1412 l 2,13,14
 664 1412 664 1412 735 1404.5 c 128,-1,15
 806 1397 806 1397 873.5 1377 c 128,-1,16
 941 1357 941 1357 1002.5 1322 c 128,-1,17
 1064 1287 1064 1287 1116 1231 c 1,18,19
 1202 1131 1202 1131 1245.5 995.5 c 128,-1,20
 1289 860 1289 860 1289 706 c 0,0,1
1080 699 m 0,21,22
 1080 739 1080 739 1075 793 c 128,-1,23
 1070 847 1070 847 1056 904 c 128,-1,24
 1042 961 1042 961 1016.5 1017 c 128,-1,25
 991 1073 991 1073 951 1118 c 0,26,27
 888 1187 888 1187 801.5 1213.5 c 128,-1,28
 715 1240 715 1240 595 1240 c 2,29,-1
 385 1240 l 1,30,-1
 385 171 l 1,31,-1
 554 171 l 2,32,33
 609 171 609 171 661.5 177 c 128,-1,34
 714 183 714 183 761 195.5 c 128,-1,35
 808 208 808 208 849.5 228 c 128,-1,36
 891 248 891 248 923 276 c 0,37,38
 970 319 970 319 1000.5 373 c 128,-1,39
 1031 427 1031 427 1048.5 484.5 c 128,-1,40
 1066 542 1066 542 1073 597.5 c 128,-1,41
 1080 653 1080 653 1080 699 c 0,21,22
EndSplineSet
EndChar

StartChar: E
Encoding: 69 69 43
Width: 1138
Flags: W
LayerCount: 2
Fore
SplineSet
1017 0 m 1,0,-1
 190 0 l 1,1,-1
 190 1412 l 1,2,-1
 1008 1412 l 1,3,-1
 1008 1237 l 1,4,-1
 386 1237 l 1,5,-1
 386 818 l 1,6,-1
 973 818 l 1,7,-1
 973 643 l 1,8,-1
 386 643 l 1,9,-1
 386 179 l 1,10,-1
 1017 179 l 1,11,-1
 1017 0 l 1,0,-1
EndSplineSet
EndChar

StartChar: F
Encoding: 70 70 44
Width: 1076
Flags: W
LayerCount: 2
Fore
SplineSet
391 0 m 1,0,-1
 191 0 l 1,1,-1
 191 1412 l 1,2,-1
 986 1412 l 1,3,-1
 986 1237 l 1,4,-1
 391 1237 l 1,5,-1
 391 789 l 1,6,-1
 950 789 l 1,7,-1
 950 614 l 1,8,-1
 391 614 l 1,9,-1
 391 0 l 1,0,-1
EndSplineSet
EndChar

StartChar: G
Encoding: 71 71 45
Width: 1368
Flags: W
LayerCount: 2
Fore
SplineSet
1029 1086 m 1,0,1
 1012 1140 1012 1140 985 1175.5 c 128,-1,2
 958 1211 958 1211 924 1231.5 c 128,-1,3
 890 1252 890 1252 850 1260 c 128,-1,4
 810 1268 810 1268 767 1268 c 0,5,6
 678 1268 678 1268 595.5 1236 c 128,-1,7
 513 1204 513 1204 449.5 1135.5 c 128,-1,8
 386 1067 386 1067 348 960 c 128,-1,9
 310 853 310 853 310 704 c 0,10,11
 310 588 310 588 335 487 c 128,-1,12
 360 386 360 386 416 311 c 128,-1,13
 472 236 472 236 562.5 192.5 c 128,-1,14
 653 149 653 149 785 149 c 0,15,16
 867 149 867 149 924.5 157.5 c 128,-1,17
 982 166 982 166 1027 175 c 1,18,-1
 1041 175 l 1,19,-1
 1041 751 l 1,20,-1
 1231 751 l 1,21,-1
 1231 54 l 1,22,23
 1181 38 1181 38 1128.5 23.5 c 128,-1,24
 1076 9 1076 9 1017 -2 c 128,-1,25
 958 -13 958 -13 892.5 -19.5 c 128,-1,26
 827 -26 827 -26 752 -26 c 0,27,28
 587 -26 587 -26 465.5 28.5 c 128,-1,29
 344 83 344 83 264.5 180 c 128,-1,30
 185 277 185 277 146.5 410 c 128,-1,31
 108 543 108 543 108 700 c 0,32,33
 108 829 108 829 133.5 934 c 128,-1,34
 159 1039 159 1039 204 1121.5 c 128,-1,35
 249 1204 249 1204 311 1264.5 c 128,-1,36
 373 1325 373 1325 446 1364.5 c 128,-1,37
 519 1404 519 1404 599.5 1423 c 128,-1,38
 680 1442 680 1442 763 1442 c 0,39,40
 829 1442 829 1442 900 1426.5 c 128,-1,41
 971 1411 971 1411 1034.5 1373.5 c 128,-1,42
 1098 1336 1098 1336 1149 1273.5 c 128,-1,43
 1200 1211 1200 1211 1227 1118 c 1,44,-1
 1029 1086 l 1,0,1
EndSplineSet
EndChar

StartChar: H
Encoding: 72 72 46
Width: 1417
Flags: W
LayerCount: 2
Fore
SplineSet
1226 0 m 1,0,-1
 1029 0 l 1,1,-1
 1029 640 l 1,2,-1
 388 640 l 1,3,-1
 388 0 l 1,4,-1
 191 0 l 1,5,-1
 191 1412 l 1,6,-1
 388 1412 l 1,7,-1
 388 818 l 1,8,-1
 1029 818 l 1,9,-1
 1029 1412 l 1,10,-1
 1226 1412 l 1,11,-1
 1226 0 l 1,0,-1
EndSplineSet
EndChar

StartChar: I
Encoding: 73 73 47
Width: 577
Flags: W
LayerCount: 2
Fore
SplineSet
191 0 m 1,0,-1
 191 1412 l 1,1,-1
 387 1412 l 1,2,-1
 387 0 l 1,3,-1
 191 0 l 1,0,-1
EndSplineSet
EndChar

StartChar: J
Encoding: 74 74 48
Width: 575
Flags: W
LayerCount: 2
Fore
SplineSet
-177 -67 m 1,0,1
 -136 -84 -136 -84 -90 -96 c 128,-1,2
 -44 -108 -44 -108 2 -108 c 0,3,4
 40 -108 40 -108 74 -97 c 128,-1,5
 108 -86 108 -86 134 -60.5 c 128,-1,6
 160 -35 160 -35 175.5 8 c 128,-1,7
 191 51 191 51 191 115 c 2,8,-1
 191 1412 l 1,9,-1
 385 1412 l 1,10,-1
 385 116 l 2,11,12
 385 18 385 18 355.5 -56.5 c 128,-1,13
 326 -131 326 -131 276 -181 c 128,-1,14
 226 -231 226 -231 161 -256.5 c 128,-1,15
 96 -282 96 -282 26 -282 c 0,16,17
 -40 -282 -40 -282 -106 -260 c 128,-1,18
 -172 -238 -172 -238 -232 -193 c 1,19,-1
 -177 -67 l 1,0,1
EndSplineSet
EndChar

StartChar: K
Encoding: 75 75 49
Width: 1231
Flags: W
LayerCount: 2
Fore
SplineSet
1244 0 m 1,0,-1
 988 0 l 1,1,-1
 443 706 l 1,2,-1
 387 636 l 1,3,-1
 387 0 l 1,4,-1
 191 0 l 1,5,-1
 191 1412 l 1,6,-1
 387 1412 l 1,7,-1
 387 769 l 1,8,-1
 494 896 l 1,9,-1
 948 1412 l 1,10,-1
 1200 1412 l 1,11,-1
 626 785 l 1,12,-1
 1244 0 l 1,0,-1
EndSplineSet
EndChar

StartChar: L
Encoding: 76 76 50
Width: 1025
Flags: W
LayerCount: 2
Fore
SplineSet
190 0 m 1,0,-1
 190 1412 l 1,1,-1
 387 1412 l 1,2,-1
 387 180 l 1,3,-1
 991 180 l 1,4,-1
 991 0 l 1,5,-1
 190 0 l 1,0,-1
EndSplineSet
EndChar

StartChar: M
Encoding: 77 77 51
Width: 1789
Flags: W
LayerCount: 2
Fore
SplineSet
1404 0 m 1,0,-1
 1404 735 l 2,1,2
 1404 749 1404 749 1404.5 795.5 c 128,-1,3
 1405 842 1405 842 1405.5 902 c 128,-1,4
 1406 962 1406 962 1406.5 1027.5 c 128,-1,5
 1407 1093 1407 1093 1408 1146 c 1,6,-1
 1384 1150 l 1,7,-1
 971 0 l 1,8,-1
 797 0 l 1,9,-1
 398 1139 l 1,10,-1
 373 1135 l 1,11,12
 374 1082 374 1082 375 1017.5 c 128,-1,13
 376 953 376 953 377 893.5 c 128,-1,14
 378 834 378 834 378.5 788.5 c 128,-1,15
 379 743 379 743 379 728 c 2,16,-1
 379 0 l 1,17,-1
 190 0 l 1,18,-1
 190 1412 l 1,19,-1
 505 1412 l 1,20,-1
 889 252 l 1,21,-1
 1296 1412 l 1,22,-1
 1599 1412 l 1,23,-1
 1599 0 l 1,24,-1
 1404 0 l 1,0,-1
EndSplineSet
EndChar

StartChar: N
Encoding: 78 78 52
Width: 1487
Flags: W
LayerCount: 2
Fore
SplineSet
191 0 m 1,0,-1
 191 1412 l 1,1,-1
 437 1412 l 1,2,-1
 1096 305 l 1,3,-1
 1118 310 l 1,4,5
 1117 342 1117 342 1116.5 383.5 c 128,-1,6
 1116 425 1116 425 1115 469.5 c 128,-1,7
 1114 514 1114 514 1113.5 558 c 128,-1,8
 1113 602 1113 602 1112.5 639.5 c 128,-1,9
 1112 677 1112 677 1112 704 c 128,-1,10
 1112 731 1112 731 1112 742 c 2,11,-1
 1112 1412 l 1,12,-1
 1296 1412 l 1,13,-1
 1296 0 l 1,14,-1
 1059 0 l 1,15,-1
 387 1123 l 1,16,-1
 366 1118 l 1,17,18
 367 1085 367 1085 367.5 1043 c 128,-1,19
 368 1001 368 1001 369 955.5 c 128,-1,20
 370 910 370 910 370.5 864.5 c 128,-1,21
 371 819 371 819 371.5 781 c 128,-1,22
 372 743 372 743 372 714.5 c 128,-1,23
 372 686 372 686 372 675 c 2,24,-1
 372 0 l 1,25,-1
 191 0 l 1,0,-1
EndSplineSet
EndChar

StartChar: O
Encoding: 79 79 53
Width: 1483
Flags: W
LayerCount: 2
Fore
SplineSet
742 -26 m 256,0,1
 626 -26 626 -26 534.5 1.5 c 128,-1,2
 443 29 443 29 373 78 c 128,-1,3
 303 127 303 127 253.5 195 c 128,-1,4
 204 263 204 263 172.5 344 c 128,-1,5
 141 425 141 425 126.5 516 c 128,-1,6
 112 607 112 607 112 703 c 0,7,8
 112 801 112 801 127.5 894 c 128,-1,9
 143 987 143 987 175.5 1069 c 128,-1,10
 208 1151 208 1151 258.5 1219.5 c 128,-1,11
 309 1288 309 1288 379 1337.5 c 128,-1,12
 449 1387 449 1387 539.5 1414.5 c 128,-1,13
 630 1442 630 1442 742 1442 c 256,14,15
 854 1442 854 1442 944.5 1414.5 c 128,-1,16
 1035 1387 1035 1387 1105 1337.5 c 128,-1,17
 1175 1288 1175 1288 1225.5 1219.5 c 128,-1,18
 1276 1151 1276 1151 1308 1069 c 128,-1,19
 1340 987 1340 987 1355.5 894 c 128,-1,20
 1371 801 1371 801 1371 703 c 0,21,22
 1371 607 1371 607 1356.5 516 c 128,-1,23
 1342 425 1342 425 1311 344 c 128,-1,24
 1280 263 1280 263 1230.5 195 c 128,-1,25
 1181 127 1181 127 1111 78 c 128,-1,26
 1041 29 1041 29 949.5 1.5 c 128,-1,27
 858 -26 858 -26 742 -26 c 256,0,1
742 149 m 0,28,29
 866 149 866 149 947.5 194 c 128,-1,30
 1029 239 1029 239 1077 316 c 128,-1,31
 1125 393 1125 393 1144.5 494 c 128,-1,32
 1164 595 1164 595 1164 708 c 0,33,34
 1164 825 1164 825 1143.5 927 c 128,-1,35
 1123 1029 1123 1029 1074 1105 c 128,-1,36
 1025 1181 1025 1181 944 1224.5 c 128,-1,37
 863 1268 863 1268 742 1268 c 256,38,39
 621 1268 621 1268 540 1224.5 c 128,-1,40
 459 1181 459 1181 410 1105 c 128,-1,41
 361 1029 361 1029 340 927 c 128,-1,42
 319 825 319 825 319 708 c 0,43,44
 319 595 319 595 338.5 494 c 128,-1,45
 358 393 358 393 406 316 c 128,-1,46
 454 239 454 239 535.5 194 c 128,-1,47
 617 149 617 149 742 149 c 0,28,29
EndSplineSet
EndChar

StartChar: P
Encoding: 80 80 54
Width: 1160
Flags: W
LayerCount: 2
Fore
SplineSet
1101 1010 m 0,0,1
 1101 925 1101 925 1075 848.5 c 128,-1,2
 1049 772 1049 772 987.5 714 c 128,-1,3
 926 656 926 656 824 621.5 c 128,-1,4
 722 587 722 587 571 587 c 2,5,-1
 387 587 l 1,6,-1
 387 0 l 1,7,-1
 191 0 l 1,8,-1
 191 1412 l 1,9,-1
 608 1412 l 2,10,11
 714 1412 714 1412 804 1391 c 128,-1,12
 894 1370 894 1370 960 1322.5 c 128,-1,13
 1026 1275 1026 1275 1063.5 1198 c 128,-1,14
 1101 1121 1101 1121 1101 1010 c 0,0,1
387 757 m 1,15,-1
 482 757 l 2,16,17
 532 757 532 757 582.5 758 c 128,-1,18
 633 759 633 759 679 766 c 128,-1,19
 725 773 725 773 764.5 788 c 128,-1,20
 804 803 804 803 833.5 831.5 c 128,-1,21
 863 860 863 860 879.5 903.5 c 128,-1,22
 896 947 896 947 896 1010 c 0,23,24
 896 1083 896 1083 871 1128 c 128,-1,25
 846 1173 846 1173 805 1198.5 c 128,-1,26
 764 1224 764 1224 711 1233 c 128,-1,27
 658 1242 658 1242 601 1242 c 2,28,-1
 387 1242 l 1,29,-1
 387 757 l 1,15,-1
EndSplineSet
EndChar

StartChar: Q
Encoding: 81 81 55
Width: 1467
Flags: W
LayerCount: 2
Fore
SplineSet
1352 722 m 0,0,1
 1352 641 1352 641 1338.5 555.5 c 128,-1,2
 1325 470 1325 470 1292 387.5 c 128,-1,3
 1259 305 1259 305 1203.5 229 c 128,-1,4
 1148 153 1148 153 1064 92 c 1,5,6
 1097 83 1097 83 1137 70 c 128,-1,7
 1177 57 1177 57 1217.5 41 c 128,-1,8
 1258 25 1258 25 1295.5 8 c 128,-1,9
 1333 -9 1333 -9 1362 -25 c 1,10,-1
 1305 -180 l 1,11,12
 1167 -125 1167 -125 1031.5 -87.5 c 128,-1,13
 896 -50 896 -50 752 -22 c 1,14,15
 738 -23 738 -23 725 -23.5 c 128,-1,16
 712 -24 712 -24 698 -24 c 0,17,18
 565 -24 565 -24 456.5 25 c 128,-1,19
 348 74 348 74 271.5 167 c 128,-1,20
 195 260 195 260 153 395 c 128,-1,21
 111 530 111 530 111 703 c 0,22,23
 111 801 111 801 127.5 894 c 128,-1,24
 144 987 144 987 177 1069 c 128,-1,25
 210 1151 210 1151 260.5 1219.5 c 128,-1,26
 311 1288 311 1288 379.5 1337.5 c 128,-1,27
 448 1387 448 1387 535 1414.5 c 128,-1,28
 622 1442 622 1442 728 1442 c 0,29,30
 840 1442 840 1442 930 1415.5 c 128,-1,31
 1020 1389 1020 1389 1089.5 1341 c 128,-1,32
 1159 1293 1159 1293 1208.5 1226.5 c 128,-1,33
 1258 1160 1258 1160 1290 1080 c 128,-1,34
 1322 1000 1322 1000 1337 909 c 128,-1,35
 1352 818 1352 818 1352 722 c 0,0,1
319 700 m 0,36,37
 319 595 319 595 339.5 495.5 c 128,-1,38
 360 396 360 396 408 319 c 128,-1,39
 456 242 456 242 535 195.5 c 128,-1,40
 614 149 614 149 730 149 c 0,41,42
 816 149 816 149 881 173.5 c 128,-1,43
 946 198 946 198 992.5 240 c 128,-1,44
 1039 282 1039 282 1069.5 338 c 128,-1,45
 1100 394 1100 394 1117.5 455.5 c 128,-1,46
 1135 517 1135 517 1142 581 c 128,-1,47
 1149 645 1149 645 1149 704 c 0,48,49
 1149 836 1149 836 1123 940.5 c 128,-1,50
 1097 1045 1097 1045 1045 1118 c 128,-1,51
 993 1191 993 1191 915 1230 c 128,-1,52
 837 1269 837 1269 733 1269 c 0,53,54
 648 1269 648 1269 584.5 1243.5 c 128,-1,55
 521 1218 521 1218 475 1175 c 128,-1,56
 429 1132 429 1132 399 1074.5 c 128,-1,57
 369 1017 369 1017 351 954 c 128,-1,58
 333 891 333 891 326 825.5 c 128,-1,59
 319 760 319 760 319 700 c 0,36,37
EndSplineSet
EndChar

StartChar: R
Encoding: 82 82 56
Width: 1284
Flags: W
LayerCount: 2
Fore
SplineSet
191 0 m 1,0,-1
 191 1412 l 1,1,-1
 624 1412 l 2,2,3
 716 1412 716 1412 804 1394 c 128,-1,4
 892 1376 892 1376 960.5 1333 c 128,-1,5
 1029 1290 1029 1290 1071 1219 c 128,-1,6
 1113 1148 1113 1148 1113 1043 c 0,7,8
 1113 975 1113 975 1095 920.5 c 128,-1,9
 1077 866 1077 866 1043.5 822.5 c 128,-1,10
 1010 779 1010 779 962 747 c 128,-1,11
 914 715 914 715 854 692 c 1,12,13
 934 673 934 673 980.5 643.5 c 128,-1,14
 1027 614 1027 614 1053.5 571.5 c 128,-1,15
 1080 529 1080 529 1091.5 473.5 c 128,-1,16
 1103 418 1103 418 1113 347.5 c 128,-1,17
 1123 277 1123 277 1137 190.5 c 128,-1,18
 1151 104 1151 104 1183 0 c 1,19,-1
 973 0 l 1,20,21
 952 109 952 109 940.5 196.5 c 128,-1,22
 929 284 929 284 917 351.5 c 128,-1,23
 905 419 905 419 888.5 467.5 c 128,-1,24
 872 516 872 516 841 547 c 128,-1,25
 810 578 810 578 761 592.5 c 128,-1,26
 712 607 712 607 635 607 c 2,27,-1
 387 607 l 1,28,-1
 387 0 l 1,29,-1
 191 0 l 1,0,-1
386 755 m 1,30,-1
 618 755 l 2,31,32
 679 755 679 755 732 769 c 128,-1,33
 785 783 785 783 824.5 814 c 128,-1,34
 864 845 864 845 886.5 895.5 c 128,-1,35
 909 946 909 946 909 1019 c 0,36,37
 909 1095 909 1095 880 1139 c 128,-1,38
 851 1183 851 1183 805 1205.5 c 128,-1,39
 759 1228 759 1228 702.5 1233.5 c 128,-1,40
 646 1239 646 1239 592 1239 c 2,41,-1
 386 1239 l 1,42,-1
 386 755 l 1,30,-1
EndSplineSet
EndChar

StartChar: S
Encoding: 83 83 57
Width: 1095
Flags: W
LayerCount: 2
Fore
SplineSet
489 149 m 0,0,1
 571 149 571 149 630.5 167 c 128,-1,2
 690 185 690 185 728.5 216.5 c 128,-1,3
 767 248 767 248 785.5 290.5 c 128,-1,4
 804 333 804 333 804 383 c 256,5,6
 804 433 804 433 787 470.5 c 128,-1,7
 770 508 770 508 733.5 538 c 128,-1,8
 697 568 697 568 639 595 c 128,-1,9
 581 622 581 622 500 651 c 0,10,11
 394 689 394 689 321.5 731.5 c 128,-1,12
 249 774 249 774 204 824.5 c 128,-1,13
 159 875 159 875 139.5 935.5 c 128,-1,14
 120 996 120 996 120 1070 c 0,15,16
 120 1161 120 1161 154 1230.5 c 128,-1,17
 188 1300 188 1300 247.5 1347 c 128,-1,18
 307 1394 307 1394 387.5 1418 c 128,-1,19
 468 1442 468 1442 561 1442 c 0,20,21
 658 1442 658 1442 762 1409.5 c 128,-1,22
 866 1377 866 1377 975 1305 c 1,23,-1
 898 1159 l 1,24,25
 807 1217 807 1217 723.5 1242.5 c 128,-1,26
 640 1268 640 1268 565 1268 c 0,27,28
 443 1268 443 1268 377 1216.5 c 128,-1,29
 311 1165 311 1165 311 1074 c 0,30,31
 311 1023 311 1023 325 987 c 128,-1,32
 339 951 339 951 371 922.5 c 128,-1,33
 403 894 403 894 454.5 870.5 c 128,-1,34
 506 847 506 847 582 821 c 0,35,36
 715 776 715 776 796 730 c 128,-1,37
 877 684 877 684 921 634 c 128,-1,38
 965 584 965 584 979.5 527 c 128,-1,39
 994 470 994 470 994 401 c 0,40,41
 994 302 994 302 960.5 223 c 128,-1,42
 927 144 927 144 864 88.5 c 128,-1,43
 801 33 801 33 709.5 3.5 c 128,-1,44
 618 -26 618 -26 501 -26 c 0,45,46
 410 -26 410 -26 306 2.5 c 128,-1,47
 202 31 202 31 87 93 c 1,48,-1
 151 249 l 1,49,50
 248 199 248 199 331.5 174 c 128,-1,51
 415 149 415 149 489 149 c 0,0,1
EndSplineSet
EndChar

StartChar: T
Encoding: 84 84 58
Width: 1140
Flags: W
LayerCount: 2
Fore
SplineSet
668 0 m 1,0,-1
 473 0 l 1,1,-1
 473 1237 l 1,2,-1
 35 1237 l 1,3,-1
 35 1412 l 1,4,-1
 1106 1412 l 1,5,-1
 1106 1237 l 1,6,-1
 668 1237 l 1,7,-1
 668 0 l 1,0,-1
EndSplineSet
EndChar

StartChar: U
Encoding: 85 85 59
Width: 1441
Flags: W
LayerCount: 2
Fore
SplineSet
1266 1412 m 1,0,-1
 1266 524 l 2,1,2
 1266 400 1266 400 1226.5 298.5 c 128,-1,3
 1187 197 1187 197 1115 125 c 128,-1,4
 1043 53 1043 53 942.5 13.5 c 128,-1,5
 842 -26 842 -26 721 -26 c 256,6,7
 600 -26 600 -26 499.5 9.5 c 128,-1,8
 399 45 399 45 326.5 114.5 c 128,-1,9
 254 184 254 184 214 288.5 c 128,-1,10
 174 393 174 393 174 531 c 2,11,-1
 174 1412 l 1,12,-1
 370 1412 l 1,13,-1
 370 519 l 2,14,15
 370 408 370 408 401.5 336 c 128,-1,16
 433 264 433 264 483.5 223 c 128,-1,17
 534 182 534 182 597.5 166 c 128,-1,18
 661 150 661 150 725 150 c 0,19,20
 801 150 801 150 856 167.5 c 128,-1,21
 911 185 911 185 950 214 c 128,-1,22
 989 243 989 243 1013 281.5 c 128,-1,23
 1037 320 1037 320 1050.5 361.5 c 128,-1,24
 1064 403 1064 403 1068.5 445 c 128,-1,25
 1073 487 1073 487 1073 524 c 2,26,-1
 1073 1412 l 1,27,-1
 1266 1412 l 1,0,-1
EndSplineSet
EndChar

StartChar: V
Encoding: 86 86 60
Width: 1212
Flags: W
LayerCount: 2
Fore
SplineSet
1000 1412 m 1,0,-1
 1205 1412 l 1,1,-1
 706 0 l 1,2,-1
 500 0 l 1,3,-1
 15 1412 l 1,4,-1
 229 1412 l 1,5,-1
 467 678 l 2,6,7
 470 667 470 667 478 641 c 128,-1,8
 486 615 486 615 496 580 c 128,-1,9
 506 545 506 545 517.5 504 c 128,-1,10
 529 463 529 463 540 423 c 0,11,12
 566 327 566 327 598 214 c 1,13,-1
 609 214 l 1,14,15
 646 331 646 331 677 428 c 0,16,17
 690 469 690 469 703 510 c 128,-1,18
 716 551 716 551 727 586 c 128,-1,19
 738 621 738 621 746 646 c 128,-1,20
 754 671 754 671 757 681 c 2,21,-1
 1000 1412 l 1,0,-1
EndSplineSet
EndChar

StartChar: W
Encoding: 87 87 61
Width: 1898
Flags: W
LayerCount: 2
Fore
SplineSet
426 0 m 1,0,-1
 38 1412 l 1,1,-1
 246 1412 l 1,2,3
 290 1237 290 1237 336.5 1059 c 128,-1,4
 383 881 383 881 427 707 c 0,5,6
 431 688 431 688 439 649.5 c 128,-1,7
 447 611 447 611 457 563 c 128,-1,8
 467 515 467 515 477 463 c 128,-1,9
 487 411 487 411 495.5 366 c 128,-1,10
 504 321 504 321 509.5 287.5 c 128,-1,11
 515 254 515 254 515 243 c 1,12,-1
 540 240 l 1,13,-1
 569 365 l 1,14,15
 600 493 600 493 625.5 595 c 128,-1,16
 651 697 651 697 673 783 c 128,-1,17
 695 869 695 869 715.5 943.5 c 128,-1,18
 736 1018 736 1018 756 1091.5 c 128,-1,19
 776 1165 776 1165 797.5 1242.5 c 128,-1,20
 819 1320 819 1320 844 1412 c 1,21,-1
 1067 1412 l 1,22,-1
 1269 662 l 1,23,24
 1281 625 1281 625 1296 574.5 c 128,-1,25
 1311 524 1311 524 1325 471 c 128,-1,26
 1339 418 1339 418 1350 369 c 128,-1,27
 1361 320 1361 320 1364 286 c 1,28,-1
 1390 284 l 1,29,-1
 1432 472 l 2,30,31
 1441 511 1441 511 1449.5 549.5 c 128,-1,32
 1458 588 1458 588 1465 620 c 128,-1,33
 1472 652 1472 652 1477.5 675 c 128,-1,34
 1483 698 1483 698 1486 708 c 2,35,-1
 1661 1412 l 1,36,-1
 1860 1412 l 1,37,-1
 1471 0 l 1,38,-1
 1266 0 l 1,39,-1
 1187 290 l 2,40,41
 1157 402 1157 402 1125.5 514 c 128,-1,42
 1094 626 1094 626 1065 738 c 0,43,44
 1061 752 1061 752 1052.5 787 c 128,-1,45
 1044 822 1044 822 1033.5 867.5 c 128,-1,46
 1023 913 1023 913 1011.5 963.5 c 128,-1,47
 1000 1014 1000 1014 990.5 1059.5 c 128,-1,48
 981 1105 981 1105 975 1139.5 c 128,-1,49
 969 1174 969 1174 969 1187 c 1,50,-1
 943 1189 l 1,51,-1
 828 735 l 1,52,-1
 627 0 l 1,53,-1
 426 0 l 1,0,-1
EndSplineSet
EndChar

StartChar: X
Encoding: 88 88 62
Width: 1261
Flags: W
LayerCount: 2
Fore
SplineSet
1242 0 m 1,0,-1
 1003 0 l 1,1,-1
 624 599 l 1,2,-1
 235 0 l 1,3,-1
 12 0 l 1,4,-1
 509 737 l 1,5,-1
 57 1412 l 1,6,-1
 291 1412 l 1,7,-1
 640 878 l 1,8,-1
 987 1412 l 1,9,-1
 1212 1412 l 1,10,-1
 754 738 l 1,11,-1
 1242 0 l 1,0,-1
EndSplineSet
EndChar

StartChar: Y
Encoding: 89 89 63
Width: 1174
Flags: W
LayerCount: 2
Fore
SplineSet
594 723 m 1,0,-1
 963 1412 l 1,1,-1
 1183 1412 l 1,2,-1
 687 547 l 1,3,-1
 687 0 l 1,4,-1
 487 0 l 1,5,-1
 487 547 l 1,6,-1
 -9 1412 l 1,7,-1
 223 1412 l 1,8,-1
 594 723 l 1,0,-1
EndSplineSet
EndChar

StartChar: Z
Encoding: 90 90 64
Width: 1173
Flags: W
LayerCount: 2
Fore
SplineSet
1082 0 m 1,0,-1
 89 0 l 1,1,-1
 89 179 l 1,2,-1
 831 1233 l 1,3,-1
 110 1233 l 1,4,-1
 110 1412 l 1,5,-1
 1064 1412 l 1,6,-1
 1064 1235 l 1,7,-1
 320 180 l 1,8,-1
 1082 180 l 1,9,-1
 1082 0 l 1,0,-1
EndSplineSet
EndChar

StartChar: bracketleft
Encoding: 91 91 65
Width: 609
Flags: W
LayerCount: 2
Fore
SplineSet
540 -272 m 1,0,-1
 172 -272 l 1,1,-1
 172 1438 l 1,2,-1
 540 1438 l 1,3,-1
 540 1304 l 1,4,-1
 344 1304 l 1,5,-1
 344 -135 l 1,6,-1
 540 -135 l 1,7,-1
 540 -272 l 1,0,-1
EndSplineSet
EndChar

StartChar: backslash
Encoding: 92 92 66
Width: 792
Flags: W
LayerCount: 2
Fore
SplineSet
231 1408 m 1,0,1
 352 1049 352 1049 473.5 695.5 c 128,-1,2
 595 342 595 342 717 -16 c 1,3,-1
 560 -16 l 1,4,-1
 73 1408 l 1,5,-1
 231 1408 l 1,0,1
EndSplineSet
EndChar

StartChar: bracketright
Encoding: 93 93 67
Width: 610
Flags: W
LayerCount: 2
Fore
SplineSet
70 -135 m 1,0,-1
 265 -135 l 1,1,-1
 265 1304 l 1,2,-1
 70 1304 l 1,3,-1
 70 1438 l 1,4,-1
 438 1438 l 1,5,-1
 438 -272 l 1,6,-1
 70 -272 l 1,7,-1
 70 -135 l 1,0,-1
EndSplineSet
EndChar

StartChar: asciicircum
Encoding: 94 94 68
Width: 1101
Flags: W
LayerCount: 2
Fore
SplineSet
100 523 m 1,0,-1
 485 1381 l 1,1,-1
 614 1381 l 1,2,-1
 996 523 l 1,3,-1
 824 523 l 1,4,-1
 548 1172 l 1,5,-1
 271 523 l 1,6,-1
 100 523 l 1,0,-1
EndSplineSet
EndChar

StartChar: underscore
Encoding: 95 95 69
Width: 1116
Flags: W
LayerCount: 2
Fore
SplineSet
1012 -273 m 1,0,-1
 105 -273 l 1,1,-1
 105 -145 l 1,2,-1
 1012 -145 l 1,3,-1
 1012 -273 l 1,0,-1
EndSplineSet
EndChar

StartChar: grave
Encoding: 96 96 70
Width: 816
Flags: W
LayerCount: 2
Fore
SplineSet
435 1164 m 1,0,-1
 162 1473 l 1,1,-1
 392 1473 l 1,2,-1
 564 1164 l 1,3,-1
 435 1164 l 1,0,-1
EndSplineSet
EndChar

StartChar: a
Encoding: 97 97 71
Width: 1039
Flags: W
LayerCount: 2
Fore
SplineSet
154 919 m 1,0,1
 194 946 194 946 240.5 968 c 128,-1,2
 287 990 287 990 336.5 1006.5 c 128,-1,3
 386 1023 386 1023 436 1032 c 128,-1,4
 486 1041 486 1041 533 1041 c 0,5,6
 605 1041 605 1041 669.5 1022.5 c 128,-1,7
 734 1004 734 1004 782.5 964.5 c 128,-1,8
 831 925 831 925 859 863 c 128,-1,9
 887 801 887 801 887 713 c 2,10,-1
 887 301 l 2,11,12
 887 233 887 233 890 178 c 128,-1,13
 893 123 893 123 898 83 c 0,14,15
 903 36 903 36 910 0 c 1,16,-1
 741 0 l 1,17,18
 738 17 738 17 735.5 63 c 128,-1,19
 733 109 733 109 731 166 c 1,20,21
 698 110 698 110 659 74.5 c 128,-1,22
 620 39 620 39 578 18 c 128,-1,23
 536 -3 536 -3 492 -11 c 128,-1,24
 448 -19 448 -19 405 -19 c 0,25,26
 330 -19 330 -19 269 1.5 c 128,-1,27
 208 22 208 22 165.5 61 c 128,-1,28
 123 100 123 100 100 155 c 128,-1,29
 77 210 77 210 77 279 c 0,30,31
 77 312 77 312 84.5 349 c 128,-1,32
 92 386 92 386 109 422 c 128,-1,33
 126 458 126 458 154 491 c 128,-1,34
 182 524 182 524 223 550 c 0,35,36
 267 578 267 578 320 593.5 c 128,-1,37
 373 609 373 609 429.5 616.5 c 128,-1,38
 486 624 486 624 543 625.5 c 128,-1,39
 600 627 600 627 653 627 c 2,40,-1
 707 627 l 1,41,-1
 707 701 l 2,42,43
 707 756 707 756 693 793.5 c 128,-1,44
 679 831 679 831 654 853.5 c 128,-1,45
 629 876 629 876 596 886 c 128,-1,46
 563 896 563 896 526 896 c 0,47,48
 485 896 485 896 441 886.5 c 128,-1,49
 397 877 397 877 355 862 c 128,-1,50
 313 847 313 847 275.5 829 c 128,-1,51
 238 811 238 811 209 793 c 1,52,-1
 154 919 l 1,0,1
646 210 m 0,53,54
 665 232 665 232 676.5 259 c 128,-1,55
 688 286 688 286 694.5 320 c 128,-1,56
 701 354 701 354 703.5 396 c 128,-1,57
 706 438 706 438 706 491 c 1,58,-1
 677 491 l 2,59,60
 608 491 608 491 534.5 486 c 128,-1,61
 461 481 461 481 399.5 460 c 128,-1,62
 338 439 338 439 298.5 395.5 c 128,-1,63
 259 352 259 352 259 276 c 0,64,65
 259 248 259 248 268 221.5 c 128,-1,66
 277 195 277 195 296.5 174 c 128,-1,67
 316 153 316 153 345.5 140 c 128,-1,68
 375 127 375 127 417 127 c 0,69,70
 489 127 489 127 550 148 c 128,-1,71
 611 169 611 169 646 210 c 0,53,54
EndSplineSet
EndChar

StartChar: b
Encoding: 98 98 72
Width: 1158
Flags: W
LayerCount: 2
Fore
SplineSet
158 1413 m 1,0,-1
 347 1413 l 1,1,-1
 345 1057 l 1,2,-1
 342 891 l 1,3,4
 363 919 363 919 390.5 946 c 128,-1,5
 418 973 418 973 452.5 994 c 128,-1,6
 487 1015 487 1015 529 1028 c 128,-1,7
 571 1041 571 1041 622 1041 c 0,8,9
 739 1041 739 1041 821.5 999.5 c 128,-1,10
 904 958 904 958 956.5 887 c 128,-1,11
 1009 816 1009 816 1033.5 722 c 128,-1,12
 1058 628 1058 628 1058 522 c 0,13,14
 1058 407 1058 407 1033.5 308 c 128,-1,15
 1009 209 1009 209 955.5 136.5 c 128,-1,16
 902 64 902 64 818 22.5 c 128,-1,17
 734 -19 734 -19 615 -19 c 0,18,19
 582 -19 582 -19 546.5 -10.5 c 128,-1,20
 511 -2 511 -2 474.5 16.5 c 128,-1,21
 438 35 438 35 402.5 65 c 128,-1,22
 367 95 367 95 336 137 c 1,23,24
 334 124 334 124 331 101.5 c 128,-1,25
 328 79 328 79 326 56 c 1,26,27
 322 30 322 30 320 0 c 1,28,-1
 158 0 l 1,29,-1
 158 1413 l 1,0,-1
345 351 m 2,30,31
 345 317 345 317 361 278 c 128,-1,32
 377 239 377 239 410 205.5 c 128,-1,33
 443 172 443 172 495 149.5 c 128,-1,34
 547 127 547 127 619 127 c 0,35,36
 689 127 689 127 738 159 c 128,-1,37
 787 191 787 191 818 245 c 128,-1,38
 849 299 849 299 862.5 369 c 128,-1,39
 876 439 876 439 876 516 c 0,40,41
 876 586 876 586 864.5 654.5 c 128,-1,42
 853 723 853 723 824 776 c 128,-1,43
 795 829 795 829 743.5 862 c 128,-1,44
 692 895 692 895 613 895 c 0,45,46
 560 895 560 895 512 874 c 128,-1,47
 464 853 464 853 426.5 820.5 c 128,-1,48
 389 788 389 788 367 750 c 128,-1,49
 345 712 345 712 345 678 c 2,50,-1
 345 351 l 2,30,31
EndSplineSet
EndChar

StartChar: c
Encoding: 99 99 73
Width: 960
Flags: W
LayerCount: 2
Fore
SplineSet
862 87 m 1,0,1
 785 33 785 33 697.5 7 c 128,-1,2
 610 -19 610 -19 530 -19 c 0,3,4
 447 -19 447 -19 369 12 c 128,-1,5
 291 43 291 43 231 109 c 128,-1,6
 171 175 171 175 134.5 277 c 128,-1,7
 98 379 98 379 98 522 c 0,8,9
 98 655 98 655 138 752.5 c 128,-1,10
 178 850 178 850 242 914 c 128,-1,11
 306 978 306 978 386.5 1009.5 c 128,-1,12
 467 1041 467 1041 548 1041 c 0,13,14
 605 1041 605 1041 660.5 1026 c 128,-1,15
 716 1011 716 1011 763 978 c 128,-1,16
 810 945 810 945 845 892 c 128,-1,17
 880 839 880 839 896 763 c 1,18,-1
 737 737 l 1,19,20
 726 782 726 782 707 812.5 c 128,-1,21
 688 843 688 843 663 861.5 c 128,-1,22
 638 880 638 880 609.5 887.5 c 128,-1,23
 581 895 581 895 551 895 c 0,24,25
 503 895 503 895 455.5 874 c 128,-1,26
 408 853 408 853 369.5 808 c 128,-1,27
 331 763 331 763 307 694 c 128,-1,28
 283 625 283 625 283 529 c 0,29,30
 283 434 283 434 298 359.5 c 128,-1,31
 313 285 313 285 345.5 233.5 c 128,-1,32
 378 182 378 182 428 154.5 c 128,-1,33
 478 127 478 127 547 127 c 0,34,35
 589 127 589 127 626.5 134.5 c 128,-1,36
 664 142 664 142 696 154.5 c 128,-1,37
 728 167 728 167 755 183 c 128,-1,38
 782 199 782 199 805 216 c 1,39,-1
 862 87 l 1,0,1
EndSplineSet
EndChar

StartChar: d
Encoding: 100 100 74
Width: 1159
Flags: W
LayerCount: 2
Fore
SplineSet
1000 0 m 1,0,-1
 838 0 l 1,1,2
 834 30 834 30 831 56 c 0,3,4
 828 79 828 79 826 101.5 c 128,-1,5
 824 124 824 124 822 137 c 1,6,7
 790 95 790 95 755 65 c 128,-1,8
 720 35 720 35 683.5 16.5 c 128,-1,9
 647 -2 647 -2 611.5 -10.5 c 128,-1,10
 576 -19 576 -19 543 -19 c 0,11,12
 424 -19 424 -19 339.5 22.5 c 128,-1,13
 255 64 255 64 202 136.5 c 128,-1,14
 149 209 149 209 124.5 308 c 128,-1,15
 100 407 100 407 100 522 c 0,16,17
 100 628 100 628 124 722 c 128,-1,18
 148 816 148 816 200.5 887 c 128,-1,19
 253 958 253 958 336 999.5 c 128,-1,20
 419 1041 419 1041 536 1041 c 0,21,22
 587 1041 587 1041 629 1028 c 128,-1,23
 671 1015 671 1015 705.5 994 c 128,-1,24
 740 973 740 973 767.5 946 c 128,-1,25
 795 919 795 919 816 891 c 1,26,-1
 813 1057 l 1,27,-1
 811 1413 l 1,28,-1
 1000 1413 l 1,29,-1
 1000 0 l 1,0,-1
813 678 m 2,30,31
 813 712 813 712 791 750 c 128,-1,32
 769 788 769 788 731.5 820.5 c 128,-1,33
 694 853 694 853 645.5 874 c 128,-1,34
 597 895 597 895 545 895 c 0,35,36
 465 895 465 895 414 862 c 128,-1,37
 363 829 363 829 334 776 c 128,-1,38
 305 723 305 723 293.5 654.5 c 128,-1,39
 282 586 282 586 282 516 c 0,40,41
 282 439 282 439 295.5 369 c 128,-1,42
 309 299 309 299 340 245 c 128,-1,43
 371 191 371 191 419.5 159 c 128,-1,44
 468 127 468 127 539 127 c 0,45,46
 611 127 611 127 663 149.5 c 128,-1,47
 715 172 715 172 748 205.5 c 128,-1,48
 781 239 781 239 797 278 c 128,-1,49
 813 317 813 317 813 351 c 2,50,-1
 813 678 l 2,30,31
EndSplineSet
EndChar

StartChar: e
Encoding: 101 101 75
Width: 1043
Flags: W
LayerCount: 2
Fore
SplineSet
925 83 m 1,0,1
 893 64 893 64 857.5 45.5 c 128,-1,2
 822 27 822 27 778 13 c 128,-1,3
 734 -1 734 -1 679.5 -10 c 128,-1,4
 625 -19 625 -19 556 -19 c 0,5,6
 451 -19 451 -19 366.5 16 c 128,-1,7
 282 51 282 51 222.5 118.5 c 128,-1,8
 163 186 163 186 131 284.5 c 128,-1,9
 99 383 99 383 99 510 c 0,10,11
 99 616 99 616 125 712 c 128,-1,12
 151 808 151 808 204.5 881 c 128,-1,13
 258 954 258 954 341 997.5 c 128,-1,14
 424 1041 424 1041 538 1041 c 0,15,16
 646 1041 646 1041 724 1003 c 128,-1,17
 802 965 802 965 852.5 900.5 c 128,-1,18
 903 836 903 836 927 749.5 c 128,-1,19
 951 663 951 663 951 566 c 2,20,-1
 951 483 l 1,21,-1
 285 483 l 1,22,23
 286 414 286 414 300.5 349.5 c 128,-1,24
 315 285 315 285 347 235.5 c 128,-1,25
 379 186 379 186 431 156.5 c 128,-1,26
 483 127 483 127 560 127 c 0,27,28
 652 127 652 127 726.5 150 c 128,-1,29
 801 173 801 173 868 215 c 1,30,-1
 925 83 l 1,0,1
534 895 m 0,31,32
 486 895 486 895 444.5 880.5 c 128,-1,33
 403 866 403 866 371.5 835.5 c 128,-1,34
 340 805 340 805 319.5 758.5 c 128,-1,35
 299 712 299 712 292 648 c 0,36,37
 291 643 291 643 291 634 c 128,-1,38
 291 625 291 625 291 615 c 1,39,-1
 755 615 l 1,40,41
 753 670 753 670 742 721 c 128,-1,42
 731 772 731 772 706 810.5 c 128,-1,43
 681 849 681 849 639 872 c 128,-1,44
 597 895 597 895 534 895 c 0,31,32
EndSplineSet
EndChar

StartChar: f
Encoding: 102 102 76
Width: 686
Flags: W
LayerCount: 2
Fore
SplineSet
649 875 m 1,0,-1
 420 875 l 1,1,-1
 420 0 l 1,2,-1
 231 0 l 1,3,-1
 231 875 l 1,4,-1
 43 875 l 1,5,-1
 43 1006 l 1,6,-1
 232 1023 l 1,7,-1
 232 1062 l 2,8,9
 232 1149 232 1149 246 1214.5 c 128,-1,10
 260 1280 260 1280 294.5 1324 c 128,-1,11
 329 1368 329 1368 387.5 1390 c 128,-1,12
 446 1412 446 1412 535 1412 c 0,13,14
 577 1412 577 1412 622.5 1404.5 c 128,-1,15
 668 1397 668 1397 709 1386 c 1,16,-1
 685 1234 l 1,17,18
 654 1240 654 1240 622 1244.5 c 128,-1,19
 590 1249 590 1249 561 1249 c 0,20,21
 515 1249 515 1249 487.5 1238.5 c 128,-1,22
 460 1228 460 1228 445 1208 c 128,-1,23
 430 1188 430 1188 425 1157 c 128,-1,24
 420 1126 420 1126 420 1086 c 2,25,-1
 420 1024 l 1,26,-1
 649 1024 l 1,27,-1
 649 875 l 1,0,-1
EndSplineSet
EndChar

StartChar: g
Encoding: 103 103 77
Width: 1166
Flags: W
LayerCount: 2
Fore
SplineSet
962 689 m 0,0,1
 962 594 962 594 926.5 527.5 c 128,-1,2
 891 461 891 461 832.5 418.5 c 128,-1,3
 774 376 774 376 698.5 356.5 c 128,-1,4
 623 337 623 337 544 337 c 0,5,6
 444 337 444 337 359 362 c 1,7,8
 331 331 331 331 316 301.5 c 128,-1,9
 301 272 301 272 301 256 c 0,10,11
 301 241 301 241 303 229.5 c 128,-1,12
 305 218 305 218 314 210 c 128,-1,13
 323 202 323 202 340.5 197.5 c 128,-1,14
 358 193 358 193 389 193 c 2,15,-1
 536 193 l 2,16,17
 595 193 595 193 658 190 c 128,-1,18
 721 187 721 187 780.5 178 c 128,-1,19
 840 169 840 169 893 152 c 128,-1,20
 946 135 946 135 986 107.5 c 128,-1,21
 1026 80 1026 80 1049 40 c 128,-1,22
 1072 0 1072 0 1072 -55 c 0,23,24
 1072 -154 1072 -154 1039.5 -224 c 128,-1,25
 1007 -294 1007 -294 942.5 -343.5 c 128,-1,26
 878 -393 878 -393 782.5 -420 c 128,-1,27
 687 -447 687 -447 561 -453 c 1,28,29
 463 -453 463 -453 380 -433.5 c 128,-1,30
 297 -414 297 -414 236.5 -379.5 c 128,-1,31
 176 -345 176 -345 142 -305 c 128,-1,32
 108 -265 108 -265 108 -208 c 0,33,34
 108 -160 108 -160 143 -86 c 128,-1,35
 178 -12 178 -12 257 49 c 1,36,-1
 254 65 l 1,37,38
 238 66 238 66 216.5 73 c 128,-1,39
 195 80 195 80 176 95.5 c 128,-1,40
 157 111 157 111 143.5 136 c 128,-1,41
 130 161 130 161 130 197 c 0,42,43
 130 304 130 304 263 436 c 1,44,45
 189 481 189 481 153.5 544.5 c 128,-1,46
 118 608 118 608 118 677 c 0,47,48
 118 743 118 743 144.5 808.5 c 128,-1,49
 171 874 171 874 224.5 926 c 128,-1,50
 278 978 278 978 357.5 1010 c 128,-1,51
 437 1042 437 1042 543 1042 c 0,52,53
 635 1042 635 1042 704 1016 c 128,-1,54
 773 990 773 990 828 945 c 1,55,56
 852 961 852 961 881 977.5 c 128,-1,57
 910 994 910 994 943.5 1008 c 128,-1,58
 977 1022 977 1022 1014 1031 c 128,-1,59
 1051 1040 1051 1040 1091 1041 c 1,60,-1
 1121 836 l 1,61,62
 1105 837 1105 837 1092 839 c 0,63,64
 1080 840 1080 840 1068.5 841 c 128,-1,65
 1057 842 1057 842 1051 842 c 0,66,67
 1022 842 1022 842 987 836.5 c 128,-1,68
 952 831 952 831 921 822 c 1,69,70
 948 787 948 787 955 754 c 128,-1,71
 962 721 962 721 962 689 c 0,0,1
565 -299 m 0,72,73
 635 -299 635 -299 695 -283.5 c 128,-1,74
 755 -268 755 -268 799 -241 c 128,-1,75
 843 -214 843 -214 867.5 -171 c 128,-1,76
 892 -128 892 -128 892 -53 c 0,77,78
 892 -7 892 -7 810 16.5 c 128,-1,79
 728 40 728 40 570 40 c 0,80,81
 523 40 523 40 475.5 40 c 128,-1,82
 428 40 428 40 379 41 c 1,83,84
 334 -9 334 -9 312.5 -80.5 c 128,-1,85
 291 -152 291 -152 291 -197 c 0,86,87
 291 -248 291 -248 363 -273.5 c 128,-1,88
 435 -299 435 -299 565 -299 c 0,72,73
291 684 m 0,89,90
 291 638 291 638 306 599.5 c 128,-1,91
 321 561 321 561 352 533.5 c 128,-1,92
 383 506 383 506 430 490.5 c 128,-1,93
 477 475 477 475 542 475 c 0,94,95
 618 475 618 475 668 494 c 128,-1,96
 718 513 718 513 746.5 544 c 128,-1,97
 775 575 775 575 786.5 615 c 128,-1,98
 798 655 798 655 798 696 c 0,99,100
 798 735 798 735 785.5 772.5 c 128,-1,101
 773 810 773 810 744 840 c 128,-1,102
 715 870 715 870 667 888 c 128,-1,103
 619 906 619 906 548 906 c 0,104,105
 499 906 499 906 453 894.5 c 128,-1,106
 407 883 407 883 371 856.5 c 128,-1,107
 335 830 335 830 313 787.5 c 128,-1,108
 291 745 291 745 291 684 c 0,89,90
EndSplineSet
EndChar

StartChar: h
Encoding: 104 104 78
Width: 1149
Flags: W
LayerCount: 2
Fore
SplineSet
159 0 m 1,0,-1
 159 1412 l 1,1,-1
 348 1412 l 1,2,-1
 348 1088 l 1,3,-1
 350 895 l 1,4,5
 413 964 413 964 491 1002.5 c 128,-1,6
 569 1041 569 1041 652 1041 c 0,7,8
 831 1041 831 1041 916.5 938.5 c 128,-1,9
 1002 836 1002 836 1002 649 c 2,10,-1
 1002 0 l 1,11,-1
 816 0 l 1,12,-1
 816 639 l 2,13,14
 816 684 816 684 808 729.5 c 128,-1,15
 800 775 800 775 777 811.5 c 128,-1,16
 754 848 754 848 713.5 871.5 c 128,-1,17
 673 895 673 895 608 895 c 0,18,19
 563 895 563 895 528 885 c 128,-1,20
 493 875 493 875 467 858.5 c 128,-1,21
 441 842 441 842 422.5 822 c 128,-1,22
 404 802 404 802 392 783 c 0,23,24
 366 740 366 740 357 676.5 c 128,-1,25
 348 613 348 613 348 547 c 2,26,-1
 348 0 l 1,27,-1
 159 0 l 1,0,-1
EndSplineSet
EndChar

StartChar: i
Encoding: 105 105 79
Width: 552
Flags: W
LayerCount: 2
Fore
SplineSet
393 0 m 1,0,-1
 207 0 l 1,1,-1
 207 875 l 1,2,-1
 55 875 l 1,3,-1
 55 1024 l 1,4,-1
 393 1024 l 1,5,-1
 393 0 l 1,0,-1
411 1377 m 1,6,-1
 411 1205 l 1,7,-1
 189 1205 l 1,8,-1
 189 1377 l 1,9,-1
 411 1377 l 1,6,-1
EndSplineSet
EndChar

StartChar: j
Encoding: 106 106 80
Width: 558
Flags: W
LayerCount: 2
Fore
SplineSet
125 -446 m 0,0,1
 89 -446 89 -446 58 -440.5 c 128,-1,2
 27 -435 27 -435 -3 -424 c 1,3,-1
 -3 -272 l 1,4,5
 24 -280 24 -280 46.5 -285 c 128,-1,6
 69 -290 69 -290 92 -290 c 0,7,8
 121 -290 121 -290 143 -283 c 128,-1,9
 165 -276 165 -276 180 -258 c 128,-1,10
 195 -240 195 -240 202.5 -209.5 c 128,-1,11
 210 -179 210 -179 210 -132 c 2,12,-1
 210 875 l 1,13,-1
 59 875 l 1,14,-1
 59 1024 l 1,15,-1
 399 1024 l 1,16,-1
 399 -129 l 2,17,18
 399 -194 399 -194 385 -251.5 c 128,-1,19
 371 -309 371 -309 339 -352 c 128,-1,20
 307 -395 307 -395 254.5 -420.5 c 128,-1,21
 202 -446 202 -446 125 -446 c 0,0,1
420 1377 m 1,22,-1
 420 1205 l 1,23,-1
 199 1205 l 1,24,-1
 199 1377 l 1,25,-1
 420 1377 l 1,22,-1
EndSplineSet
EndChar

StartChar: k
Encoding: 107 107 81
Width: 1041
Flags: W
LayerCount: 2
Fore
SplineSet
998 0 m 1,0,-1
 787 0 l 1,1,-1
 511 460 l 1,2,-1
 348 460 l 1,3,-1
 348 0 l 1,4,-1
 158 0 l 1,5,-1
 158 1412 l 1,6,-1
 348 1412 l 1,7,-1
 348 615 l 1,8,-1
 442 615 l 2,9,10
 462 615 462 615 484 615.5 c 128,-1,11
 506 616 506 616 528 616 c 1,12,13
 569 650 569 650 604 690.5 c 128,-1,14
 639 731 639 731 669 779.5 c 128,-1,15
 699 828 699 828 724.5 886 c 128,-1,16
 750 944 750 944 773 1024 c 1,17,-1
 969 1024 l 1,18,19
 951 945 951 945 920.5 874.5 c 128,-1,20
 890 804 890 804 850.5 739 c 128,-1,21
 811 674 811 674 764 618 c 128,-1,22
 717 562 717 562 666 523 c 1,23,-1
 998 0 l 1,0,-1
EndSplineSet
EndChar

StartChar: l
Encoding: 108 108 82
Width: 538
Flags: W
LayerCount: 2
Fore
SplineSet
180 1263 m 1,0,-1
 28 1263 l 1,1,-1
 28 1412 l 1,2,-1
 369 1412 l 1,3,-1
 369 0 l 1,4,-1
 180 0 l 1,5,-1
 180 1263 l 1,0,-1
EndSplineSet
EndChar

StartChar: m
Encoding: 109 109 83
Width: 1817
Flags: W
LayerCount: 2
Fore
SplineSet
203 0 m 1,0,-1
 203 875 l 1,1,-1
 51 875 l 1,2,-1
 51 1024 l 1,3,-1
 378 1024 l 1,4,-1
 388 873 l 1,5,6
 424 919 424 919 462 951 c 128,-1,7
 500 983 500 983 538.5 1003.5 c 128,-1,8
 577 1024 577 1024 614 1033 c 128,-1,9
 651 1042 651 1042 684 1042 c 0,10,11
 747 1042 747 1042 796 1029 c 128,-1,12
 845 1016 845 1016 882.5 992.5 c 128,-1,13
 920 969 920 969 948 936.5 c 128,-1,14
 976 904 976 904 997 865 c 1,15,16
 1019 899 1019 899 1050.5 931 c 128,-1,17
 1082 963 1082 963 1122 987.5 c 128,-1,18
 1162 1012 1162 1012 1211.5 1027 c 128,-1,19
 1261 1042 1261 1042 1320 1042 c 0,20,21
 1387 1042 1387 1042 1450 1024 c 128,-1,22
 1513 1006 1513 1006 1561.5 963.5 c 128,-1,23
 1610 921 1610 921 1639.5 850 c 128,-1,24
 1669 779 1669 779 1669 673 c 2,25,-1
 1669 0 l 1,26,-1
 1483 0 l 1,27,-1
 1483 663 l 2,28,29
 1483 784 1483 784 1432.5 839.5 c 128,-1,30
 1382 895 1382 895 1279 895 c 0,31,32
 1240 895 1240 895 1208 887 c 128,-1,33
 1176 879 1176 879 1151 866 c 128,-1,34
 1126 853 1126 853 1108 836.5 c 128,-1,35
 1090 820 1090 820 1079 804 c 0,36,37
 1064 782 1064 782 1054.5 753.5 c 128,-1,38
 1045 725 1045 725 1040 694.5 c 128,-1,39
 1035 664 1035 664 1033 633.5 c 128,-1,40
 1031 603 1031 603 1031 576 c 2,41,-1
 1031 0 l 1,42,-1
 844 0 l 1,43,-1
 844 673 l 2,44,45
 844 776 844 776 794 835.5 c 128,-1,46
 744 895 744 895 644 895 c 0,47,48
 603 895 603 895 570 885.5 c 128,-1,49
 537 876 537 876 511.5 861.5 c 128,-1,50
 486 847 486 847 468 829.5 c 128,-1,51
 450 812 450 812 439 796 c 0,52,53
 410 752 410 752 401 691.5 c 128,-1,54
 392 631 392 631 392 564 c 2,55,-1
 392 0 l 1,56,-1
 203 0 l 1,0,-1
EndSplineSet
EndChar

StartChar: n
Encoding: 110 110 84
Width: 1196
Flags: W
LayerCount: 2
Fore
SplineSet
862 0 m 1,0,-1
 862 660 l 2,1,2
 862 773 862 773 806.5 834 c 128,-1,3
 751 895 751 895 650 895 c 0,4,5
 529 895 529 895 460.5 811.5 c 128,-1,6
 392 728 392 728 392 568 c 2,7,-1
 392 0 l 1,8,-1
 203 0 l 1,9,-1
 203 875 l 1,10,-1
 51 875 l 1,11,-1
 51 1024 l 1,12,-1
 378 1024 l 1,13,-1
 388 874 l 1,14,15
 418 915 418 915 449 946.5 c 128,-1,16
 480 978 480 978 517 999 c 128,-1,17
 554 1020 554 1020 598 1031 c 128,-1,18
 642 1042 642 1042 696 1042 c 0,19,20
 751 1042 751 1042 812.5 1025.5 c 128,-1,21
 874 1009 874 1009 926.5 967.5 c 128,-1,22
 979 926 979 926 1013.5 856 c 128,-1,23
 1048 786 1048 786 1048 678 c 2,24,-1
 1048 0 l 1,25,-1
 862 0 l 1,0,-1
EndSplineSet
EndChar

StartChar: o
Encoding: 111 111 85
Width: 1129
Flags: W
LayerCount: 2
Fore
SplineSet
1031 512 m 0,0,1
 1031 395 1031 395 1000.5 297.5 c 128,-1,2
 970 200 970 200 910.5 129.5 c 128,-1,3
 851 59 851 59 763 20 c 128,-1,4
 675 -19 675 -19 560 -19 c 0,5,6
 451 -19 451 -19 365 19 c 128,-1,7
 279 57 279 57 220 126 c 128,-1,8
 161 195 161 195 129.5 291 c 128,-1,9
 98 387 98 387 98 503 c 0,10,11
 98 613 98 613 125 710.5 c 128,-1,12
 152 808 152 808 209.5 881.5 c 128,-1,13
 267 955 267 955 357 998 c 128,-1,14
 447 1041 447 1041 572 1041 c 0,15,16
 695 1041 695 1041 782 996.5 c 128,-1,17
 869 952 869 952 924.5 878 c 128,-1,18
 980 804 980 804 1005.5 708.5 c 128,-1,19
 1031 613 1031 613 1031 512 c 0,0,1
284 504 m 0,20,21
 284 421 284 421 300 352 c 128,-1,22
 316 283 316 283 349.5 233 c 128,-1,23
 383 183 383 183 436 155 c 128,-1,24
 489 127 489 127 564 127 c 0,25,26
 624 127 624 127 675.5 148.5 c 128,-1,27
 727 170 727 170 764.5 216.5 c 128,-1,28
 802 263 802 263 823 335 c 128,-1,29
 844 407 844 407 844 508 c 0,30,31
 844 695 844 695 774 795 c 128,-1,32
 704 895 704 895 570 895 c 0,33,34
 514 895 514 895 462.5 873.5 c 128,-1,35
 411 852 411 852 371 804.5 c 128,-1,36
 331 757 331 757 307.5 683 c 128,-1,37
 284 609 284 609 284 504 c 0,20,21
EndSplineSet
EndChar

StartChar: p
Encoding: 112 112 86
Width: 1159
Flags: W
LayerCount: 2
Fore
SplineSet
159 -416 m 1,0,-1
 159 719 l 2,1,2
 159 764 159 764 158 815.5 c 128,-1,3
 157 867 157 867 156 912 c 0,4,5
 154 964 154 964 153 1024 c 1,6,-1
 330 1024 l 1,7,-1
 343 871 l 1,8,9
 376 920 376 920 415 953 c 128,-1,10
 454 986 454 986 495.5 1006 c 128,-1,11
 537 1026 537 1026 578 1034 c 128,-1,12
 619 1042 619 1042 657 1042 c 0,13,14
 738 1042 738 1042 811 1009 c 128,-1,15
 884 976 884 976 939 910 c 128,-1,16
 994 844 994 844 1026.5 744 c 128,-1,17
 1059 644 1059 644 1059 510 c 256,18,19
 1059 376 1059 376 1025.5 277 c 128,-1,20
 992 178 992 178 934 112.5 c 128,-1,21
 876 47 876 47 799.5 14.5 c 128,-1,22
 723 -18 723 -18 638 -18 c 0,23,24
 544 -18 544 -18 470.5 18.5 c 128,-1,25
 397 55 397 55 341 112 c 1,26,-1
 346 -75 l 1,27,-1
 346 -416 l 1,28,-1
 159 -416 l 1,0,-1
611 127 m 0,29,30
 694 127 694 127 746 163 c 128,-1,31
 798 199 798 199 827 255 c 128,-1,32
 856 311 856 311 866.5 380.5 c 128,-1,33
 877 450 877 450 877 516 c 0,34,35
 877 595 877 595 864 664.5 c 128,-1,36
 851 734 851 734 821 785 c 128,-1,37
 791 836 791 836 742 865.5 c 128,-1,38
 693 895 693 895 621 895 c 0,39,40
 566 895 566 895 516 874 c 128,-1,41
 466 853 466 853 428.5 821 c 128,-1,42
 391 789 391 789 368.5 750.5 c 128,-1,43
 346 712 346 712 346 676 c 2,44,-1
 346 364 l 2,45,46
 346 324 346 324 362 282 c 128,-1,47
 378 240 378 240 411 205.5 c 128,-1,48
 444 171 444 171 493.5 149 c 128,-1,49
 543 127 543 127 611 127 c 0,29,30
EndSplineSet
EndChar

StartChar: q
Encoding: 113 113 87
Width: 1156
Flags: W
LayerCount: 2
Fore
SplineSet
499 1041 m 0,0,1
 555 1041 555 1041 602 1026 c 128,-1,2
 649 1011 649 1011 688 986.5 c 128,-1,3
 727 962 727 962 758.5 931.5 c 128,-1,4
 790 901 790 901 816 870 c 1,5,-1
 829 1025 l 1,6,-1
 1002 1025 l 1,7,8
 1002 1020 1002 1020 1001.5 998.5 c 128,-1,9
 1001 977 1001 977 1000.5 955 c 128,-1,10
 1000 933 1000 933 999.5 908.5 c 128,-1,11
 999 884 999 884 998.5 862 c 128,-1,12
 998 840 998 840 997.5 824 c 128,-1,13
 997 808 997 808 997 804 c 2,14,-1
 997 -416 l 1,15,-1
 811 -416 l 1,16,-1
 811 -75 l 2,17,18
 811 -51 811 -51 811.5 -24 c 128,-1,19
 812 3 812 3 813 29.5 c 128,-1,20
 814 56 814 56 815 78.5 c 128,-1,21
 816 101 816 101 817 115 c 1,22,23
 747 44 747 44 667.5 12.5 c 128,-1,24
 588 -19 588 -19 518 -19 c 0,25,26
 430 -19 430 -19 354 13.5 c 128,-1,27
 278 46 278 46 221.5 112 c 128,-1,28
 165 178 165 178 133 277.5 c 128,-1,29
 101 377 101 377 101 511 c 0,30,31
 101 647 101 647 132.5 747 c 128,-1,32
 164 847 164 847 218 912 c 128,-1,33
 272 977 272 977 344.5 1009 c 128,-1,34
 417 1041 417 1041 499 1041 c 0,0,1
815 477 m 0,35,36
 815 516 815 516 812.5 562.5 c 128,-1,37
 810 609 810 609 801 655.5 c 128,-1,38
 792 702 792 702 774 745 c 128,-1,39
 756 788 756 788 725.5 821.5 c 128,-1,40
 695 855 695 855 649.5 875 c 128,-1,41
 604 895 604 895 539 895 c 0,42,43
 485 895 485 895 445.5 878 c 128,-1,44
 406 861 406 861 378 831.5 c 128,-1,45
 350 802 350 802 332 764 c 128,-1,46
 314 726 314 726 304 683.5 c 128,-1,47
 294 641 294 641 290.5 598 c 128,-1,48
 287 555 287 555 287 516 c 0,49,50
 287 472 287 472 291.5 426.5 c 128,-1,51
 296 381 296 381 307 338 c 128,-1,52
 318 295 318 295 337 256.5 c 128,-1,53
 356 218 356 218 385.5 189 c 128,-1,54
 415 160 415 160 456 143.5 c 128,-1,55
 497 127 497 127 552 127 c 0,56,57
 628 127 628 127 678.5 153.5 c 128,-1,58
 729 180 729 180 759.5 226.5 c 128,-1,59
 790 273 790 273 802.5 337 c 128,-1,60
 815 401 815 401 815 477 c 0,35,36
EndSplineSet
EndChar

StartChar: r
Encoding: 114 114 88
Width: 749
Flags: W
LayerCount: 2
Fore
SplineSet
159 761 m 2,0,1
 159 774 159 774 158.5 807 c 128,-1,2
 158 840 158 840 157.5 879 c 128,-1,3
 157 918 157 918 155.5 960.5 c 128,-1,4
 154 1003 154 1003 153 1025 c 1,5,-1
 328 1025 l 1,6,-1
 337 847 l 1,7,8
 370 900 370 900 409 937 c 128,-1,9
 448 974 448 974 487.5 997 c 128,-1,10
 527 1020 527 1020 565 1030.5 c 128,-1,11
 603 1041 603 1041 635 1041 c 0,12,13
 655 1041 655 1041 678.5 1039.5 c 128,-1,14
 702 1038 702 1038 723 1035 c 1,15,-1
 711 851 l 1,16,17
 684 856 684 856 660 859 c 128,-1,18
 636 862 636 862 611 862 c 0,19,20
 541 862 541 862 491 838.5 c 128,-1,21
 441 815 441 815 409.5 773 c 128,-1,22
 378 731 378 731 363 673 c 128,-1,23
 348 615 348 615 348 545 c 2,24,-1
 348 0 l 1,25,-1
 159 0 l 1,26,-1
 159 761 l 2,0,1
EndSplineSet
EndChar

StartChar: s
Encoding: 115 115 89
Width: 922
Flags: W
LayerCount: 2
Fore
SplineSet
141 221 m 1,0,1
 171 198 171 198 207 180.5 c 128,-1,2
 243 163 243 163 282 151 c 128,-1,3
 321 139 321 139 361.5 133 c 128,-1,4
 402 127 402 127 440 127 c 0,5,6
 481 127 481 127 518 136 c 128,-1,7
 555 145 555 145 582.5 164 c 128,-1,8
 610 183 610 183 626.5 211.5 c 128,-1,9
 643 240 643 240 643 278 c 0,10,11
 643 305 643 305 633 326.5 c 128,-1,12
 623 348 623 348 598.5 368 c 128,-1,13
 574 388 574 388 531.5 407.5 c 128,-1,14
 489 427 489 427 425 451 c 0,15,16
 354 477 354 477 295.5 503 c 128,-1,17
 237 529 237 529 195.5 562.5 c 128,-1,18
 154 596 154 596 131 642.5 c 128,-1,19
 108 689 108 689 108 756 c 0,20,21
 108 828 108 828 138 882 c 128,-1,22
 168 936 168 936 218.5 971 c 128,-1,23
 269 1006 269 1006 335 1023.5 c 128,-1,24
 401 1041 401 1041 472 1041 c 0,25,26
 562 1041 562 1041 652.5 1014 c 128,-1,27
 743 987 743 987 818 933 c 1,28,-1
 757 805 l 1,29,30
 724 826 724 826 688 842.5 c 128,-1,31
 652 859 652 859 615 870.5 c 128,-1,32
 578 882 578 882 542.5 888.5 c 128,-1,33
 507 895 507 895 476 895 c 0,34,35
 437 895 437 895 402.5 887 c 128,-1,36
 368 879 368 879 342.5 863.5 c 128,-1,37
 317 848 317 848 302 824.5 c 128,-1,38
 287 801 287 801 287 771 c 0,39,40
 287 743 287 743 301 720 c 128,-1,41
 315 697 315 697 341.5 677.5 c 128,-1,42
 368 658 368 658 406.5 640 c 128,-1,43
 445 622 445 622 494 605 c 0,44,45
 585 572 585 572 649 540 c 128,-1,46
 713 508 713 508 753 472 c 128,-1,47
 793 436 793 436 811 392.5 c 128,-1,48
 829 349 829 349 829 292 c 0,49,50
 829 212 829 212 794.5 153 c 128,-1,51
 760 94 760 94 704 56 c 128,-1,52
 648 18 648 18 576 -0.5 c 128,-1,53
 504 -19 504 -19 428 -19 c 0,54,55
 332 -19 332 -19 247.5 6.5 c 128,-1,56
 163 32 163 32 82 86 c 1,57,-1
 141 221 l 1,0,1
EndSplineSet
EndChar

StartChar: t
Encoding: 116 116 90
Width: 700
Flags: W
LayerCount: 2
Fore
SplineSet
519 127 m 0,0,1
 547 127 547 127 580.5 131 c 128,-1,2
 614 135 614 135 637 140 c 1,3,-1
 637 2 l 1,4,5
 606 -6 606 -6 561.5 -12.5 c 128,-1,6
 517 -19 517 -19 472 -19 c 0,7,8
 411 -19 411 -19 361.5 -6.5 c 128,-1,9
 312 6 312 6 277.5 37 c 128,-1,10
 243 68 243 68 224.5 120.5 c 128,-1,11
 206 173 206 173 206 252 c 2,12,-1
 206 876 l 1,13,-1
 49 876 l 1,14,-1
 49 1025 l 1,15,-1
 211 1025 l 1,16,-1
 244 1269 l 1,17,-1
 395 1302 l 1,18,-1
 395 1025 l 1,19,-1
 633 1025 l 1,20,-1
 633 876 l 1,21,-1
 395 876 l 1,22,-1
 395 274 l 2,23,24
 395 245 395 245 399.5 218 c 128,-1,25
 404 191 404 191 417.5 171 c 128,-1,26
 431 151 431 151 455 139 c 128,-1,27
 479 127 479 127 519 127 c 0,0,1
EndSplineSet
EndChar

StartChar: u
Encoding: 117 117 91
Width: 1147
Flags: W
LayerCount: 2
Fore
SplineSet
846 0 m 1,0,1
 842 17 842 17 838 42 c 0,2,3
 835 63 835 63 831.5 94.5 c 128,-1,4
 828 126 828 126 825 168 c 1,5,6
 787 77 787 77 706.5 29 c 128,-1,7
 626 -19 626 -19 523 -19 c 0,8,9
 334 -19 334 -19 241 80.5 c 128,-1,10
 148 180 148 180 148 367 c 2,11,-1
 148 1024 l 1,12,-1
 334 1024 l 1,13,-1
 334 366 l 2,14,15
 334 317 334 317 343.5 273.5 c 128,-1,16
 353 230 353 230 376 197.5 c 128,-1,17
 399 165 399 165 437 146 c 128,-1,18
 475 127 475 127 533 127 c 0,19,20
 612 127 612 127 663.5 153 c 128,-1,21
 715 179 715 179 745.5 224.5 c 128,-1,22
 776 270 776 270 788 332 c 128,-1,23
 800 394 800 394 800 466 c 2,24,-1
 800 1024 l 1,25,-1
 986 1024 l 1,26,-1
 986 376 l 2,27,28
 986 282 986 282 988.5 212.5 c 128,-1,29
 991 143 991 143 994 95 c 0,30,31
 998 40 998 40 1003 0 c 1,32,-1
 846 0 l 1,0,1
EndSplineSet
EndChar

StartChar: v
Encoding: 118 118 92
Width: 1028
Flags: W
LayerCount: 2
Fore
SplineSet
405 0 m 1,0,-1
 17 1024 l 1,1,-1
 220 1024 l 1,2,-1
 393 540 l 1,3,-1
 516 181 l 1,4,-1
 638 539 l 1,5,-1
 809 1024 l 1,6,-1
 1014 1024 l 1,7,-1
 612 0 l 1,8,-1
 405 0 l 1,0,-1
EndSplineSet
EndChar

StartChar: w
Encoding: 119 119 93
Width: 1597
Flags: W
LayerCount: 2
Fore
SplineSet
903 1015 m 1,0,-1
 1049 535 l 1,1,-1
 1139 183 l 1,2,-1
 1156 183 l 1,3,-1
 1234 550 l 1,4,-1
 1233 550 l 1,5,-1
 1355 1024 l 1,6,-1
 1558 1024 l 1,7,-1
 1257 0 l 1,8,-1
 1041 0 l 1,9,-1
 897 488 l 1,10,-1
 799 828 l 1,11,-1
 701 488 l 1,12,-1
 557 0 l 1,13,-1
 340 0 l 1,14,-1
 39 1024 l 1,15,-1
 242 1024 l 1,16,-1
 364 550 l 1,17,-1
 363 550 l 1,18,-1
 441 183 l 1,19,-1
 458 183 l 1,20,-1
 548 535 l 1,21,-1
 694 1015 l 1,22,-1
 903 1015 l 1,0,-1
EndSplineSet
EndChar

StartChar: x
Encoding: 120 120 94
Width: 1051
Flags: W
LayerCount: 2
Fore
SplineSet
408 528 m 1,0,-1
 55 1024 l 1,1,-1
 284 1024 l 1,2,-1
 533 645 l 1,3,-1
 785 1024 l 1,4,-1
 1003 1024 l 1,5,-1
 641 522 l 1,6,-1
 1010 0 l 1,7,-1
 781 0 l 1,8,-1
 516 397 l 1,9,-1
 250 0 l 1,10,-1
 36 0 l 1,11,-1
 408 528 l 1,0,-1
EndSplineSet
EndChar

StartChar: y
Encoding: 121 121 95
Width: 1025
Flags: W
LayerCount: 2
Fore
SplineSet
573 -88 m 2,0,1
 555 -135 555 -135 531 -187 c 128,-1,2
 507 -239 507 -239 474 -282.5 c 128,-1,3
 441 -326 441 -326 398 -354.5 c 128,-1,4
 355 -383 355 -383 299 -383 c 0,5,6
 279 -383 279 -383 256 -379 c 128,-1,7
 233 -375 233 -375 202 -366 c 1,8,-1
 202 -227 l 1,9,10
 225 -235 225 -235 241 -238 c 128,-1,11
 257 -241 257 -241 268 -241 c 0,12,13
 298 -241 298 -241 319 -223 c 128,-1,14
 340 -205 340 -205 356 -175 c 128,-1,15
 372 -145 372 -145 384.5 -107 c 128,-1,16
 397 -69 397 -69 408 -30 c 2,17,-1
 418 5 l 1,18,-1
 14 1024 l 1,19,-1
 220 1024 l 1,20,-1
 396 540 l 1,21,-1
 516 196 l 1,22,-1
 637 540 l 1,23,-1
 809 1024 l 1,24,-1
 1011 1024 l 1,25,-1
 573 -88 l 2,0,1
EndSplineSet
EndChar

StartChar: z
Encoding: 122 122 96
Width: 885
Flags: W
LayerCount: 2
Fore
SplineSet
791 0 m 1,0,-1
 85 0 l 1,1,-1
 85 166 l 1,2,-1
 574 875 l 1,3,-1
 114 875 l 1,4,-1
 114 1024 l 1,5,-1
 784 1024 l 1,6,-1
 784 870 l 1,7,-1
 286 149 l 1,8,-1
 791 149 l 1,9,-1
 791 0 l 1,0,-1
EndSplineSet
EndChar

StartChar: braceleft
Encoding: 123 123 97
Width: 717
Flags: W
LayerCount: 2
Fore
SplineSet
646 -273 m 1,0,1
 530 -268 530 -268 457.5 -236.5 c 128,-1,2
 385 -205 385 -205 344.5 -153.5 c 128,-1,3
 304 -102 304 -102 289 -34.5 c 128,-1,4
 274 33 274 33 274 110 c 2,5,-1
 274 284 l 2,6,7
 274 349 274 349 256 391.5 c 128,-1,8
 238 434 238 434 205 460 c 128,-1,9
 172 486 172 486 125.5 498.5 c 128,-1,10
 79 511 79 511 22 516 c 1,11,-1
 22 649 l 1,12,13
 104 656 104 656 153.5 675.5 c 128,-1,14
 203 695 203 695 230 725 c 128,-1,15
 257 755 257 755 265.5 794.5 c 128,-1,16
 274 834 274 834 274 882 c 2,17,-1
 274 1063 l 2,18,19
 274 1144 274 1144 290.5 1210.5 c 128,-1,20
 307 1277 307 1277 349 1326 c 128,-1,21
 391 1375 391 1375 462.5 1403.5 c 128,-1,22
 534 1432 534 1432 645 1437 c 1,23,-1
 653 1306 l 1,24,25
 589 1298 589 1298 549 1279.5 c 128,-1,26
 509 1261 509 1261 486.5 1232 c 128,-1,27
 464 1203 464 1203 456 1163 c 128,-1,28
 448 1123 448 1123 448 1072 c 2,29,-1
 448 897 l 2,30,31
 448 848 448 848 440 800.5 c 128,-1,32
 432 753 432 753 409 711.5 c 128,-1,33
 386 670 386 670 345 636.5 c 128,-1,34
 304 603 304 603 238 582 c 1,35,36
 304 561 304 561 345.5 527 c 128,-1,37
 387 493 387 493 409.5 451.5 c 128,-1,38
 432 410 432 410 440 363 c 128,-1,39
 448 316 448 316 448 269 c 2,40,-1
 448 156 l 2,41,42
 448 95 448 95 451 43.5 c 128,-1,43
 454 -8 454 -8 473 -46.5 c 128,-1,44
 492 -85 492 -85 534 -109 c 128,-1,45
 576 -133 576 -133 653 -139 c 1,46,-1
 646 -273 l 1,0,1
EndSplineSet
EndChar

StartChar: bar
Encoding: 124 124 98
Width: 497
Flags: W
LayerCount: 2
Fore
SplineSet
167 1477 m 1,0,-1
 330 1477 l 1,1,-1
 330 -477 l 1,2,-1
 167 -477 l 1,3,-1
 167 1477 l 1,0,-1
EndSplineSet
EndChar

StartChar: braceright
Encoding: 125 125 99
Width: 717
Flags: W
LayerCount: 2
Fore
SplineSet
64 -139 m 1,0,1
 141 -133 141 -133 183 -109 c 128,-1,2
 225 -85 225 -85 244 -46.5 c 128,-1,3
 263 -8 263 -8 266 43.5 c 128,-1,4
 269 95 269 95 269 156 c 2,5,-1
 269 269 l 2,6,7
 269 316 269 316 277 363 c 128,-1,8
 285 410 285 410 307.5 451.5 c 128,-1,9
 330 493 330 493 371.5 527 c 128,-1,10
 413 561 413 561 479 582 c 1,11,12
 413 603 413 603 372 636.5 c 128,-1,13
 331 670 331 670 308 711.5 c 128,-1,14
 285 753 285 753 277 800.5 c 128,-1,15
 269 848 269 848 269 897 c 2,16,-1
 269 1072 l 2,17,18
 269 1123 269 1123 261 1163 c 128,-1,19
 253 1203 253 1203 230.5 1232 c 128,-1,20
 208 1261 208 1261 168 1279.5 c 128,-1,21
 128 1298 128 1298 64 1306 c 1,22,-1
 72 1437 l 1,23,24
 183 1432 183 1432 254.5 1403.5 c 128,-1,25
 326 1375 326 1375 368 1326 c 128,-1,26
 410 1277 410 1277 426.5 1210.5 c 128,-1,27
 443 1144 443 1144 443 1063 c 2,28,-1
 443 882 l 2,29,30
 443 834 443 834 451.5 794.5 c 128,-1,31
 460 755 460 755 487 725 c 128,-1,32
 514 695 514 695 563.5 675.5 c 128,-1,33
 613 656 613 656 695 649 c 1,34,-1
 695 516 l 1,35,36
 638 511 638 511 591.5 498.5 c 128,-1,37
 545 486 545 486 512 460 c 128,-1,38
 479 434 479 434 461 391.5 c 128,-1,39
 443 349 443 349 443 284 c 2,40,-1
 443 110 l 2,41,42
 443 33 443 33 428 -34.5 c 128,-1,43
 413 -102 413 -102 372.5 -153.5 c 128,-1,44
 332 -205 332 -205 259 -236.5 c 128,-1,45
 186 -268 186 -268 71 -273 c 1,46,-1
 64 -139 l 1,0,1
EndSplineSet
EndChar

StartChar: asciitilde
Encoding: 126 126 100
Width: 1208
Flags: W
LayerCount: 2
Fore
SplineSet
120 514 m 1,0,1
 156 614 156 614 220.5 671 c 128,-1,2
 285 728 285 728 379 728 c 0,3,4
 403 728 403 728 440 718.5 c 128,-1,5
 477 709 477 709 520.5 695 c 128,-1,6
 564 681 564 681 611 665 c 128,-1,7
 658 649 658 649 702.5 635 c 128,-1,8
 747 621 747 621 786 611.5 c 128,-1,9
 825 602 825 602 852 602 c 0,10,11
 896 602 896 602 943.5 633.5 c 128,-1,12
 991 665 991 665 1025 734 c 1,13,-1
 1089 656 l 1,14,15
 1071 589 1071 589 1041.5 547.5 c 128,-1,16
 1012 506 1012 506 977.5 482.5 c 128,-1,17
 943 459 943 459 906 451 c 128,-1,18
 869 443 869 443 837 443 c 0,19,20
 798 443 798 443 753 452.5 c 128,-1,21
 708 462 708 462 661.5 475.5 c 128,-1,22
 615 489 615 489 569 505.5 c 128,-1,23
 523 522 523 522 483 535.5 c 128,-1,24
 443 549 443 549 411 558.5 c 128,-1,25
 379 568 379 568 359 568 c 0,26,27
 317 568 317 568 268 534 c 128,-1,28
 219 500 219 500 184 434 c 1,29,-1
 120 514 l 1,0,1
EndSplineSet
EndChar

StartChar: exclamdown
Encoding: 161 161 102
Width: 531
Flags: W
LayerCount: 2
Fore
SplineSet
322 1055 m 1,0,-1
 210 1055 l 1,1,-1
 162 0 l 1,2,-1
 370 0 l 1,3,-1
 322 1055 l 1,0,-1
162 1394 m 1,4,-1
 370 1394 l 1,5,-1
 370 1183 l 1,6,-1
 162 1183 l 1,7,-1
 162 1394 l 1,4,-1
EndSplineSet
EndChar

StartChar: cent
Encoding: 162 162 103
Width: 953
Flags: W
LayerCount: 2
Fore
SplineSet
664 1307 m 1,0,-1
 782 1307 l 1,1,-1
 703 1039 l 1,2,-1
 740 1018 l 2,3,4
 775 998 775 998 804 974 c 128,-1,5
 833 950 833 950 856 929 c 1,6,-1
 767 808 l 1,7,8
 755 817 755 817 745 825 c 128,-1,9
 735 833 735 833 723 841 c 128,-1,10
 711 849 711 849 694.5 857.5 c 128,-1,11
 678 866 678 866 654 876 c 1,12,-1
 443 158 l 1,13,14
 470 149 470 149 496 145 c 128,-1,15
 522 141 522 141 550 141 c 0,16,17
 588 141 588 141 622.5 149.5 c 128,-1,18
 657 158 657 158 687.5 172 c 128,-1,19
 718 186 718 186 744.5 204 c 128,-1,20
 771 222 771 222 794 240 c 1,21,-1
 843 112 l 1,22,23
 799 54 799 54 728.5 16.5 c 128,-1,24
 658 -21 658 -21 550 -21 c 0,25,26
 515 -21 515 -21 476.5 -15.5 c 128,-1,27
 438 -10 438 -10 396 0 c 1,28,-1
 330 -228 l 1,29,-1
 213 -228 l 1,30,-1
 293 48 l 1,31,32
 250 77 250 77 213.5 119.5 c 128,-1,33
 177 162 177 162 150.5 219 c 128,-1,34
 124 276 124 276 109 349 c 128,-1,35
 94 422 94 422 94 513 c 0,36,37
 94 664 94 664 131.5 768.5 c 128,-1,38
 169 873 169 873 233 937.5 c 128,-1,39
 297 1002 297 1002 381 1030.5 c 128,-1,40
 465 1059 465 1059 557 1059 c 0,41,42
 562 1059 562 1059 569 1059 c 128,-1,43
 576 1059 576 1059 590 1057 c 1,44,-1
 664 1307 l 1,0,-1
286 519 m 0,45,46
 286 440 286 440 301 368 c 128,-1,47
 316 296 316 296 347 233 c 1,48,-1
 543 898 l 1,49,50
 469 890 469 890 420 858.5 c 128,-1,51
 371 827 371 827 341 777.5 c 128,-1,52
 311 728 311 728 298.5 662 c 128,-1,53
 286 596 286 596 286 519 c 0,45,46
EndSplineSet
EndChar

StartChar: sterling
Encoding: 163 163 104
Width: 1163
Flags: W
LayerCount: 2
Fore
SplineSet
112 141 m 1,0,-1
 224 156 l 1,1,2
 231 160 231 160 237 177.5 c 128,-1,3
 243 195 243 195 248 219.5 c 128,-1,4
 253 244 253 244 257 273 c 128,-1,5
 261 302 261 302 263.5 329 c 128,-1,6
 266 356 266 356 267.5 379.5 c 128,-1,7
 269 403 269 403 269 416 c 2,8,-1
 269 648 l 1,9,-1
 106 648 l 1,10,-1
 106 793 l 1,11,-1
 271 793 l 1,12,13
 270 811 270 811 270 829 c 1,14,15
 269 843 269 843 269 858.5 c 128,-1,16
 269 874 269 874 269 883 c 0,17,18
 269 940 269 940 272.5 1001.5 c 128,-1,19
 276 1063 276 1063 289.5 1122 c 128,-1,20
 303 1181 303 1181 329.5 1233.5 c 128,-1,21
 356 1286 356 1286 402 1325.5 c 128,-1,22
 448 1365 448 1365 516.5 1388.5 c 128,-1,23
 585 1412 585 1412 682 1412 c 0,24,25
 740 1412 740 1412 795 1400.5 c 128,-1,26
 850 1389 850 1389 899 1363.5 c 128,-1,27
 948 1338 948 1338 989.5 1297 c 128,-1,28
 1031 1256 1031 1256 1063 1196 c 1,29,-1
 919 1130 l 1,30,31
 890 1191 890 1191 831 1227 c 128,-1,32
 772 1263 772 1263 688 1263 c 0,33,34
 617 1263 617 1263 573 1239 c 128,-1,35
 529 1215 529 1215 504.5 1173.5 c 128,-1,36
 480 1132 480 1132 471.5 1076.5 c 128,-1,37
 463 1021 463 1021 463 957 c 2,38,-1
 463 793 l 1,39,-1
 774 793 l 1,40,-1
 774 648 l 1,41,-1
 463 648 l 1,42,-1
 463 416 l 2,43,44
 463 394 463 394 459 361 c 128,-1,45
 455 328 455 328 448 291.5 c 128,-1,46
 441 255 441 255 431 219 c 128,-1,47
 421 183 421 183 410 156 c 1,48,-1
 1063 156 l 1,49,-1
 1063 0 l 1,50,-1
 112 0 l 1,51,-1
 112 141 l 1,0,-1
EndSplineSet
EndChar

StartChar: currency
Encoding: 164 164 105
Width: 1466
Flags: W
LayerCount: 2
Fore
SplineSet
150 866 m 256,0,1
 150 966 150 966 182 1058 c 128,-1,2
 214 1150 214 1150 272 1227 c 1,3,-1
 175 1325 l 1,4,-1
 279 1428 l 1,5,-1
 376 1330 l 1,6,7
 454 1387 454 1387 544 1419.5 c 128,-1,8
 634 1452 634 1452 734 1452 c 0,9,10
 831 1452 831 1452 921 1420 c 128,-1,11
 1011 1388 1011 1388 1089 1331 c 1,12,-1
 1186 1428 l 1,13,-1
 1290 1325 l 1,14,-1
 1193 1227 l 1,15,16
 1253 1151 1253 1151 1285 1059.5 c 128,-1,17
 1317 968 1317 968 1317 866 c 0,18,19
 1317 766 1317 766 1285.5 676.5 c 128,-1,20
 1254 587 1254 587 1196 511 c 1,21,22
 1218 488 1218 488 1243 463.5 c 128,-1,23
 1268 439 1268 439 1290 417 c 1,24,-1
 1186 313 l 1,25,-1
 1094 405 l 1,26,27
 1016 346 1016 346 924.5 313.5 c 128,-1,28
 833 281 833 281 734 281 c 0,29,30
 634 281 634 281 542 313.5 c 128,-1,31
 450 346 450 346 372 406 c 1,32,-1
 279 313 l 1,33,-1
 175 417 l 1,34,-1
 270 512 l 1,35,36
 213 587 213 587 181.5 676.5 c 128,-1,37
 150 766 150 766 150 866 c 256,0,1
734 420 m 256,38,39
 839 420 839 420 917 458.5 c 128,-1,40
 995 497 995 497 1047.5 559.5 c 128,-1,41
 1100 622 1100 622 1126 702 c 128,-1,42
 1152 782 1152 782 1152 866 c 256,43,44
 1152 950 1152 950 1126 1030 c 128,-1,45
 1100 1110 1100 1110 1047.5 1172.5 c 128,-1,46
 995 1235 995 1235 916.5 1273.5 c 128,-1,47
 838 1312 838 1312 734 1312 c 0,48,49
 629 1312 629 1312 551 1273.5 c 128,-1,50
 473 1235 473 1235 420.5 1172.5 c 128,-1,51
 368 1110 368 1110 342 1030 c 128,-1,52
 316 950 316 950 316 866 c 256,53,54
 316 782 316 782 342 702 c 128,-1,55
 368 622 368 622 420.5 559.5 c 128,-1,56
 473 497 473 497 551 458.5 c 128,-1,57
 629 420 629 420 734 420 c 256,38,39
EndSplineSet
EndChar

StartChar: yen
Encoding: 165 165 106
Width: 1202
Flags: W
LayerCount: 2
Fore
SplineSet
504 0 m 1,0,-1
 504 286 l 1,1,-1
 179 286 l 1,2,-1
 179 424 l 1,3,-1
 504 424 l 1,4,-1
 504 536 l 1,5,-1
 179 536 l 1,6,-1
 179 675 l 1,7,-1
 439 675 l 1,8,9
 348 854 348 854 252.5 1041 c 128,-1,10
 157 1228 157 1228 65 1408 c 1,11,-1
 292 1408 l 1,12,-1
 605 722 l 1,13,-1
 923 1408 l 1,14,-1
 1137 1408 l 1,15,-1
 763 675 l 1,16,-1
 1020 675 l 1,17,-1
 1020 536 l 1,18,-1
 696 536 l 1,19,-1
 696 424 l 1,20,-1
 1020 424 l 1,21,-1
 1020 286 l 1,22,-1
 696 286 l 1,23,-1
 696 0 l 1,24,-1
 504 0 l 1,0,-1
EndSplineSet
EndChar

StartChar: brokenbar
Encoding: 166 166 107
Width: 517
Flags: W
LayerCount: 2
Fore
SplineSet
177 1477 m 1,0,-1
 340 1477 l 1,1,-1
 340 754 l 1,2,-1
 177 754 l 1,3,-1
 177 1477 l 1,0,-1
177 300 m 1,4,-1
 340 300 l 1,5,-1
 340 -477 l 1,6,-1
 177 -477 l 1,7,-1
 177 300 l 1,4,-1
EndSplineSet
EndChar

StartChar: section
Encoding: 167 167 108
Width: 955
Flags: W
LayerCount: 2
Fore
SplineSet
423 -27 m 0,0,1
 344 -27 344 -27 277 -13.5 c 128,-1,2
 210 0 210 0 146 26 c 1,3,-1
 146 201 l 1,4,5
 171 189 171 189 204 176 c 128,-1,6
 237 163 237 163 273.5 152.5 c 128,-1,7
 310 142 310 142 350 135 c 128,-1,8
 390 128 390 128 431 128 c 0,9,10
 496 128 496 128 536.5 142.5 c 128,-1,11
 577 157 577 157 599 178 c 128,-1,12
 621 199 621 199 628.5 222 c 128,-1,13
 636 245 636 245 636 261 c 0,14,15
 636 294 636 294 614 320 c 128,-1,16
 592 346 592 346 556.5 367 c 128,-1,17
 521 388 521 388 476 406.5 c 128,-1,18
 431 425 431 425 385 444 c 0,19,20
 352 457 352 457 308.5 477 c 128,-1,21
 265 497 265 497 227 528.5 c 128,-1,22
 189 560 189 560 162.5 606 c 128,-1,23
 136 652 136 652 136 717 c 0,24,25
 136 766 136 766 152 805 c 128,-1,26
 168 844 168 844 193 874.5 c 128,-1,27
 218 905 218 905 248.5 927.5 c 128,-1,28
 279 950 279 950 308 966 c 1,29,30
 237 1001 237 1001 195 1055.5 c 128,-1,31
 153 1110 153 1110 153 1188 c 0,32,33
 153 1252 153 1252 179 1302 c 128,-1,34
 205 1352 205 1352 252 1386.5 c 128,-1,35
 299 1421 299 1421 365 1439 c 128,-1,36
 431 1457 431 1457 512 1457 c 0,37,38
 636 1457 636 1457 786 1406 c 1,39,-1
 758 1249 l 1,40,41
 695 1275 695 1275 635.5 1292 c 128,-1,42
 576 1309 576 1309 518 1309 c 0,43,44
 486 1309 486 1309 454.5 1304.5 c 128,-1,45
 423 1300 423 1300 397.5 1287.5 c 128,-1,46
 372 1275 372 1275 356 1253 c 128,-1,47
 340 1231 340 1231 340 1196 c 0,48,49
 340 1169 340 1169 351 1149 c 128,-1,50
 362 1129 362 1129 387 1111.5 c 128,-1,51
 412 1094 412 1094 452 1076.5 c 128,-1,52
 492 1059 492 1059 549 1037 c 0,53,54
 593 1020 593 1020 640.5 999 c 128,-1,55
 688 978 688 978 728 946.5 c 128,-1,56
 768 915 768 915 793.5 869 c 128,-1,57
 819 823 819 823 819 756 c 0,58,59
 819 662 819 662 777.5 601 c 128,-1,60
 736 540 736 540 661 502 c 1,61,62
 692 487 692 487 722 467 c 128,-1,63
 752 447 752 447 775.5 419.5 c 128,-1,64
 799 392 799 392 813.5 355.5 c 128,-1,65
 828 319 828 319 828 271 c 0,66,67
 828 204 828 204 800.5 149 c 128,-1,68
 773 94 773 94 721.5 55 c 128,-1,69
 670 16 670 16 594.5 -5.5 c 128,-1,70
 519 -27 519 -27 423 -27 c 0,0,1
305 746 m 0,71,72
 305 712 305 712 321.5 684 c 128,-1,73
 338 656 338 656 367 633.5 c 128,-1,74
 396 611 396 611 435 593 c 128,-1,75
 474 575 474 575 519 561 c 1,76,77
 537 570 537 570 560.5 584 c 128,-1,78
 584 598 584 598 604 618.5 c 128,-1,79
 624 639 624 639 638 665.5 c 128,-1,80
 652 692 652 692 652 726 c 256,81,82
 652 760 652 760 638.5 785.5 c 128,-1,83
 625 811 625 811 599 832 c 128,-1,84
 573 853 573 853 533.5 871 c 128,-1,85
 494 889 494 889 443 907 c 1,86,87
 419 898 419 898 394.5 883.5 c 128,-1,88
 370 869 370 869 350 849 c 128,-1,89
 330 829 330 829 317.5 803 c 128,-1,90
 305 777 305 777 305 746 c 0,71,72
EndSplineSet
EndChar

StartChar: dieresis
Encoding: 168 168 109
Width: 816
Flags: W
LayerCount: 2
Fore
SplineSet
327 1377 m 1,0,-1
 327 1205 l 1,1,-1
 105 1205 l 1,2,-1
 105 1377 l 1,3,-1
 327 1377 l 1,0,-1
705 1377 m 1,4,-1
 705 1205 l 1,5,-1
 483 1205 l 1,6,-1
 483 1377 l 1,7,-1
 705 1377 l 1,4,-1
EndSplineSet
EndChar

StartChar: copyright
Encoding: 169 169 110
Width: 1647
Flags: W
LayerCount: 2
Fore
SplineSet
840 1023 m 0,0,1
 777 1023 777 1023 734.5 995 c 128,-1,2
 692 967 692 967 666.5 921.5 c 128,-1,3
 641 876 641 876 630 818.5 c 128,-1,4
 619 761 619 761 619 702 c 0,5,6
 619 639 619 639 629.5 582.5 c 128,-1,7
 640 526 640 526 665.5 483.5 c 128,-1,8
 691 441 691 441 734 416.5 c 128,-1,9
 777 392 777 392 842 392 c 0,10,11
 908 392 908 392 948 416.5 c 128,-1,12
 988 441 988 441 1020 486 c 1,13,-1
 1092 424 l 1,14,15
 1076 384 1076 384 1049.5 354.5 c 128,-1,16
 1023 325 1023 325 989 305.5 c 128,-1,17
 955 286 955 286 914.5 276.5 c 128,-1,18
 874 267 874 267 831 267 c 0,19,20
 731 267 731 267 663.5 305.5 c 128,-1,21
 596 344 596 344 554.5 406 c 128,-1,22
 513 468 513 468 495 546 c 128,-1,23
 477 624 477 624 477 703 c 256,24,25
 477 782 477 782 496 861 c 128,-1,26
 515 940 515 940 558.5 1003.5 c 128,-1,27
 602 1067 602 1067 672 1106.5 c 128,-1,28
 742 1146 742 1146 843 1146 c 0,29,30
 879 1146 879 1146 918 1138.5 c 128,-1,31
 957 1131 957 1131 993 1112 c 128,-1,32
 1029 1093 1029 1093 1059.5 1060.5 c 128,-1,33
 1090 1028 1090 1028 1108 979 c 1,34,-1
 1012 920 l 1,35,36
 997 955 997 955 978.5 975 c 128,-1,37
 960 995 960 995 938.5 1005.5 c 128,-1,38
 917 1016 917 1016 892.5 1019.5 c 128,-1,39
 868 1023 868 1023 840 1023 c 0,0,1
93 705 m 0,40,41
 93 805 93 805 119 898.5 c 128,-1,42
 145 992 145 992 192 1073.5 c 128,-1,43
 239 1155 239 1155 305.5 1222 c 128,-1,44
 372 1289 372 1289 453.5 1336.5 c 128,-1,45
 535 1384 535 1384 628.5 1410.5 c 128,-1,46
 722 1437 722 1437 824 1437 c 0,47,48
 924 1437 924 1437 1017.5 1411 c 128,-1,49
 1111 1385 1111 1385 1192 1337 c 128,-1,50
 1273 1289 1273 1289 1339.5 1222.5 c 128,-1,51
 1406 1156 1406 1156 1454 1074.5 c 128,-1,52
 1502 993 1502 993 1528 899.5 c 128,-1,53
 1554 806 1554 806 1554 705 c 256,54,55
 1554 604 1554 604 1528 510.5 c 128,-1,56
 1502 417 1502 417 1454 335.5 c 128,-1,57
 1406 254 1406 254 1339.5 187 c 128,-1,58
 1273 120 1273 120 1192 72.5 c 128,-1,59
 1111 25 1111 25 1017.5 -1 c 128,-1,60
 924 -27 924 -27 824 -27 c 0,61,62
 722 -27 722 -27 628.5 -1 c 128,-1,63
 535 25 535 25 453.5 73 c 128,-1,64
 372 121 372 121 305.5 188 c 128,-1,65
 239 255 239 255 192 336 c 128,-1,66
 145 417 145 417 119 510.5 c 128,-1,67
 93 604 93 604 93 705 c 0,40,41
197 705 m 0,68,69
 197 576 197 576 246 463 c 128,-1,70
 295 350 295 350 380 265 c 128,-1,71
 465 180 465 180 579.5 131 c 128,-1,72
 694 82 694 82 824 82 c 256,73,74
 954 82 954 82 1068 131 c 128,-1,75
 1182 180 1182 180 1266.5 265 c 128,-1,76
 1351 350 1351 350 1399.5 463 c 128,-1,77
 1448 576 1448 576 1448 705 c 0,78,79
 1448 791 1448 791 1426 870.5 c 128,-1,80
 1404 950 1404 950 1363.5 1019.5 c 128,-1,81
 1323 1089 1323 1089 1266 1146 c 128,-1,82
 1209 1203 1209 1203 1139.5 1243.5 c 128,-1,83
 1070 1284 1070 1284 990 1306.5 c 128,-1,84
 910 1329 910 1329 824 1329 c 0,85,86
 737 1329 737 1329 657 1306.5 c 128,-1,87
 577 1284 577 1284 507.5 1243.5 c 128,-1,88
 438 1203 438 1203 380.5 1146 c 128,-1,89
 323 1089 323 1089 282.5 1019.5 c 128,-1,90
 242 950 242 950 219.5 870.5 c 128,-1,91
 197 791 197 791 197 705 c 0,68,69
EndSplineSet
EndChar

StartChar: ordfeminine
Encoding: 170 170 111
Width: 770
Flags: W
LayerCount: 2
Fore
SplineSet
317 782 m 0,0,1
 274 782 274 782 236 794.5 c 128,-1,2
 198 807 198 807 169.5 831 c 128,-1,3
 141 855 141 855 124.5 890.5 c 128,-1,4
 108 926 108 926 108 973 c 0,5,6
 108 1031 108 1031 132 1071.5 c 128,-1,7
 156 1112 156 1112 197 1138 c 128,-1,8
 238 1164 238 1164 293 1176 c 128,-1,9
 348 1188 348 1188 410 1188 c 2,10,-1
 499 1188 l 1,11,-1
 499 1225 l 1,12,13
 498 1253 498 1253 489 1273.5 c 128,-1,14
 480 1294 480 1294 465.5 1306.5 c 128,-1,15
 451 1319 451 1319 432 1325 c 128,-1,16
 413 1331 413 1331 391 1331 c 0,17,18
 347 1331 347 1331 300 1316.5 c 128,-1,19
 253 1302 253 1302 216 1278 c 1,20,-1
 168 1357 l 1,21,22
 190 1375 190 1375 218.5 1389.5 c 128,-1,23
 247 1404 247 1404 279 1413.5 c 128,-1,24
 311 1423 311 1423 345 1428 c 128,-1,25
 379 1433 379 1433 411 1433 c 0,26,27
 454 1433 454 1433 492.5 1419.5 c 128,-1,28
 531 1406 531 1406 560 1378.5 c 128,-1,29
 589 1351 589 1351 606.5 1308 c 128,-1,30
 624 1265 624 1265 624 1205 c 2,31,-1
 624 966 l 2,32,33
 624 930 624 930 624.5 900 c 128,-1,34
 625 870 625 870 626 847 c 0,35,36
 627 821 627 821 629 800 c 1,37,-1
 519 800 l 1,38,39
 518 811 518 811 515 823 c 0,40,41
 513 833 513 833 510 845.5 c 128,-1,42
 507 858 507 858 505 871 c 1,43,44
 489 854 489 854 470 838 c 128,-1,45
 451 822 451 822 428 809.5 c 128,-1,46
 405 797 405 797 377.5 789.5 c 128,-1,47
 350 782 350 782 317 782 c 0,0,1
345 891 m 0,48,49
 395 891 395 891 425.5 909.5 c 128,-1,50
 456 928 456 928 472.5 957 c 128,-1,51
 489 986 489 986 494 1021.5 c 128,-1,52
 499 1057 499 1057 499 1091 c 1,53,54
 492 1091 492 1091 482.5 1091.5 c 128,-1,55
 473 1092 473 1092 463 1092 c 128,-1,56
 453 1092 453 1092 444 1092 c 128,-1,57
 435 1092 435 1092 431 1092 c 0,58,59
 391 1092 391 1092 356 1086 c 128,-1,60
 321 1080 321 1080 295 1067 c 128,-1,61
 269 1054 269 1054 254 1032.5 c 128,-1,62
 239 1011 239 1011 239 980 c 0,63,64
 239 963 239 963 244.5 947 c 128,-1,65
 250 931 250 931 262.5 918.5 c 128,-1,66
 275 906 275 906 295.5 898.5 c 128,-1,67
 316 891 316 891 345 891 c 0,48,49
EndSplineSet
EndChar

StartChar: guillemotleft
Encoding: 171 171 112
Width: 989
Flags: W
LayerCount: 2
Fore
SplineSet
476 495 m 1,0,-1
 476 513 l 1,1,-1
 730 900 l 1,2,-1
 876 863 l 1,3,-1
 670 503 l 1,4,-1
 877 141 l 1,5,-1
 730 108 l 1,6,-1
 476 495 l 1,0,-1
95 495 m 1,7,-1
 95 514 l 1,8,-1
 347 900 l 1,9,-1
 493 863 l 1,10,-1
 285 503 l 1,11,-1
 494 141 l 1,12,-1
 347 107 l 1,13,-1
 95 495 l 1,7,-1
EndSplineSet
EndChar

StartChar: logicalnot
Encoding: 172 172 113
Width: 1256
Flags: W
LayerCount: 2
Fore
SplineSet
1087 771 m 1,0,-1
 1087 230 l 1,1,-1
 928 230 l 1,2,-1
 928 612 l 1,3,-1
 139 612 l 1,4,-1
 139 771 l 1,5,-1
 1087 771 l 1,0,-1
EndSplineSet
EndChar

StartChar: registered
Encoding: 174 174 114
Width: 1644
Flags: W
LayerCount: 2
Fore
SplineSet
553 296 m 1,0,-1
 553 1124 l 1,1,-1
 813 1124 l 2,2,3
 862 1124 862 1124 914 1115 c 128,-1,4
 966 1106 966 1106 1008.5 1081 c 128,-1,5
 1051 1056 1051 1056 1078 1011 c 128,-1,6
 1105 966 1105 966 1105 894 c 0,7,8
 1105 870 1105 870 1098 842.5 c 128,-1,9
 1091 815 1091 815 1075 787 c 128,-1,10
 1059 759 1059 759 1033 733.5 c 128,-1,11
 1007 708 1007 708 970 689 c 1,12,13
 1006 679 1006 679 1029.5 655.5 c 128,-1,14
 1053 632 1053 632 1068.5 600 c 128,-1,15
 1084 568 1084 568 1094 530 c 128,-1,16
 1104 492 1104 492 1112 451.5 c 128,-1,17
 1120 411 1120 411 1129 371 c 128,-1,18
 1138 331 1138 331 1152 296 c 1,19,-1
 1009 296 l 1,20,21
 984 393 984 393 971 459 c 128,-1,22
 958 525 958 525 941.5 565.5 c 128,-1,23
 925 606 925 606 896.5 623.5 c 128,-1,24
 868 641 868 641 811 641 c 2,25,-1
 693 641 l 1,26,-1
 693 296 l 1,27,-1
 553 296 l 1,0,-1
693 1001 m 1,28,-1
 693 763 l 1,29,-1
 811 763 l 2,30,31
 840 763 840 763 867.5 767.5 c 128,-1,32
 895 772 895 772 916.5 785.5 c 128,-1,33
 938 799 938 799 951 822 c 128,-1,34
 964 845 964 845 964 883 c 256,35,36
 964 921 964 921 951 944.5 c 128,-1,37
 938 968 938 968 917 980.5 c 128,-1,38
 896 993 896 993 868 997 c 128,-1,39
 840 1001 840 1001 810 1001 c 2,40,-1
 693 1001 l 1,28,-1
196 706 m 0,41,42
 196 575 196 575 245.5 461.5 c 128,-1,43
 295 348 295 348 380 263 c 128,-1,44
 465 178 465 178 578.5 129.5 c 128,-1,45
 692 81 692 81 821 81 c 0,46,47
 951 81 951 81 1064.5 130 c 128,-1,48
 1178 179 1178 179 1262.5 263.5 c 128,-1,49
 1347 348 1347 348 1395.5 462 c 128,-1,50
 1444 576 1444 576 1444 706 c 0,51,52
 1444 833 1444 833 1396 946.5 c 128,-1,53
 1348 1060 1348 1060 1264 1145 c 128,-1,54
 1180 1230 1180 1230 1066 1279.5 c 128,-1,55
 952 1329 952 1329 821 1329 c 0,56,57
 692 1329 692 1329 578.5 1280 c 128,-1,58
 465 1231 465 1231 380 1146 c 128,-1,59
 295 1061 295 1061 245.5 948 c 128,-1,60
 196 835 196 835 196 706 c 0,41,42
92 706 m 256,61,62
 92 808 92 808 118.5 902 c 128,-1,63
 145 996 145 996 193 1077 c 128,-1,64
 241 1158 241 1158 308 1224.5 c 128,-1,65
 375 1291 375 1291 456 1338 c 128,-1,66
 537 1385 537 1385 629.5 1411 c 128,-1,67
 722 1437 722 1437 821 1437 c 0,68,69
 921 1437 921 1437 1014.5 1411 c 128,-1,70
 1108 1385 1108 1385 1189 1337.5 c 128,-1,71
 1270 1290 1270 1290 1336.5 1223.5 c 128,-1,72
 1403 1157 1403 1157 1450.5 1076 c 128,-1,73
 1498 995 1498 995 1524 901 c 128,-1,74
 1550 807 1550 807 1550 706 c 0,75,76
 1550 604 1550 604 1524 510.5 c 128,-1,77
 1498 417 1498 417 1450 335.5 c 128,-1,78
 1402 254 1402 254 1335.5 187 c 128,-1,79
 1269 120 1269 120 1188 72.5 c 128,-1,80
 1107 25 1107 25 1014 -1 c 128,-1,81
 921 -27 921 -27 821 -27 c 256,82,83
 721 -27 721 -27 628.5 -1 c 128,-1,84
 536 25 536 25 455 72.5 c 128,-1,85
 374 120 374 120 307 187 c 128,-1,86
 240 254 240 254 192.5 335.5 c 128,-1,87
 145 417 145 417 118.5 510.5 c 128,-1,88
 92 604 92 604 92 706 c 256,61,62
EndSplineSet
EndChar

StartChar: macron
Encoding: 175 175 115
Width: 546
Flags: W
LayerCount: 2
Fore
SplineSet
-3 1363 m 1,0,-1
 540 1363 l 1,1,-1
 540 1246 l 1,2,-1
 -3 1246 l 1,3,-1
 -3 1363 l 1,0,-1
EndSplineSet
EndChar

StartChar: degree
Encoding: 176 176 116
Width: 808
Flags: W
LayerCount: 2
Fore
SplineSet
98 1092 m 0,0,1
 98 1156 98 1156 122 1212 c 128,-1,2
 146 1268 146 1268 188 1310 c 128,-1,3
 230 1352 230 1352 285.5 1376 c 128,-1,4
 341 1400 341 1400 404 1400 c 256,5,6
 467 1400 467 1400 522.5 1376 c 128,-1,7
 578 1352 578 1352 620 1310 c 128,-1,8
 662 1268 662 1268 686 1212 c 128,-1,9
 710 1156 710 1156 710 1092 c 0,10,11
 710 1029 710 1029 686 973 c 128,-1,12
 662 917 662 917 620.5 875.5 c 128,-1,13
 579 834 579 834 523 809.5 c 128,-1,14
 467 785 467 785 404 785 c 256,15,16
 341 785 341 785 285.5 809 c 128,-1,17
 230 833 230 833 188 875 c 128,-1,18
 146 917 146 917 122 973 c 128,-1,19
 98 1029 98 1029 98 1092 c 0,0,1
234 1092 m 0,20,21
 234 1057 234 1057 247.5 1027 c 128,-1,22
 261 997 261 997 284 974 c 128,-1,23
 307 951 307 951 338 938 c 128,-1,24
 369 925 369 925 404 925 c 0,25,26
 440 925 440 925 471 938.5 c 128,-1,27
 502 952 502 952 525 974.5 c 128,-1,28
 548 997 548 997 561 1027.5 c 128,-1,29
 574 1058 574 1058 574 1092 c 0,30,31
 574 1127 574 1127 560.5 1157.5 c 128,-1,32
 547 1188 547 1188 524 1211 c 128,-1,33
 501 1234 501 1234 470 1247.5 c 128,-1,34
 439 1261 439 1261 404 1261 c 256,35,36
 369 1261 369 1261 338 1248 c 128,-1,37
 307 1235 307 1235 284 1212 c 128,-1,38
 261 1189 261 1189 247.5 1158.5 c 128,-1,39
 234 1128 234 1128 234 1092 c 0,20,21
EndSplineSet
EndChar

StartChar: plusminus
Encoding: 177 177 117
Width: 1214
Flags: W
LayerCount: 2
Fore
SplineSet
524 564 m 1,0,-1
 133 564 l 1,1,-1
 133 725 l 1,2,-1
 524 725 l 1,3,-1
 524 1070 l 1,4,-1
 688 1070 l 1,5,-1
 688 725 l 1,6,-1
 1081 725 l 1,7,-1
 1081 564 l 1,8,-1
 688 564 l 1,9,-1
 688 222 l 1,10,-1
 524 222 l 1,11,-1
 524 564 l 1,0,-1
133 -13 m 1,12,-1
 133 147 l 1,13,-1
 1081 147 l 1,14,-1
 1081 -13 l 1,15,-1
 133 -13 l 1,12,-1
EndSplineSet
EndChar

StartChar: twosuperior
Encoding: 178 178 118
Width: 925
Flags: W
LayerCount: 2
Fore
SplineSet
123 1159 m 1,0,1
 152 1224 152 1224 185 1270 c 128,-1,2
 218 1316 218 1316 257.5 1344.5 c 128,-1,3
 297 1373 297 1373 345.5 1386 c 128,-1,4
 394 1399 394 1399 454 1399 c 0,5,6
 521 1399 521 1399 581 1380.5 c 128,-1,7
 641 1362 641 1362 685.5 1323.5 c 128,-1,8
 730 1285 730 1285 756 1226.5 c 128,-1,9
 782 1168 782 1168 782 1089 c 0,10,11
 782 1042 782 1042 767 993.5 c 128,-1,12
 752 945 752 945 717.5 888 c 128,-1,13
 683 831 683 831 626.5 763.5 c 128,-1,14
 570 696 570 696 487 612 c 2,15,-1
 300 422 l 1,16,-1
 804 422 l 1,17,-1
 804 285 l 1,18,-1
 112 285 l 1,19,-1
 112 425 l 1,20,-1
 386 708 l 2,21,22
 437 761 437 761 481.5 811.5 c 128,-1,23
 526 862 526 862 558 910 c 128,-1,24
 590 958 590 958 608.5 1004 c 128,-1,25
 627 1050 627 1050 627 1093 c 0,26,27
 627 1123 627 1123 618.5 1153 c 128,-1,28
 610 1183 610 1183 590.5 1207.5 c 128,-1,29
 571 1232 571 1232 538 1247.5 c 128,-1,30
 505 1263 505 1263 457 1263 c 0,31,32
 408 1263 408 1263 375 1248 c 128,-1,33
 342 1233 342 1233 319.5 1210.5 c 128,-1,34
 297 1188 297 1188 282.5 1161 c 128,-1,35
 268 1134 268 1134 257 1109 c 1,36,-1
 123 1159 l 1,0,1
EndSplineSet
EndChar

StartChar: threesuperior
Encoding: 179 179 119
Width: 933
Flags: W
LayerCount: 2
Fore
SplineSet
86 482 m 1,0,-1
 203 546 l 1,1,2
 247 482 247 482 313.5 450 c 128,-1,3
 380 418 380 418 448 418 c 0,4,5
 488 418 488 418 525 430 c 128,-1,6
 562 442 562 442 590.5 466 c 128,-1,7
 619 490 619 490 635.5 526 c 128,-1,8
 652 562 652 562 652 610 c 0,9,10
 652 664 652 664 630 699.5 c 128,-1,11
 608 735 608 735 572 756.5 c 128,-1,12
 536 778 536 778 490 786.5 c 128,-1,13
 444 795 444 795 396 795 c 2,14,-1
 318 795 l 1,15,-1
 318 926 l 1,16,17
 326 925 326 925 335.5 924.5 c 128,-1,18
 345 924 345 924 354 924 c 0,19,20
 406 924 406 924 455.5 932 c 128,-1,21
 505 940 505 940 543 961 c 128,-1,22
 581 982 581 982 604.5 1018 c 128,-1,23
 628 1054 628 1054 628 1111 c 0,24,25
 628 1151 628 1151 613.5 1180.5 c 128,-1,26
 599 1210 599 1210 574.5 1229.5 c 128,-1,27
 550 1249 550 1249 518 1258.5 c 128,-1,28
 486 1268 486 1268 451 1268 c 0,29,30
 418 1268 418 1268 385 1259.5 c 128,-1,31
 352 1251 352 1251 322.5 1234.5 c 128,-1,32
 293 1218 293 1218 269 1193.5 c 128,-1,33
 245 1169 245 1169 230 1136 c 1,34,-1
 110 1181 l 1,35,36
 134 1236 134 1236 172 1277 c 128,-1,37
 210 1318 210 1318 257.5 1345 c 128,-1,38
 305 1372 305 1372 358 1385.5 c 128,-1,39
 411 1399 411 1399 464 1399 c 0,40,41
 526 1399 526 1399 583.5 1381 c 128,-1,42
 641 1363 641 1363 685.5 1327.5 c 128,-1,43
 730 1292 730 1292 757 1239.5 c 128,-1,44
 784 1187 784 1187 784 1117 c 0,45,46
 784 1081 784 1081 771.5 1044.5 c 128,-1,47
 759 1008 759 1008 735 975 c 128,-1,48
 711 942 711 942 677 913.5 c 128,-1,49
 643 885 643 885 600 863 c 1,50,51
 664 842 664 842 704 809.5 c 128,-1,52
 744 777 744 777 767 740.5 c 128,-1,53
 790 704 790 704 798.5 668.5 c 128,-1,54
 807 633 807 633 807 607 c 0,55,56
 807 535 807 535 777.5 477 c 128,-1,57
 748 419 748 419 698 378 c 128,-1,58
 648 337 648 337 583 314.5 c 128,-1,59
 518 292 518 292 447 292 c 0,60,61
 399 292 399 292 350 303 c 128,-1,62
 301 314 301 314 254.5 337 c 128,-1,63
 208 360 208 360 165 396 c 128,-1,64
 122 432 122 432 86 482 c 1,0,-1
EndSplineSet
EndChar

StartChar: acute
Encoding: 180 180 120
Width: 816
Flags: W
LayerCount: 2
Fore
SplineSet
249 1165 m 1,0,-1
 417 1474 l 1,1,-1
 636 1474 l 1,2,-1
 380 1165 l 1,3,-1
 249 1165 l 1,0,-1
EndSplineSet
EndChar

StartChar: mu
Encoding: 181 181 121
Width: 1137
Flags: W
LayerCount: 2
Fore
SplineSet
829 1019 m 1,0,-1
 1003 1019 l 1,1,-1
 1003 0 l 1,2,-1
 852 0 l 1,3,-1
 840 130 l 1,4,5
 817 100 817 100 788.5 73 c 128,-1,6
 760 46 760 46 725.5 25 c 128,-1,7
 691 4 691 4 650.5 -8.5 c 128,-1,8
 610 -21 610 -21 563 -21 c 0,9,10
 492 -21 492 -21 439.5 7.5 c 128,-1,11
 387 36 387 36 347 74 c 1,12,13
 347 9 347 9 348 -48 c 0,14,15
 348 -72 348 -72 348.5 -97.5 c 128,-1,16
 349 -123 349 -123 349.5 -145.5 c 128,-1,17
 350 -168 350 -168 350 -186.5 c 128,-1,18
 350 -205 350 -205 350 -216 c 2,19,-1
 350 -433 l 1,20,-1
 175 -433 l 1,21,-1
 175 1019 l 1,22,-1
 350 1019 l 1,23,-1
 350 449 l 2,24,25
 350 388 350 388 358 331 c 128,-1,26
 366 274 366 274 389.5 229.5 c 128,-1,27
 413 185 413 185 456 158.5 c 128,-1,28
 499 132 499 132 570 132 c 0,29,30
 630 132 630 132 678 153 c 128,-1,31
 726 174 726 174 759.5 219.5 c 128,-1,32
 793 265 793 265 811 337.5 c 128,-1,33
 829 410 829 410 829 513 c 2,34,-1
 829 1019 l 1,0,-1
EndSplineSet
EndChar

StartChar: paragraph
Encoding: 182 182 122
Width: 1222
Flags: W
LayerCount: 2
Fore
SplineSet
874 -290 m 1,0,-1
 874 1298 l 1,1,-1
 671 1298 l 1,2,-1
 671 -290 l 1,3,-1
 526 -290 l 1,4,-1
 526 518 l 1,5,6
 515 517 515 517 498 516.5 c 128,-1,7
 481 516 481 516 470 516 c 0,8,9
 372 516 372 516 296.5 550 c 128,-1,10
 221 584 221 584 170 644.5 c 128,-1,11
 119 705 119 705 92.5 788.5 c 128,-1,12
 66 872 66 872 66 971 c 0,13,14
 66 1074 66 1074 93 1162 c 128,-1,15
 120 1250 120 1250 177.5 1313.5 c 128,-1,16
 235 1377 235 1377 325 1413 c 128,-1,17
 415 1449 415 1449 541 1449 c 2,18,-1
 1075 1449 l 1,19,-1
 1075 1296 l 1,20,-1
 1020 1296 l 1,21,-1
 1020 -290 l 1,22,-1
 874 -290 l 1,0,-1
EndSplineSet
EndChar

StartChar: periodcentered
Encoding: 183 183 123
Width: 510
Flags: W
LayerCount: 2
Fore
SplineSet
143 697 m 1,0,-1
 367 697 l 1,1,-1
 367 448 l 1,2,-1
 143 448 l 1,3,-1
 143 697 l 1,0,-1
EndSplineSet
EndChar

StartChar: cedilla
Encoding: 184 184 124
Width: 481
Flags: W
LayerCount: 2
Fore
SplineSet
434 -248 m 0,0,1
 434 -274 434 -274 424 -307 c 128,-1,2
 414 -340 414 -340 386 -369 c 128,-1,3
 358 -398 358 -398 307 -418.5 c 128,-1,4
 256 -439 256 -439 175 -439 c 0,5,6
 130 -439 130 -439 96 -431 c 128,-1,7
 62 -423 62 -423 34 -412 c 1,8,-1
 60 -313 l 1,9,10
 80 -321 80 -321 108 -325.5 c 128,-1,11
 136 -330 136 -330 166 -330 c 0,12,13
 217 -330 217 -330 249.5 -311 c 128,-1,14
 282 -292 282 -292 282 -256 c 0,15,16
 282 -236 282 -236 271.5 -223 c 128,-1,17
 261 -210 261 -210 245.5 -202.5 c 128,-1,18
 230 -195 230 -195 211 -192 c 128,-1,19
 192 -189 192 -189 175 -189 c 0,20,21
 167 -189 167 -189 161 -189 c 128,-1,22
 155 -189 155 -189 149 -190 c 1,23,-1
 96 -163 l 1,24,-1
 208 18 l 1,25,-1
 319 18 l 1,26,-1
 248 -97 l 1,27,28
 345 -111 345 -111 389.5 -146.5 c 128,-1,29
 434 -182 434 -182 434 -248 c 0,0,1
EndSplineSet
EndChar

StartChar: onesuperior
Encoding: 185 185 125
Width: 632
Flags: W
LayerCount: 2
Fore
SplineSet
302 849 m 2,0,1
 302 856 302 856 302 875 c 128,-1,2
 302 894 302 894 302.5 919.5 c 128,-1,3
 303 945 303 945 303.5 975.5 c 128,-1,4
 304 1006 304 1006 304 1037 c 0,5,6
 305 1109 305 1109 306 1196 c 1,7,8
 255 1153 255 1153 198.5 1116 c 128,-1,9
 142 1079 142 1079 81 1044 c 1,10,-1
 44 1182 l 1,11,12
 61 1191 61 1191 85.5 1207 c 128,-1,13
 110 1223 110 1223 137 1242 c 128,-1,14
 164 1261 164 1261 192.5 1281.5 c 128,-1,15
 221 1302 221 1302 246 1320.5 c 128,-1,16
 271 1339 271 1339 291 1354 c 128,-1,17
 311 1369 311 1369 321 1377 c 1,18,-1
 452 1377 l 1,19,-1
 452 285 l 1,20,-1
 302 285 l 1,21,-1
 302 849 l 2,0,1
EndSplineSet
EndChar

StartChar: ordmasculine
Encoding: 186 186 126
Width: 753
Flags: W
LayerCount: 2
Fore
SplineSet
681 1110 m 0,0,1
 681 1036 681 1036 660 975 c 128,-1,2
 639 914 639 914 599.5 871 c 128,-1,3
 560 828 560 828 503.5 804.5 c 128,-1,4
 447 781 447 781 376 781 c 0,5,6
 301 781 301 781 244.5 806 c 128,-1,7
 188 831 188 831 150 874.5 c 128,-1,8
 112 918 112 918 92.5 978 c 128,-1,9
 73 1038 73 1038 73 1107 c 0,10,11
 73 1177 73 1177 92 1237 c 128,-1,12
 111 1297 111 1297 149 1340.5 c 128,-1,13
 187 1384 187 1384 244.5 1409 c 128,-1,14
 302 1434 302 1434 379 1434 c 0,15,16
 461 1434 461 1434 518.5 1406 c 128,-1,17
 576 1378 576 1378 612 1332.5 c 128,-1,18
 648 1287 648 1287 664.5 1229 c 128,-1,19
 681 1171 681 1171 681 1110 c 0,0,1
208 1111 m 0,20,21
 208 1066 208 1066 216.5 1026 c 128,-1,22
 225 986 225 986 244.5 955.5 c 128,-1,23
 264 925 264 925 296 907 c 128,-1,24
 328 889 328 889 376 889 c 0,25,26
 412 889 412 889 442.5 902 c 128,-1,27
 473 915 473 915 495.5 942.5 c 128,-1,28
 518 970 518 970 531 1012 c 128,-1,29
 544 1054 544 1054 544 1112 c 0,30,31
 544 1157 544 1157 536 1196.5 c 128,-1,32
 528 1236 528 1236 509.5 1265.5 c 128,-1,33
 491 1295 491 1295 459 1312 c 128,-1,34
 427 1329 427 1329 379 1329 c 0,35,36
 333 1329 333 1329 300.5 1312.5 c 128,-1,37
 268 1296 268 1296 247.5 1267 c 128,-1,38
 227 1238 227 1238 217.5 1198 c 128,-1,39
 208 1158 208 1158 208 1111 c 0,20,21
EndSplineSet
EndChar

StartChar: guillemotright
Encoding: 187 187 127
Width: 991
Flags: W
LayerCount: 2
Fore
SplineSet
322 502 m 1,0,-1
 114 863 l 1,1,-1
 260 900 l 1,2,-1
 514 511 l 1,3,-1
 514 492 l 1,4,-1
 260 107 l 1,5,-1
 116 141 l 1,6,-1
 322 502 l 1,0,-1
705 502 m 1,7,-1
 497 863 l 1,8,-1
 643 900 l 1,9,-1
 898 511 l 1,10,-1
 896 492 l 1,11,-1
 642 107 l 1,12,-1
 498 141 l 1,13,-1
 705 502 l 1,7,-1
EndSplineSet
EndChar

StartChar: AE
Encoding: 198 198 138
Width: 1814
Flags: W
LayerCount: 2
Fore
SplineSet
960 0 m 1,0,-1
 924 410 l 1,1,-1
 389 410 l 1,2,-1
 176 0 l 1,3,-1
 -33 0 l 1,4,-1
 704 1412 l 1,5,-1
 1683 1412 l 1,6,-1
 1683 1237 l 1,7,-1
 1042 1237 l 1,8,-1
 1081 820 l 1,9,-1
 1651 820 l 1,10,-1
 1651 645 l 1,11,-1
 1098 645 l 1,12,-1
 1142 177 l 1,13,-1
 1694 177 l 1,14,-1
 1694 0 l 1,15,-1
 960 0 l 1,0,-1
472 581 m 1,16,-1
 907 581 l 1,17,-1
 848 1245 l 1,18,-1
 807 1245 l 1,19,-1
 472 581 l 1,16,-1
EndSplineSet
EndChar

StartChar: Eth
Encoding: 208 208 148
Width: 1403
Flags: W
LayerCount: 2
Fore
SplineSet
73 640 m 1,0,-1
 73 808 l 1,1,-1
 192 808 l 1,2,-1
 192 1412 l 1,3,-1
 674 1412 l 2,4,5
 778 1412 778 1412 864.5 1385 c 128,-1,6
 951 1358 951 1358 1020 1311 c 128,-1,7
 1089 1264 1089 1264 1140 1199 c 128,-1,8
 1191 1134 1191 1134 1225.5 1057.5 c 128,-1,9
 1260 981 1260 981 1277 896.5 c 128,-1,10
 1294 812 1294 812 1294 725 c 0,11,12
 1294 564 1294 564 1252.5 430.5 c 128,-1,13
 1211 297 1211 297 1130 201.5 c 128,-1,14
 1049 106 1049 106 929 53 c 128,-1,15
 809 0 809 0 651 0 c 2,16,-1
 192 0 l 1,17,-1
 192 640 l 1,18,-1
 73 640 l 1,0,-1
389 1240 m 1,19,-1
 389 808 l 1,20,-1
 565 808 l 1,21,-1
 565 640 l 1,22,-1
 389 640 l 1,23,-1
 389 171 l 1,24,-1
 637 171 l 2,25,26
 749 171 749 171 833 212 c 128,-1,27
 917 253 917 253 972.5 325.5 c 128,-1,28
 1028 398 1028 398 1056 497.5 c 128,-1,29
 1084 597 1084 597 1084 713 c 0,30,31
 1084 812 1084 812 1058 907 c 128,-1,32
 1032 1002 1032 1002 980.5 1076 c 128,-1,33
 929 1150 929 1150 853 1195 c 128,-1,34
 777 1240 777 1240 677 1240 c 2,35,-1
 389 1240 l 1,19,-1
EndSplineSet
EndChar

StartChar: multiply
Encoding: 215 215 155
Width: 1038
Flags: W
LayerCount: 2
Fore
SplineSet
516 470 m 1,0,-1
 239 194 l 1,1,-1
 127 305 l 1,2,-1
 405 581 l 1,3,-1
 126 860 l 1,4,-1
 243 976 l 1,5,-1
 521 699 l 1,6,-1
 799 976 l 1,7,-1
 911 865 l 1,8,-1
 632 587 l 1,9,-1
 910 311 l 1,10,-1
 792 194 l 1,11,-1
 516 470 l 1,0,-1
EndSplineSet
EndChar

StartChar: Oslash
Encoding: 216 216 156
Width: 1485
Flags: W
LayerCount: 2
Fore
SplineSet
1371 714 m 0,0,1
 1371 563 1371 563 1336 428.5 c 128,-1,2
 1301 294 1301 294 1224.5 193 c 128,-1,3
 1148 92 1148 92 1028 33 c 128,-1,4
 908 -26 908 -26 737 -26 c 0,5,6
 639 -26 639 -26 559.5 -7 c 128,-1,7
 480 12 480 12 415 47 c 1,8,-1
 324 -103 l 1,9,-1
 195 -69 l 1,10,-1
 311 123 l 1,11,12
 259 172 259 172 221.5 235.5 c 128,-1,13
 184 299 184 299 160 372.5 c 128,-1,14
 136 446 136 446 124.5 529.5 c 128,-1,15
 113 613 113 613 113 703 c 0,16,17
 113 771 113 771 121.5 844.5 c 128,-1,18
 130 918 130 918 150 989 c 128,-1,19
 170 1060 170 1060 201.5 1126.5 c 128,-1,20
 233 1193 233 1193 280 1248 c 1,21,-1
 279 1248 l 1,22,23
 327 1300 327 1300 383 1337 c 128,-1,24
 439 1374 439 1374 499.5 1397.5 c 128,-1,25
 560 1421 560 1421 623 1431.5 c 128,-1,26
 686 1442 686 1442 747 1442 c 0,27,28
 838 1442 838 1442 916.5 1423 c 128,-1,29
 995 1404 995 1404 1062 1368 c 1,30,-1
 1152 1517 l 1,31,-1
 1283 1482 l 1,32,-1
 1167 1291 l 1,33,34
 1267 1197 1267 1197 1319 1052.5 c 128,-1,35
 1371 908 1371 908 1371 714 c 0,0,1
741 149 m 0,36,37
 831 149 831 149 911.5 184 c 128,-1,38
 992 219 992 219 1049 284 c 1,39,40
 1083 328 1083 328 1104.5 383 c 128,-1,41
 1126 438 1126 438 1138.5 496 c 128,-1,42
 1151 554 1151 554 1156 611 c 128,-1,43
 1161 668 1161 668 1161 715 c 0,44,45
 1161 841 1161 841 1138 943.5 c 128,-1,46
 1115 1046 1115 1046 1064 1120 c 1,47,-1
 513 210 l 1,48,49
 562 179 562 179 620 164 c 128,-1,50
 678 149 678 149 741 149 c 0,36,37
320 708 m 0,51,52
 320 593 320 593 342.5 488.5 c 128,-1,53
 365 384 365 384 419 302 c 1,54,-1
 968 1212 l 1,55,56
 924 1239 924 1239 869.5 1253.5 c 128,-1,57
 815 1268 815 1268 748 1268 c 0,58,59
 627 1268 627 1268 545 1224.5 c 128,-1,60
 463 1181 463 1181 413 1105 c 128,-1,61
 363 1029 363 1029 341.5 927 c 128,-1,62
 320 825 320 825 320 708 c 0,51,52
EndSplineSet
EndChar

StartChar: Thorn
Encoding: 222 222 162
Width: 1160
Flags: W
LayerCount: 2
Fore
SplineSet
189 1457 m 1,0,-1
 385 1457 l 1,1,-1
 385 1269 l 1,2,-1
 606 1269 l 2,3,4
 712 1269 712 1269 802.5 1248 c 128,-1,5
 893 1227 893 1227 959 1180 c 128,-1,6
 1025 1133 1025 1133 1062 1056.5 c 128,-1,7
 1099 980 1099 980 1099 868 c 0,8,9
 1099 755 1099 755 1063.5 675 c 128,-1,10
 1028 595 1028 595 960 543.5 c 128,-1,11
 892 492 892 492 793.5 468 c 128,-1,12
 695 444 695 444 569 444 c 2,13,-1
 385 444 l 1,14,-1
 385 0 l 1,15,-1
 189 0 l 1,16,-1
 189 1457 l 1,0,-1
385 614 m 1,17,-1
 480 614 l 2,18,19
 530 614 530 614 580.5 615 c 128,-1,20
 631 616 631 616 677 623 c 128,-1,21
 723 630 723 630 762.5 645.5 c 128,-1,22
 802 661 802 661 831.5 689 c 128,-1,23
 861 717 861 717 877.5 760.5 c 128,-1,24
 894 804 894 804 894 868 c 0,25,26
 894 941 894 941 869 986 c 128,-1,27
 844 1031 844 1031 803 1056.5 c 128,-1,28
 762 1082 762 1082 709 1091 c 128,-1,29
 656 1100 656 1100 599 1100 c 2,30,-1
 385 1100 l 1,31,-1
 385 614 l 1,17,-1
EndSplineSet
EndChar

StartChar: germandbls
Encoding: 223 223 163
Width: 1200
Flags: W
LayerCount: 2
Fore
SplineSet
997 1170 m 0,0,1
 997 1131 997 1131 987 1099.5 c 128,-1,2
 977 1068 977 1068 960 1041 c 128,-1,3
 943 1014 943 1014 920.5 991.5 c 128,-1,4
 898 969 898 969 874 949 c 0,5,6
 837 918 837 918 812 896.5 c 128,-1,7
 787 875 787 875 771.5 858.5 c 128,-1,8
 756 842 756 842 749.5 828 c 128,-1,9
 743 814 743 814 743 798 c 0,10,11
 743 767 743 767 766 742 c 128,-1,12
 789 717 789 717 845 681 c 0,13,14
 895 648 895 648 947 612.5 c 128,-1,15
 999 577 999 577 1041 534 c 128,-1,16
 1083 491 1083 491 1110 438 c 128,-1,17
 1137 385 1137 385 1137 318 c 0,18,19
 1137 234 1137 234 1107.5 171 c 128,-1,20
 1078 108 1078 108 1027 66.5 c 128,-1,21
 976 25 976 25 907.5 4 c 128,-1,22
 839 -17 839 -17 760 -17 c 0,23,24
 709 -17 709 -17 660 -8 c 128,-1,25
 611 1 611 1 570 23.5 c 128,-1,26
 529 46 529 46 499 84 c 128,-1,27
 469 122 469 122 455 181 c 1,28,-1
 561 262 l 1,29,30
 590 202 590 202 643.5 168 c 128,-1,31
 697 134 697 134 764 134 c 0,32,33
 816 134 816 134 851 148.5 c 128,-1,34
 886 163 886 163 907.5 186 c 128,-1,35
 929 209 929 209 938.5 238 c 128,-1,36
 948 267 948 267 948 297 c 0,37,38
 948 340 948 340 931.5 372 c 128,-1,39
 915 404 915 404 886.5 431.5 c 128,-1,40
 858 459 858 459 818.5 484 c 128,-1,41
 779 509 779 509 733 538 c 0,42,43
 685 568 685 568 651.5 595 c 128,-1,44
 618 622 618 622 596.5 650.5 c 128,-1,45
 575 679 575 679 565 710 c 128,-1,46
 555 741 555 741 555 778 c 0,47,48
 555 821 555 821 567.5 853.5 c 128,-1,49
 580 886 580 886 600.5 912.5 c 128,-1,50
 621 939 621 939 648 962 c 128,-1,51
 675 985 675 985 705 1008 c 0,52,53
 726 1024 726 1024 745 1039.5 c 128,-1,54
 764 1055 764 1055 778.5 1072.5 c 128,-1,55
 793 1090 793 1090 801 1111.5 c 128,-1,56
 809 1133 809 1133 809 1161 c 0,57,58
 809 1234 809 1234 752.5 1277.5 c 128,-1,59
 696 1321 696 1321 585 1321 c 0,60,61
 528 1321 528 1321 483.5 1308.5 c 128,-1,62
 439 1296 439 1296 409 1268 c 128,-1,63
 379 1240 379 1240 363 1194 c 128,-1,64
 347 1148 347 1148 347 1081 c 2,65,-1
 347 0 l 1,66,-1
 159 0 l 1,67,-1
 159 1083 l 2,68,69
 159 1162 159 1162 179 1231.5 c 128,-1,70
 199 1301 199 1301 248 1353.5 c 128,-1,71
 297 1406 297 1406 380.5 1436.5 c 128,-1,72
 464 1467 464 1467 590 1467 c 0,73,74
 668 1467 668 1467 741.5 1451 c 128,-1,75
 815 1435 815 1435 871.5 1400 c 128,-1,76
 928 1365 928 1365 962.5 1308.5 c 128,-1,77
 997 1252 997 1252 997 1170 c 0,0,1
EndSplineSet
EndChar

StartChar: ae
Encoding: 230 230 170
Width: 1658
Flags: W
LayerCount: 2
Fore
SplineSet
1529 116 m 1,0,1
 1497 90 1497 90 1462 65 c 128,-1,2
 1427 40 1427 40 1385 20.5 c 128,-1,3
 1343 1 1343 1 1292 -10.5 c 128,-1,4
 1241 -22 1241 -22 1179 -22 c 0,5,6
 1132 -22 1132 -22 1079 -10.5 c 128,-1,7
 1026 1 1026 1 974.5 28.5 c 128,-1,8
 923 56 923 56 878.5 102 c 128,-1,9
 834 148 834 148 804 216 c 1,10,11
 774 148 774 148 728 102 c 128,-1,12
 682 56 682 56 628.5 27.5 c 128,-1,13
 575 -1 575 -1 517 -13.5 c 128,-1,14
 459 -26 459 -26 405 -26 c 0,15,16
 329 -26 329 -26 268 -5 c 128,-1,17
 207 16 207 16 164.5 55.5 c 128,-1,18
 122 95 122 95 99 151.5 c 128,-1,19
 76 208 76 208 76 279 c 0,20,21
 76 346 76 346 98 398 c 128,-1,22
 120 450 120 450 158.5 489.5 c 128,-1,23
 197 529 197 529 248.5 556 c 128,-1,24
 300 583 300 583 358.5 600 c 128,-1,25
 417 617 417 617 480 624.5 c 128,-1,26
 543 632 543 632 603 632 c 0,27,28
 630 632 630 632 655.5 630.5 c 128,-1,29
 681 629 681 629 706 627 c 1,30,-1
 706 688 l 2,31,32
 706 755 706 755 691.5 797.5 c 128,-1,33
 677 840 677 840 650.5 864.5 c 128,-1,34
 624 889 624 889 587 898 c 128,-1,35
 550 907 550 907 506 907 c 0,36,37
 467 907 467 907 433 899 c 128,-1,38
 399 891 399 891 368 877.5 c 128,-1,39
 337 864 337 864 307 846 c 128,-1,40
 277 828 277 828 247 808 c 1,41,42
 223 836 223 836 198 863 c 128,-1,43
 173 890 173 890 149 916 c 1,44,45
 191 950 191 950 232 977 c 128,-1,46
 273 1004 273 1004 316 1022.5 c 128,-1,47
 359 1041 359 1041 406 1050.5 c 128,-1,48
 453 1060 453 1060 507 1060 c 0,49,50
 619 1060 619 1060 699 1021 c 128,-1,51
 779 982 779 982 833 893 c 1,52,53
 864 935 864 935 902.5 966 c 128,-1,54
 941 997 941 997 982.5 1017.5 c 128,-1,55
 1024 1038 1024 1038 1067.5 1048.5 c 128,-1,56
 1111 1059 1111 1059 1152 1059 c 0,57,58
 1260 1059 1260 1059 1338 1020.5 c 128,-1,59
 1416 982 1416 982 1466.5 916.5 c 128,-1,60
 1517 851 1517 851 1541 764 c 128,-1,61
 1565 677 1565 677 1565 580 c 2,62,-1
 1565 480 l 1,63,-1
 898 480 l 1,64,65
 899 409 899 409 915.5 347 c 128,-1,66
 932 285 932 285 966 239 c 128,-1,67
 1000 193 1000 193 1053.5 166 c 128,-1,68
 1107 139 1107 139 1183 139 c 0,69,70
 1271 139 1271 139 1342.5 165.5 c 128,-1,71
 1414 192 1414 192 1480 246 c 1,72,-1
 1529 116 l 1,0,1
1148 904 m 0,73,74
 1052 904 1052 904 986 839 c 128,-1,75
 920 774 920 774 905 647 c 1,76,-1
 905 631 l 1,77,-1
 1368 631 l 1,78,79
 1366 685 1366 685 1355.5 734 c 128,-1,80
 1345 783 1345 783 1319.5 821 c 128,-1,81
 1294 859 1294 859 1252.5 881.5 c 128,-1,82
 1211 904 1211 904 1148 904 c 0,73,74
645 217 m 0,83,84
 663 240 663 240 674 266 c 128,-1,85
 685 292 685 292 692 324 c 128,-1,86
 699 356 699 356 702 397 c 128,-1,87
 705 438 705 438 705 491 c 1,88,-1
 676 491 l 2,89,90
 640 491 640 491 596 490 c 128,-1,91
 552 489 552 489 506.5 483 c 128,-1,92
 461 477 461 477 418.5 465 c 128,-1,93
 376 453 376 453 342.5 431 c 128,-1,94
 309 409 309 409 289 375 c 128,-1,95
 269 341 269 341 269 292 c 0,96,97
 269 260 269 260 279 231 c 128,-1,98
 289 202 289 202 310.5 180 c 128,-1,99
 332 158 332 158 366 144.5 c 128,-1,100
 400 131 400 131 448 131 c 0,101,102
 511 131 511 131 562 152.5 c 128,-1,103
 613 174 613 174 645 217 c 0,83,84
EndSplineSet
EndChar

StartChar: eth
Encoding: 240 240 180
Width: 1102
Flags: W
LayerCount: 2
Fore
SplineSet
510 1076 m 1,0,-1
 697 1145 l 1,1,2
 648 1208 648 1208 586.5 1237.5 c 128,-1,3
 525 1267 525 1267 453 1267 c 0,4,5
 401 1267 401 1267 337 1252 c 128,-1,6
 273 1237 273 1237 204 1206 c 1,7,-1
 151 1328 l 1,8,9
 235 1368 235 1368 314.5 1388 c 128,-1,10
 394 1408 394 1408 465 1408 c 0,11,12
 577 1408 577 1408 675.5 1354 c 128,-1,13
 774 1300 774 1300 843 1202 c 1,14,-1
 1045 1280 l 1,15,-1
 1078 1173 l 1,16,-1
 896 1106 l 1,17,18
 977 918 977 918 977 643 c 0,19,20
 977 512 977 512 958.5 412 c 128,-1,21
 940 312 940 312 908 238 c 128,-1,22
 876 164 876 164 831.5 114 c 128,-1,23
 787 64 787 64 735.5 34 c 128,-1,24
 684 4 684 4 627 -9 c 128,-1,25
 570 -22 570 -22 512 -22 c 0,26,27
 423 -22 423 -22 344.5 6.5 c 128,-1,28
 266 35 266 35 207 92 c 128,-1,29
 148 149 148 149 113.5 234.5 c 128,-1,30
 79 320 79 320 79 435 c 0,31,32
 79 539 79 539 110.5 618.5 c 128,-1,33
 142 698 142 698 196.5 752 c 128,-1,34
 251 806 251 806 325.5 833.5 c 128,-1,35
 400 861 400 861 486 861 c 0,36,37
 669 861 669 861 798 702 c 1,38,39
 798 816 798 816 786 898 c 128,-1,40
 774 980 774 980 749 1048 c 1,41,42
 732 1043 732 1043 698.5 1030.5 c 128,-1,43
 665 1018 665 1018 630 1004 c 0,44,45
 590 988 590 988 543 970 c 1,46,-1
 510 1076 l 1,0,-1
518 723 m 0,47,48
 457 723 457 723 408 703 c 128,-1,49
 359 683 359 683 325 646 c 128,-1,50
 291 609 291 609 272.5 556 c 128,-1,51
 254 503 254 503 254 436 c 0,52,53
 254 364 254 364 272 306 c 128,-1,54
 290 248 290 248 323.5 207 c 128,-1,55
 357 166 357 166 405 144 c 128,-1,56
 453 122 453 122 513 122 c 256,57,58
 573 122 573 122 623.5 147 c 128,-1,59
 674 172 674 172 710.5 216 c 128,-1,60
 747 260 747 260 767.5 320 c 128,-1,61
 788 380 788 380 788 449 c 0,62,63
 788 506 788 506 769 555.5 c 128,-1,64
 750 605 750 605 715 642.5 c 128,-1,65
 680 680 680 680 630 701.5 c 128,-1,66
 580 723 580 723 518 723 c 0,47,48
EndSplineSet
EndChar

StartChar: divide
Encoding: 247 247 187
Width: 1206
Flags: W
LayerCount: 2
Fore
SplineSet
129 675 m 1,0,-1
 1077 675 l 1,1,-1
 1077 513 l 1,2,-1
 129 513 l 1,3,-1
 129 675 l 1,0,-1
489 1053 m 1,4,-1
 720 1053 l 1,5,-1
 720 814 l 1,6,-1
 489 814 l 1,7,-1
 489 1053 l 1,4,-1
489 366 m 1,8,-1
 720 366 l 1,9,-1
 720 127 l 1,10,-1
 489 127 l 1,11,-1
 489 366 l 1,8,-1
EndSplineSet
EndChar

StartChar: oslash
Encoding: 248 248 188
Width: 1129
Flags: W
LayerCount: 2
Fore
SplineSet
1031 512 m 0,0,1
 1031 395 1031 395 1000.5 297.5 c 128,-1,2
 970 200 970 200 910.5 129.5 c 128,-1,3
 851 59 851 59 763 20 c 128,-1,4
 675 -19 675 -19 560 -19 c 0,5,6
 500 -19 500 -19 447.5 -7.5 c 128,-1,7
 395 4 395 4 349 26 c 1,8,-1
 262 -119 l 1,9,-1
 133 -85 l 1,10,-1
 244 99 l 1,11,12
 172 168 172 168 135 271 c 128,-1,13
 98 374 98 374 98 503 c 0,14,15
 98 613 98 613 125 710.5 c 128,-1,16
 152 808 152 808 209.5 881.5 c 128,-1,17
 267 955 267 955 357 998 c 128,-1,18
 447 1041 447 1041 572 1041 c 0,19,20
 635 1041 635 1041 687 1029 c 128,-1,21
 739 1017 739 1017 784 995 c 1,22,-1
 890 1171 l 1,23,-1
 1021 1136 l 1,24,-1
 889 918 l 1,25,26
 926 880 926 880 953 833.5 c 128,-1,27
 980 787 980 787 997 735 c 128,-1,28
 1014 683 1014 683 1022.5 626.5 c 128,-1,29
 1031 570 1031 570 1031 512 c 0,0,1
284 504 m 0,30,31
 284 429 284 429 296.5 365.5 c 128,-1,32
 309 302 309 302 337 253 c 1,33,-1
 703 861 l 1,34,35
 644 895 644 895 570 895 c 0,36,37
 514 895 514 895 462.5 873.5 c 128,-1,38
 411 852 411 852 371 804.5 c 128,-1,39
 331 757 331 757 307.5 683 c 128,-1,40
 284 609 284 609 284 504 c 0,30,31
564 127 m 0,41,42
 624 127 624 127 675.5 148.5 c 128,-1,43
 727 170 727 170 764.5 216.5 c 128,-1,44
 802 263 802 263 823 335 c 128,-1,45
 844 407 844 407 844 508 c 0,46,47
 844 664 844 664 794 761 c 1,48,-1
 429 158 l 1,49,50
 486 127 486 127 564 127 c 0,41,42
EndSplineSet
EndChar

StartChar: thorn
Encoding: 254 254 194
Width: 1166
Flags: W
LayerCount: 2
Fore
SplineSet
158 -416 m 1,0,1
 158 -270 158 -270 158 -157.5 c 128,-1,2
 158 -45 158 -45 158 41 c 128,-1,3
 158 127 158 127 158.5 191 c 128,-1,4
 159 255 159 255 159 304.5 c 128,-1,5
 159 354 159 354 159 393.5 c 128,-1,6
 159 433 159 433 159 471 c 2,7,-1
 159 1449 l 1,8,-1
 345 1449 l 1,9,-1
 345 1124 l 1,10,-1
 343 892 l 1,11,12
 366 920 366 920 396 947 c 128,-1,13
 426 974 426 974 463.5 995 c 128,-1,14
 501 1016 501 1016 547.5 1029 c 128,-1,15
 594 1042 594 1042 650 1042 c 0,16,17
 758 1042 758 1042 836.5 999.5 c 128,-1,18
 915 957 915 957 966 885 c 128,-1,19
 1017 813 1017 813 1041.5 719 c 128,-1,20
 1066 625 1066 625 1066 522 c 0,21,22
 1066 425 1066 425 1043 329 c 128,-1,23
 1020 233 1020 233 970 156.5 c 128,-1,24
 920 80 920 80 839.5 32.5 c 128,-1,25
 759 -15 759 -15 644 -15 c 0,26,27
 609 -15 609 -15 570 -6.5 c 128,-1,28
 531 2 531 2 491.5 20 c 128,-1,29
 452 38 452 38 413.5 65.5 c 128,-1,30
 375 93 375 93 340 132 c 1,31,-1
 345 19 l 1,32,-1
 345 -416 l 1,33,-1
 158 -416 l 1,0,1
344 511 m 0,34,35
 344 474 344 474 347 431.5 c 128,-1,36
 350 389 350 389 360 347 c 128,-1,37
 370 305 370 305 388 266.5 c 128,-1,38
 406 228 406 228 435 199 c 128,-1,39
 464 170 464 170 507 152.5 c 128,-1,40
 550 135 550 135 609 135 c 0,41,42
 683 135 683 135 733 166.5 c 128,-1,43
 783 198 783 198 813 251 c 128,-1,44
 843 304 843 304 856 372.5 c 128,-1,45
 869 441 869 441 869 516 c 0,46,47
 869 579 869 579 859 646.5 c 128,-1,48
 849 714 849 714 820.5 769 c 128,-1,49
 792 824 792 824 742 859.5 c 128,-1,50
 692 895 692 895 613 895 c 0,51,52
 553 895 553 895 509.5 877 c 128,-1,53
 466 859 466 859 436 829 c 128,-1,54
 406 799 406 799 388 759.5 c 128,-1,55
 370 720 370 720 360 677.5 c 128,-1,56
 350 635 350 635 347 592 c 128,-1,57
 344 549 344 549 344 511 c 0,34,35
EndSplineSet
EndChar

StartChar: dotlessi
Encoding: 305 305 196
Width: 497
Flags: W
LayerCount: 2
Fore
SplineSet
155 1019 m 1,0,-1
 339 1019 l 1,1,-1
 339 0 l 1,2,-1
 155 0 l 1,3,-1
 155 1019 l 1,0,-1
EndSplineSet
EndChar

StartChar: Lslash
Encoding: 321 321 197
Width: 1030
Flags: W
LayerCount: 2
Fore
SplineSet
196 0 m 1,0,-1
 196 516 l 1,1,-1
 74 441 l 1,2,-1
 74 607 l 1,3,-1
 196 681 l 1,4,-1
 196 1412 l 1,5,-1
 391 1412 l 1,6,-1
 391 799 l 1,7,-1
 763 1025 l 1,8,-1
 763 859 l 1,9,-1
 391 635 l 1,10,-1
 391 180 l 1,11,-1
 996 180 l 1,12,-1
 996 0 l 1,13,-1
 196 0 l 1,0,-1
EndSplineSet
EndChar

StartChar: lslash
Encoding: 322 322 198
Width: 973
Flags: W
LayerCount: 2
Fore
SplineSet
392 571 m 1,0,-1
 35 443 l 1,1,-1
 35 606 l 1,2,-1
 392 735 l 1,3,-1
 392 1449 l 1,4,-1
 581 1449 l 1,5,-1
 581 804 l 1,6,-1
 943 934 l 1,7,-1
 943 770 l 1,8,-1
 581 639 l 1,9,-1
 581 0 l 1,10,-1
 392 0 l 1,11,-1
 392 571 l 1,0,-1
EndSplineSet
EndChar

StartChar: OE
Encoding: 338 338 199
Width: 1999
Flags: W
LayerCount: 2
Fore
SplineSet
1875 0 m 1,0,-1
 743 0 l 2,1,2
 617 0 617 0 501.5 43.5 c 128,-1,3
 386 87 386 87 298.5 175.5 c 128,-1,4
 211 264 211 264 159 398.5 c 128,-1,5
 107 533 107 533 107 715 c 0,6,7
 107 794 107 794 119.5 877 c 128,-1,8
 132 960 132 960 162.5 1039 c 128,-1,9
 193 1118 193 1118 243.5 1188.5 c 128,-1,10
 294 1259 294 1259 370.5 1311.5 c 128,-1,11
 447 1364 447 1364 551 1395 c 128,-1,12
 655 1426 655 1426 792 1426 c 0,13,14
 809 1426 809 1426 840 1425 c 128,-1,15
 871 1424 871 1424 905.5 1422.5 c 128,-1,16
 940 1421 940 1421 972.5 1420 c 128,-1,17
 1005 1419 1005 1419 1025 1419 c 0,18,19
 1030 1419 1030 1419 1038.5 1419 c 128,-1,20
 1047 1419 1047 1419 1073.5 1419 c 128,-1,21
 1100 1419 1100 1419 1152 1419.5 c 128,-1,22
 1204 1420 1204 1420 1296.5 1420 c 128,-1,23
 1389 1420 1389 1420 1528.5 1420 c 128,-1,24
 1668 1420 1668 1420 1869 1420 c 1,25,-1
 1869 1243 l 1,26,-1
 1208 1243 l 1,27,-1
 1208 817 l 1,28,-1
 1839 817 l 1,29,-1
 1839 640 l 1,30,-1
 1208 640 l 1,31,-1
 1208 181 l 1,32,-1
 1875 181 l 1,33,-1
 1875 0 l 1,0,-1
1000 1247 m 1,34,35
 935 1252 935 1252 887.5 1254.5 c 128,-1,36
 840 1257 840 1257 792 1257 c 0,37,38
 683 1257 683 1257 605.5 1229 c 128,-1,39
 528 1201 528 1201 476 1155.5 c 128,-1,40
 424 1110 424 1110 393 1052.5 c 128,-1,41
 362 995 362 995 346 935 c 128,-1,42
 330 875 330 875 325.5 818 c 128,-1,43
 321 761 321 761 321 718 c 0,44,45
 321 666 321 666 326.5 605.5 c 128,-1,46
 332 545 332 545 349.5 485 c 128,-1,47
 367 425 367 425 400.5 369 c 128,-1,48
 434 313 434 313 489.5 270 c 128,-1,49
 545 227 545 227 626.5 201.5 c 128,-1,50
 708 176 708 176 823 176 c 0,51,52
 845 176 845 176 864.5 176 c 128,-1,53
 884 176 884 176 904.5 176.5 c 128,-1,54
 925 177 925 177 948 177.5 c 128,-1,55
 971 178 971 178 1000 179 c 1,56,-1
 1000 1247 l 1,34,35
EndSplineSet
EndChar

StartChar: oe
Encoding: 339 339 200
Width: 1832
Flags: W
LayerCount: 2
Fore
SplineSet
579 -30 m 0,0,1
 490 -30 490 -30 419 -7.5 c 128,-1,2
 348 15 348 15 294 53 c 128,-1,3
 240 91 240 91 202 142 c 128,-1,4
 164 193 164 193 140 250 c 128,-1,5
 116 307 116 307 105 367.5 c 128,-1,6
 94 428 94 428 94 485 c 0,7,8
 94 588 94 588 126.5 682.5 c 128,-1,9
 159 777 159 777 222 849 c 128,-1,10
 285 921 285 921 377 963.5 c 128,-1,11
 469 1006 469 1006 589 1006 c 0,12,13
 676 1006 676 1006 738.5 982.5 c 128,-1,14
 801 959 801 959 845 924.5 c 128,-1,15
 889 890 889 890 916.5 850.5 c 128,-1,16
 944 811 944 811 962 778 c 1,17,18
 986 833 986 833 1019 871.5 c 128,-1,19
 1052 910 1052 910 1088.5 936 c 128,-1,20
 1125 962 1125 962 1162 977.5 c 128,-1,21
 1199 993 1199 993 1232 1000.5 c 128,-1,22
 1265 1008 1265 1008 1291 1010 c 128,-1,23
 1317 1012 1317 1012 1331 1012 c 0,24,25
 1424 1012 1424 1012 1491 987 c 128,-1,26
 1558 962 1558 962 1603 920.5 c 128,-1,27
 1648 879 1648 879 1675 825 c 128,-1,28
 1702 771 1702 771 1716.5 714.5 c 128,-1,29
 1731 658 1731 658 1735.5 602 c 128,-1,30
 1740 546 1740 546 1741 500 c 1,31,-1
 1741 454 l 1,32,-1
 1061 454 l 1,33,34
 1059 443 1059 443 1058 432 c 128,-1,35
 1057 421 1057 421 1057 410 c 0,36,37
 1057 355 1057 355 1077.5 303 c 128,-1,38
 1098 251 1098 251 1133.5 210.5 c 128,-1,39
 1169 170 1169 170 1218 145 c 128,-1,40
 1267 120 1267 120 1324 120 c 0,41,42
 1367 120 1367 120 1403.5 134.5 c 128,-1,43
 1440 149 1440 149 1467.5 174.5 c 128,-1,44
 1495 200 1495 200 1513.5 236 c 128,-1,45
 1532 272 1532 272 1538 315 c 1,46,-1
 1727 315 l 1,47,48
 1717 242 1717 242 1691.5 188 c 128,-1,49
 1666 134 1666 134 1632.5 95.5 c 128,-1,50
 1599 57 1599 57 1559 32.5 c 128,-1,51
 1519 8 1519 8 1478.5 -6.5 c 128,-1,52
 1438 -21 1438 -21 1399.5 -26.5 c 128,-1,53
 1361 -32 1361 -32 1331 -32 c 0,54,55
 1269 -32 1269 -32 1212 -14 c 128,-1,56
 1155 4 1155 4 1106.5 34.5 c 128,-1,57
 1058 65 1058 65 1020.5 106 c 128,-1,58
 983 147 983 147 960 194 c 1,59,60
 902 90 902 90 804.5 30 c 128,-1,61
 707 -30 707 -30 579 -30 c 0,0,1
302 499 m 0,62,63
 302 484 302 484 303.5 450 c 128,-1,64
 305 416 305 416 312.5 374 c 128,-1,65
 320 332 320 332 337.5 286.5 c 128,-1,66
 355 241 355 241 387 203.5 c 128,-1,67
 419 166 419 166 468.5 142 c 128,-1,68
 518 118 518 118 591 118 c 0,69,70
 645 118 645 118 687.5 134.5 c 128,-1,71
 730 151 730 151 761 179 c 128,-1,72
 792 207 792 207 813.5 244 c 128,-1,73
 835 281 835 281 848.5 322.5 c 128,-1,74
 862 364 862 364 867.5 407 c 128,-1,75
 873 450 873 450 873 491 c 0,76,77
 873 559 873 559 858.5 624.5 c 128,-1,78
 844 690 844 690 811 742 c 128,-1,79
 778 794 778 794 724.5 825.5 c 128,-1,80
 671 857 671 857 594 857 c 0,81,82
 508 857 508 857 452 823 c 128,-1,83
 396 789 396 789 362.5 736.5 c 128,-1,84
 329 684 329 684 315.5 621 c 128,-1,85
 302 558 302 558 302 499 c 0,62,63
1324 867 m 0,86,87
 1250 867 1250 867 1202 840 c 128,-1,88
 1154 813 1154 813 1125 772.5 c 128,-1,89
 1096 732 1096 732 1083 686 c 128,-1,90
 1070 640 1070 640 1067 603 c 1,91,-1
 1541 603 l 1,92,93
 1540 624 1540 624 1537 652 c 128,-1,94
 1534 680 1534 680 1526 709.5 c 128,-1,95
 1518 739 1518 739 1503.5 767 c 128,-1,96
 1489 795 1489 795 1465 817.5 c 128,-1,97
 1441 840 1441 840 1406.5 853.5 c 128,-1,98
 1372 867 1372 867 1324 867 c 0,86,87
EndSplineSet
EndChar

StartChar: florin
Encoding: 402 402 206
Width: 701
Flags: W
LayerCount: 2
Fore
SplineSet
105 823 m 1,0,-1
 281 823 l 1,1,-1
 324 1030 l 2,2,3
 336 1090 336 1090 355.5 1146 c 128,-1,4
 375 1202 375 1202 411 1245.5 c 128,-1,5
 447 1289 447 1289 504.5 1315.5 c 128,-1,6
 562 1342 562 1342 651 1342 c 0,7,8
 677 1342 677 1342 703 1339 c 128,-1,9
 729 1336 729 1336 763 1331 c 1,10,-1
 739 1180 l 1,11,12
 722 1180 722 1180 705.5 1183 c 128,-1,13
 689 1186 689 1186 667 1186 c 0,14,15
 624 1186 624 1186 595.5 1171.5 c 128,-1,16
 567 1157 567 1157 549 1134 c 128,-1,17
 531 1111 531 1111 520.5 1082 c 128,-1,18
 510 1053 510 1053 503 1023 c 2,19,-1
 460 823 l 1,20,-1
 665 823 l 1,21,22
 661 803 661 803 656 778.5 c 128,-1,23
 651 754 651 754 646 732 c 0,24,25
 641 706 641 706 635 680 c 1,26,-1
 435 680 l 1,27,-1
 318 54 l 2,28,29
 298 -53 298 -53 275.5 -134.5 c 128,-1,30
 253 -216 253 -216 214 -271.5 c 128,-1,31
 175 -327 175 -327 113 -355.5 c 128,-1,32
 51 -384 51 -384 -47 -384 c 0,33,34
 -55 -384 -55 -384 -67 -383.5 c 128,-1,35
 -79 -383 -79 -383 -97 -380 c 1,36,37
 -90 -339 -90 -339 -83.5 -302.5 c 128,-1,38
 -77 -266 -77 -266 -71 -228 c 1,39,40
 -59 -230 -59 -230 -50.5 -231 c 128,-1,41
 -42 -232 -42 -232 -37 -232 c 0,42,43
 19 -232 19 -232 48 -209.5 c 128,-1,44
 77 -187 77 -187 92.5 -144.5 c 128,-1,45
 108 -102 108 -102 117 -39.5 c 128,-1,46
 126 23 126 23 141 104 c 2,47,-1
 252 680 l 1,48,-1
 78 680 l 1,49,-1
 105 823 l 1,0,-1
EndSplineSet
EndChar

StartChar: circumflex
Encoding: 710 710 235
Width: 816
Flags: W
LayerCount: 2
Fore
SplineSet
563 1187 m 1,0,-1
 400 1413 l 1,1,-1
 234 1187 l 1,2,-1
 53 1187 l 1,3,-1
 313 1545 l 1,4,-1
 495 1545 l 1,5,-1
 751 1187 l 1,6,-1
 563 1187 l 1,0,-1
EndSplineSet
EndChar

StartChar: caron
Encoding: 711 711 236
Width: 546
Flags: W
LayerCount: 2
Fore
SplineSet
369 1139 m 1,0,-1
 185 1139 l 1,1,-1
 -38 1449 l 1,2,-1
 139 1449 l 1,3,-1
 275 1269 l 1,4,-1
 406 1449 l 1,5,-1
 593 1449 l 1,6,-1
 369 1139 l 1,0,-1
EndSplineSet
EndChar

StartChar: breve
Encoding: 728 728 237
Width: 546
Flags: W
LayerCount: 2
Fore
SplineSet
101 1472 m 1,0,1
 106 1387 106 1387 145.5 1338.5 c 128,-1,2
 185 1290 185 1290 268 1290 c 0,3,4
 323 1290 323 1290 357 1311.5 c 128,-1,5
 391 1333 391 1333 409.5 1362 c 128,-1,6
 428 1391 428 1391 434.5 1422 c 128,-1,7
 441 1453 441 1453 443 1472 c 1,8,-1
 542 1472 l 1,9,10
 540 1316 540 1316 473 1234.5 c 128,-1,11
 406 1153 406 1153 268 1153 c 0,12,13
 204 1153 204 1153 159.5 1170.5 c 128,-1,14
 115 1188 115 1188 85.5 1216 c 128,-1,15
 56 1244 56 1244 39 1279 c 128,-1,16
 22 1314 22 1314 14 1349.5 c 128,-1,17
 6 1385 6 1385 3.5 1417 c 128,-1,18
 1 1449 1 1449 1 1472 c 1,19,-1
 101 1472 l 1,0,1
EndSplineSet
EndChar

StartChar: dotaccent
Encoding: 729 729 238
Width: 546
Flags: W
LayerCount: 2
Fore
SplineSet
177 1410 m 1,0,-1
 367 1410 l 1,1,-1
 367 1197 l 1,2,-1
 177 1197 l 1,3,-1
 177 1410 l 1,0,-1
EndSplineSet
EndChar

StartChar: ring
Encoding: 730 730 239
Width: 816
Flags: W
LayerCount: 2
Fore
SplineSet
404 1505 m 2,0,1
 345 1505 345 1505 302 1465.5 c 128,-1,2
 259 1426 259 1426 259 1363 c 0,3,4
 259 1305 259 1305 299 1265.5 c 128,-1,5
 339 1226 339 1226 404 1226 c 0,6,7
 467 1226 467 1226 507 1265.5 c 128,-1,8
 547 1305 547 1305 547 1363 c 0,9,10
 547 1426 547 1426 504 1465.5 c 128,-1,11
 461 1505 461 1505 402 1505 c 2,12,-1
 404 1505 l 2,0,1
403 1598 m 256,13,14
 453 1598 453 1598 498 1581 c 128,-1,15
 543 1564 543 1564 574 1532.5 c 128,-1,16
 605 1501 605 1501 622.5 1457.5 c 128,-1,17
 640 1414 640 1414 640 1363 c 256,18,19
 640 1312 640 1312 622.5 1270 c 128,-1,20
 605 1228 605 1228 574 1197 c 128,-1,21
 543 1166 543 1166 498 1149 c 128,-1,22
 453 1132 453 1132 403 1132 c 256,23,24
 353 1132 353 1132 308 1149 c 128,-1,25
 263 1166 263 1166 232 1197 c 128,-1,26
 201 1228 201 1228 183.5 1270 c 128,-1,27
 166 1312 166 1312 166 1363 c 256,28,29
 166 1414 166 1414 183.5 1457.5 c 128,-1,30
 201 1501 201 1501 232 1532.5 c 128,-1,31
 263 1564 263 1564 308 1581 c 128,-1,32
 353 1598 353 1598 403 1598 c 256,13,14
EndSplineSet
EndChar

StartChar: ogonek
Encoding: 731 731 240
Width: 546
Flags: W
LayerCount: 2
Fore
SplineSet
423 15 m 1,0,1
 389 -8 389 -8 357.5 -30.5 c 128,-1,2
 326 -53 326 -53 301.5 -77 c 128,-1,3
 277 -101 277 -101 262.5 -125.5 c 128,-1,4
 248 -150 248 -150 248 -176 c 0,5,6
 248 -210 248 -210 264.5 -228 c 128,-1,7
 281 -246 281 -246 301.5 -254.5 c 128,-1,8
 322 -263 322 -263 341.5 -264.5 c 128,-1,9
 361 -266 361 -266 367 -266 c 0,10,11
 395 -266 395 -266 415 -258 c 128,-1,12
 435 -250 435 -250 459 -236 c 1,13,-1
 459 -332 l 1,14,15
 421 -352 421 -352 377.5 -368 c 128,-1,16
 334 -384 334 -384 272 -384 c 0,17,18
 219 -384 219 -384 183 -369.5 c 128,-1,19
 147 -355 147 -355 125 -332.5 c 128,-1,20
 103 -310 103 -310 93.5 -283.5 c 128,-1,21
 84 -257 84 -257 84 -233 c 0,22,23
 84 -192 84 -192 103 -156 c 128,-1,24
 122 -120 122 -120 155 -89 c 128,-1,25
 188 -58 188 -58 231.5 -32 c 128,-1,26
 275 -6 275 -6 324 15 c 1,27,-1
 423 15 l 1,0,1
EndSplineSet
EndChar

StartChar: tilde
Encoding: 732 732 241
Width: 816
Flags: W
LayerCount: 2
Fore
SplineSet
536 1193 m 0,0,1
 509 1193 509 1193 474.5 1205 c 128,-1,2
 440 1217 440 1217 405 1231 c 128,-1,3
 370 1245 370 1245 339 1257 c 128,-1,4
 308 1269 308 1269 288 1269 c 0,5,6
 256 1269 256 1269 238 1249.5 c 128,-1,7
 220 1230 220 1230 204 1183 c 1,8,-1
 108 1183 l 1,9,10
 108 1234 108 1234 123 1276.5 c 128,-1,11
 138 1319 138 1319 163.5 1349.5 c 128,-1,12
 189 1380 189 1380 223 1397 c 128,-1,13
 257 1414 257 1414 294 1414 c 0,14,15
 325 1414 325 1414 357.5 1402.5 c 128,-1,16
 390 1391 390 1391 421.5 1377.5 c 128,-1,17
 453 1364 453 1364 483.5 1352.5 c 128,-1,18
 514 1341 514 1341 541 1341 c 0,19,20
 576 1341 576 1341 595 1363.5 c 128,-1,21
 614 1386 614 1386 622 1428 c 1,22,-1
 722 1428 l 1,23,24
 719 1366 719 1366 703 1322 c 128,-1,25
 687 1278 687 1278 661.5 1249 c 128,-1,26
 636 1220 636 1220 603.5 1206.5 c 128,-1,27
 571 1193 571 1193 536 1193 c 0,0,1
EndSplineSet
EndChar

StartChar: hungarumlaut
Encoding: 733 733 242
Width: 786
Flags: W
LayerCount: 2
Fore
SplineSet
235 1451 m 1,0,-1
 452 1451 l 1,1,-1
 204 1158 l 1,2,-1
 68 1158 l 1,3,-1
 235 1451 l 1,0,-1
545 1451 m 1,4,-1
 761 1451 l 1,5,-1
 513 1158 l 1,6,-1
 376 1158 l 1,7,-1
 545 1451 l 1,4,-1
EndSplineSet
EndChar

StartChar: uni030F
Encoding: 783 783 243
Width: 786
Flags: W
LayerCount: 2
Fore
SplineSet
729 1158 m 1,0,-1
 593 1158 l 1,1,-1
 345 1451 l 1,2,-1
 562 1451 l 1,3,-1
 729 1158 l 1,0,-1
421 1158 m 1,4,-1
 284 1158 l 1,5,-1
 36 1451 l 1,6,-1
 252 1451 l 1,7,-1
 421 1158 l 1,4,-1
EndSplineSet
EndChar

StartChar: uni0311
Encoding: 785 785 244
Width: 546
Flags: W
LayerCount: 2
Fore
SplineSet
1 1153 m 1,0,1
 1 1175 1 1175 3.5 1207.5 c 128,-1,2
 6 1240 6 1240 14 1275.5 c 128,-1,3
 22 1311 22 1311 39 1346 c 128,-1,4
 56 1381 56 1381 85.5 1409 c 128,-1,5
 115 1437 115 1437 159.5 1454.5 c 128,-1,6
 204 1472 204 1472 268 1472 c 0,7,8
 406 1472 406 1472 473 1390.5 c 128,-1,9
 540 1309 540 1309 542 1153 c 1,10,-1
 443 1153 l 1,11,12
 441 1172 441 1172 434.5 1203 c 128,-1,13
 428 1234 428 1234 409.5 1263 c 128,-1,14
 391 1292 391 1292 357 1313.5 c 128,-1,15
 323 1335 323 1335 268 1335 c 0,16,17
 185 1335 185 1335 145.5 1286.5 c 128,-1,18
 106 1238 106 1238 101 1153 c 1,19,-1
 1 1153 l 1,0,1
EndSplineSet
EndChar

StartChar: uni0326
Encoding: 806 806 245
Width: 521
Flags: W
LayerCount: 2
Fore
SplineSet
38 -599 m 1,0,-1
 150 -107 l 1,1,-1
 372 -107 l 1,2,-1
 178 -599 l 1,3,-1
 38 -599 l 1,0,-1
EndSplineSet
EndChar

StartChar: uni03A9
Encoding: 937 937 246
Width: 1447
Flags: W
LayerCount: 2
Fore
SplineSet
112 153 m 1,0,-1
 390 153 l 1,1,2
 340 202 340 202 294.5 263 c 128,-1,3
 249 324 249 324 214.5 396.5 c 128,-1,4
 180 469 180 469 159.5 553.5 c 128,-1,5
 139 638 139 638 139 736 c 0,6,7
 139 877 139 877 183.5 996.5 c 128,-1,8
 228 1116 228 1116 307 1202.5 c 128,-1,9
 386 1289 386 1289 494.5 1337.5 c 128,-1,10
 603 1386 603 1386 730 1386 c 0,11,12
 865 1386 865 1386 972 1332.5 c 128,-1,13
 1079 1279 1079 1279 1153.5 1189.5 c 128,-1,14
 1228 1100 1228 1100 1268 985 c 128,-1,15
 1308 870 1308 870 1308 747 c 0,16,17
 1308 646 1308 646 1286.5 557.5 c 128,-1,18
 1265 469 1265 469 1229.5 394.5 c 128,-1,19
 1194 320 1194 320 1147.5 259 c 128,-1,20
 1101 198 1101 198 1051 153 c 1,21,-1
 1334 153 l 1,22,-1
 1334 0 l 1,23,-1
 845 0 l 1,24,-1
 845 112 l 1,25,26
 899 149 899 149 950 206 c 128,-1,27
 1001 263 1001 263 1040 338.5 c 128,-1,28
 1079 414 1079 414 1103 508.5 c 128,-1,29
 1127 603 1127 603 1127 715 c 0,30,31
 1127 807 1127 807 1101.5 899.5 c 128,-1,32
 1076 992 1076 992 1025.5 1066 c 128,-1,33
 975 1140 975 1140 900.5 1186 c 128,-1,34
 826 1232 826 1232 728 1232 c 0,35,36
 635 1232 635 1232 560 1191.5 c 128,-1,37
 485 1151 485 1151 431.5 1080.5 c 128,-1,38
 378 1010 378 1010 349.5 914 c 128,-1,39
 321 818 321 818 321 708 c 0,40,41
 321 603 321 603 345 510.5 c 128,-1,42
 369 418 369 418 408 341.5 c 128,-1,43
 447 265 447 265 497.5 206.5 c 128,-1,44
 548 148 548 148 601 112 c 1,45,-1
 601 0 l 1,46,-1
 112 0 l 1,47,-1
 112 153 l 1,0,-1
EndSplineSet
EndChar

StartChar: pi
Encoding: 960 960 247
Width: 1179
Flags: W
LayerCount: 2
Fore
SplineSet
962 861 m 1,0,-1
 962 292 l 2,1,2
 962 190 962 190 970.5 117.5 c 128,-1,3
 979 45 979 45 989 0 c 1,4,-1
 821 0 l 1,5,6
 805 32 805 32 795 100.5 c 128,-1,7
 785 169 785 169 785 281 c 2,8,-1
 785 861 l 1,9,-1
 461 861 l 1,10,11
 458 799 458 799 451.5 725 c 128,-1,12
 445 651 445 651 435.5 571.5 c 128,-1,13
 426 492 426 492 413.5 411 c 128,-1,14
 401 330 401 330 386.5 255 c 128,-1,15
 372 180 372 180 355.5 114.5 c 128,-1,16
 339 49 339 49 321 0 c 1,17,-1
 146 0 l 1,18,19
 164 55 164 55 180.5 123.5 c 128,-1,20
 197 192 197 192 211.5 266.5 c 128,-1,21
 226 341 226 341 238.5 420 c 128,-1,22
 251 499 251 499 260.5 576.5 c 128,-1,23
 270 654 270 654 276.5 726.5 c 128,-1,24
 283 799 283 799 286 861 c 1,25,26
 208 859 208 859 159.5 853 c 128,-1,27
 111 847 111 847 76 837 c 1,28,-1
 49 960 l 1,29,30
 93 984 93 984 163 1001 c 128,-1,31
 233 1018 233 1018 343 1018 c 2,32,-1
 1129 1018 l 1,33,-1
 1112 861 l 1,34,-1
 962 861 l 1,0,-1
EndSplineSet
EndChar

StartChar: endash
Encoding: 8211 8211 248
Width: 1207
Flags: W
LayerCount: 2
Fore
SplineSet
149 444 m 1,0,-1
 149 608 l 1,1,-1
 1057 608 l 1,2,-1
 1057 444 l 1,3,-1
 149 444 l 1,0,-1
EndSplineSet
EndChar

StartChar: emdash
Encoding: 8212 8212 249
Width: 1906
Flags: W
LayerCount: 2
Fore
SplineSet
150 444 m 1,0,-1
 150 608 l 1,1,-1
 1756 608 l 1,2,-1
 1756 444 l 1,3,-1
 150 444 l 1,0,-1
EndSplineSet
EndChar

StartChar: quoteleft
Encoding: 8216 8216 250
Width: 517
Flags: W
LayerCount: 2
Fore
SplineSet
92 919 m 1,0,-1
 290 1408 l 1,1,-1
 431 1408 l 1,2,-1
 312 919 l 1,3,-1
 92 919 l 1,0,-1
EndSplineSet
EndChar

StartChar: quoteright
Encoding: 8217 8217 251
Width: 501
Flags: W
LayerCount: 2
Fore
SplineSet
109 919 m 1,0,-1
 220 1408 l 1,1,-1
 443 1408 l 1,2,-1
 247 919 l 1,3,-1
 109 919 l 1,0,-1
EndSplineSet
EndChar

StartChar: quotesinglbase
Encoding: 8218 8218 252
Width: 511
Flags: W
LayerCount: 2
Fore
SplineSet
55 -256 m 1,0,-1
 166 223 l 1,1,-1
 387 223 l 1,2,-1
 194 -256 l 1,3,-1
 55 -256 l 1,0,-1
EndSplineSet
EndChar

StartChar: quotedblleft
Encoding: 8220 8220 253
Width: 878
Flags: W
LayerCount: 2
Fore
SplineSet
454 919 m 1,0,-1
 652 1408 l 1,1,-1
 793 1408 l 1,2,-1
 674 919 l 1,3,-1
 454 919 l 1,0,-1
92 919 m 1,4,-1
 290 1408 l 1,5,-1
 431 1408 l 1,6,-1
 312 919 l 1,7,-1
 92 919 l 1,4,-1
EndSplineSet
EndChar

StartChar: quotedblright
Encoding: 8221 8221 254
Width: 866
Flags: W
LayerCount: 2
Fore
SplineSet
474 919 m 1,0,-1
 585 1408 l 1,1,-1
 808 1408 l 1,2,-1
 612 919 l 1,3,-1
 474 919 l 1,0,-1
109 919 m 1,4,-1
 220 1408 l 1,5,-1
 443 1408 l 1,6,-1
 247 919 l 1,7,-1
 109 919 l 1,4,-1
EndSplineSet
EndChar

StartChar: quotedblbase
Encoding: 8222 8222 255
Width: 875
Flags: W
LayerCount: 2
Fore
SplineSet
419 -256 m 1,0,-1
 529 223 l 1,1,-1
 751 223 l 1,2,-1
 558 -256 l 1,3,-1
 419 -256 l 1,0,-1
55 -256 m 1,4,-1
 165 223 l 1,5,-1
 387 223 l 1,6,-1
 194 -256 l 1,7,-1
 55 -256 l 1,4,-1
EndSplineSet
EndChar

StartChar: dagger
Encoding: 8224 8224 256
Width: 948
Flags: W
LayerCount: 2
Fore
SplineSet
394 929 m 1,0,-1
 65 929 l 1,1,-1
 65 1088 l 1,2,-1
 394 1088 l 1,3,-1
 394 1412 l 1,4,-1
 558 1412 l 1,5,-1
 558 1088 l 1,6,-1
 883 1088 l 1,7,-1
 883 929 l 1,8,-1
 558 929 l 1,9,-1
 558 0 l 1,10,-1
 394 0 l 1,11,-1
 394 929 l 1,0,-1
EndSplineSet
EndChar

StartChar: daggerdbl
Encoding: 8225 8225 257
Width: 1073
Flags: W
LayerCount: 2
Fore
SplineSet
453 327 m 1,0,-1
 124 327 l 1,1,-1
 124 486 l 1,2,-1
 453 486 l 1,3,-1
 453 929 l 1,4,-1
 124 929 l 1,5,-1
 124 1089 l 1,6,-1
 453 1089 l 1,7,-1
 453 1412 l 1,8,-1
 619 1412 l 1,9,-1
 619 1089 l 1,10,-1
 948 1089 l 1,11,-1
 948 929 l 1,12,-1
 619 929 l 1,13,-1
 619 486 l 1,14,-1
 948 486 l 1,15,-1
 948 327 l 1,16,-1
 619 327 l 1,17,-1
 619 0 l 1,18,-1
 453 0 l 1,19,-1
 453 327 l 1,0,-1
EndSplineSet
EndChar

StartChar: bullet
Encoding: 8226 8226 258
Width: 807
Flags: W
LayerCount: 2
Fore
SplineSet
106 711 m 0,0,1
 106 783 106 783 129.5 841 c 128,-1,2
 153 899 153 899 193 939 c 128,-1,3
 233 979 233 979 287 1000.5 c 128,-1,4
 341 1022 341 1022 403 1022 c 256,5,6
 465 1022 465 1022 519 1000.5 c 128,-1,7
 573 979 573 979 613.5 938.5 c 128,-1,8
 654 898 654 898 677.5 840.5 c 128,-1,9
 701 783 701 783 701 711 c 0,10,11
 701 640 701 640 678 583 c 128,-1,12
 655 526 655 526 614.5 485.5 c 128,-1,13
 574 445 574 445 519.5 423 c 128,-1,14
 465 401 465 401 403 401 c 256,15,16
 341 401 341 401 287 423 c 128,-1,17
 233 445 233 445 192.5 485.5 c 128,-1,18
 152 526 152 526 129 583 c 128,-1,19
 106 640 106 640 106 711 c 0,0,1
EndSplineSet
EndChar

StartChar: ellipsis
Encoding: 8230 8230 259
Width: 1752
Flags: W
LayerCount: 2
Fore
SplineSet
144 248 m 1,0,-1
 369 248 l 1,1,-1
 369 0 l 1,2,-1
 144 0 l 1,3,-1
 144 248 l 1,0,-1
762 248 m 1,4,-1
 989 248 l 1,5,-1
 989 0 l 1,6,-1
 762 0 l 1,7,-1
 762 248 l 1,4,-1
1382 248 m 1,8,-1
 1608 248 l 1,9,-1
 1608 0 l 1,10,-1
 1382 0 l 1,11,-1
 1382 248 l 1,8,-1
EndSplineSet
EndChar

StartChar: perthousand
Encoding: 8240 8240 260
Width: 2361
Flags: W
LayerCount: 2
Fore
SplineSet
238 1009 m 256,0,1
 238 965 238 965 243 919 c 128,-1,2
 248 873 248 873 264 835 c 128,-1,3
 280 797 280 797 310 772.5 c 128,-1,4
 340 748 340 748 389 748 c 0,5,6
 437 748 437 748 466.5 773 c 128,-1,7
 496 798 496 798 511.5 836.5 c 128,-1,8
 527 875 527 875 532.5 921.5 c 128,-1,9
 538 968 538 968 538 1010 c 0,10,11
 538 1064 538 1064 531 1111.5 c 128,-1,12
 524 1159 524 1159 507 1194.5 c 128,-1,13
 490 1230 490 1230 461.5 1251 c 128,-1,14
 433 1272 433 1272 389 1272 c 0,15,16
 340 1272 340 1272 310 1247.5 c 128,-1,17
 280 1223 280 1223 264 1184.5 c 128,-1,18
 248 1146 248 1146 243 1099.5 c 128,-1,19
 238 1053 238 1053 238 1009 c 256,0,1
695 1015 m 0,20,21
 695 917 695 917 673.5 842.5 c 128,-1,22
 652 768 652 768 612 718 c 128,-1,23
 572 668 572 668 515 642 c 128,-1,24
 458 616 458 616 387 616 c 0,25,26
 319 616 319 616 263 640.5 c 128,-1,27
 207 665 207 665 167 714.5 c 128,-1,28
 127 764 127 764 104.5 837 c 128,-1,29
 82 910 82 910 82 1008 c 0,30,31
 82 1098 82 1098 101 1171 c 128,-1,32
 120 1244 120 1244 159 1296 c 128,-1,33
 198 1348 198 1348 257 1376.5 c 128,-1,34
 316 1405 316 1405 396 1405 c 0,35,36
 475 1405 475 1405 531.5 1375.5 c 128,-1,37
 588 1346 588 1346 624.5 1294 c 128,-1,38
 661 1242 661 1242 678 1170.5 c 128,-1,39
 695 1099 695 1099 695 1015 c 0,20,21
1106 362 m 0,40,41
 1106 314 1106 314 1112 268.5 c 128,-1,42
 1118 223 1118 223 1134.5 188.5 c 128,-1,43
 1151 154 1151 154 1179.5 133 c 128,-1,44
 1208 112 1208 112 1254 112 c 0,45,46
 1302 112 1302 112 1332 135 c 128,-1,47
 1362 158 1362 158 1379 195.5 c 128,-1,48
 1396 233 1396 233 1402 280 c 128,-1,49
 1408 327 1408 327 1408 375 c 0,50,51
 1408 422 1408 422 1401.5 469 c 128,-1,52
 1395 516 1395 516 1378.5 553.5 c 128,-1,53
 1362 591 1362 591 1332 614.5 c 128,-1,54
 1302 638 1302 638 1256 638 c 0,55,56
 1207 638 1207 638 1177.5 612.5 c 128,-1,57
 1148 587 1148 587 1132 546.5 c 128,-1,58
 1116 506 1116 506 1111 457 c 128,-1,59
 1106 408 1106 408 1106 362 c 0,40,41
1562 377 m 0,60,61
 1562 285 1562 285 1543.5 211.5 c 128,-1,62
 1525 138 1525 138 1487 86 c 128,-1,63
 1449 34 1449 34 1391.5 6 c 128,-1,64
 1334 -22 1334 -22 1255 -22 c 0,65,66
 1171 -22 1171 -22 1113 9.5 c 128,-1,67
 1055 41 1055 41 1018.5 94.5 c 128,-1,68
 982 148 982 148 966 219.5 c 128,-1,69
 950 291 950 291 950 372 c 0,70,71
 950 468 950 468 971.5 542 c 128,-1,72
 993 616 993 616 1033 666.5 c 128,-1,73
 1073 717 1073 717 1129.5 742.5 c 128,-1,74
 1186 768 1186 768 1255 768 c 0,75,76
 1286 768 1286 768 1321 760.5 c 128,-1,77
 1356 753 1356 753 1390 736 c 128,-1,78
 1424 719 1424 719 1455 689.5 c 128,-1,79
 1486 660 1486 660 1510 617 c 128,-1,80
 1534 574 1534 574 1548 514.5 c 128,-1,81
 1562 455 1562 455 1562 377 c 0,60,61
1305 1418 m 1,82,83
 1201 1233 1201 1233 1098 1051.5 c 128,-1,84
 995 870 995 870 892.5 688.5 c 128,-1,85
 790 507 790 507 687.5 325.5 c 128,-1,86
 585 144 585 144 480 -40 c 1,87,-1
 330 -40 l 1,88,-1
 1156 1418 l 1,89,-1
 1305 1418 l 1,82,83
1830 362 m 0,90,91
 1830 314 1830 314 1836 268.5 c 128,-1,92
 1842 223 1842 223 1858.5 188.5 c 128,-1,93
 1875 154 1875 154 1903.5 133 c 128,-1,94
 1932 112 1932 112 1978 112 c 0,95,96
 2026 112 2026 112 2056 135 c 128,-1,97
 2086 158 2086 158 2103 195.5 c 128,-1,98
 2120 233 2120 233 2126 280 c 128,-1,99
 2132 327 2132 327 2132 375 c 0,100,101
 2132 422 2132 422 2125.5 469 c 128,-1,102
 2119 516 2119 516 2102.5 553.5 c 128,-1,103
 2086 591 2086 591 2056 614.5 c 128,-1,104
 2026 638 2026 638 1980 638 c 0,105,106
 1931 638 1931 638 1901.5 612.5 c 128,-1,107
 1872 587 1872 587 1856 546.5 c 128,-1,108
 1840 506 1840 506 1835 457 c 128,-1,109
 1830 408 1830 408 1830 362 c 0,90,91
2286 377 m 0,110,111
 2286 285 2286 285 2267.5 211.5 c 128,-1,112
 2249 138 2249 138 2211 86 c 128,-1,113
 2173 34 2173 34 2115.5 6 c 128,-1,114
 2058 -22 2058 -22 1979 -22 c 0,115,116
 1895 -22 1895 -22 1837 9.5 c 128,-1,117
 1779 41 1779 41 1742.5 94.5 c 128,-1,118
 1706 148 1706 148 1690 219.5 c 128,-1,119
 1674 291 1674 291 1674 372 c 0,120,121
 1674 468 1674 468 1695.5 542 c 128,-1,122
 1717 616 1717 616 1757 666.5 c 128,-1,123
 1797 717 1797 717 1853.5 742.5 c 128,-1,124
 1910 768 1910 768 1979 768 c 0,125,126
 2010 768 2010 768 2045 760.5 c 128,-1,127
 2080 753 2080 753 2114 736 c 128,-1,128
 2148 719 2148 719 2179 689.5 c 128,-1,129
 2210 660 2210 660 2234 617 c 128,-1,130
 2258 574 2258 574 2272 514.5 c 128,-1,131
 2286 455 2286 455 2286 377 c 0,110,111
EndSplineSet
EndChar

StartChar: guilsinglleft
Encoding: 8249 8249 261
Width: 605
Flags: W
LayerCount: 2
Fore
SplineSet
347 108 m 1,0,-1
 93 495 l 1,1,-1
 93 514 l 1,2,-1
 348 900 l 1,3,-1
 490 863 l 1,4,-1
 282 503 l 1,5,-1
 492 141 l 1,6,-1
 347 108 l 1,0,-1
EndSplineSet
EndChar

StartChar: guilsinglright
Encoding: 8250 8250 262
Width: 605
Flags: W
LayerCount: 2
Fore
SplineSet
319 502 m 1,0,-1
 112 863 l 1,1,-1
 258 900 l 1,2,-1
 512 511 l 1,3,-1
 512 493 l 1,4,-1
 258 107 l 1,5,-1
 113 141 l 1,6,-1
 319 502 l 1,0,-1
EndSplineSet
EndChar

StartChar: fraction
Encoding: 8260 8260 263
Width: 910
Flags: W
LayerCount: 2
Fore
SplineSet
933 1400 m 1,0,-1
 121 -30 l 1,1,-1
 -28 -30 l 1,2,-1
 785 1400 l 1,3,-1
 933 1400 l 1,0,-1
EndSplineSet
EndChar

StartChar: foursuperior
Encoding: 8308 8308 264
Width: 944
Flags: W
LayerCount: 2
Fore
SplineSet
557 285 m 1,0,-1
 557 523 l 1,1,-1
 64 523 l 1,2,-1
 64 685 l 1,3,-1
 546 1390 l 1,4,-1
 707 1390 l 1,5,-1
 707 662 l 1,6,-1
 864 662 l 1,7,-1
 864 523 l 1,8,-1
 707 523 l 1,9,-1
 707 285 l 1,10,-1
 557 285 l 1,0,-1
206 662 m 1,11,-1
 557 662 l 1,12,-1
 557 929 l 1,13,-1
 560 1217 l 1,14,-1
 437 1012 l 1,15,-1
 206 662 l 1,11,-1
EndSplineSet
EndChar

StartChar: Euro
Encoding: 8364 8364 265
Width: 1265
Flags: W
LayerCount: 2
Fore
SplineSet
1147 363 m 1,0,1
 1146 332 1146 332 1137.5 290.5 c 128,-1,2
 1129 249 1129 249 1110 206 c 128,-1,3
 1091 163 1091 163 1060 121.5 c 128,-1,4
 1029 80 1029 80 983 47 c 128,-1,5
 937 14 937 14 873.5 -6 c 128,-1,6
 810 -26 810 -26 727 -26 c 0,7,8
 620 -26 620 -26 536.5 7.5 c 128,-1,9
 453 41 453 41 392 103.5 c 128,-1,10
 331 166 331 166 291.5 255 c 128,-1,11
 252 344 252 344 233 454 c 1,12,-1
 79 454 l 1,13,-1
 120 587 l 1,14,-1
 217 587 l 1,15,16
 215 604 215 604 214 621.5 c 128,-1,17
 213 639 213 639 213 657 c 0,18,19
 213 671 213 671 214 692.5 c 128,-1,20
 215 714 215 714 217 729 c 1,21,-1
 78 729 l 1,22,-1
 121 862 l 1,23,-1
 231 862 l 1,24,25
 250 975 250 975 293 1069.5 c 128,-1,26
 336 1164 336 1164 400 1232 c 128,-1,27
 464 1300 464 1300 548 1337.5 c 128,-1,28
 632 1375 632 1375 734 1375 c 0,29,30
 814 1375 814 1375 886 1349.5 c 128,-1,31
 958 1324 958 1324 1013.5 1273 c 128,-1,32
 1069 1222 1069 1222 1104 1145.5 c 128,-1,33
 1139 1069 1139 1069 1144 967 c 1,34,-1
 960 967 l 1,35,36
 956 1025 956 1025 941 1065.5 c 128,-1,37
 926 1106 926 1106 904 1133.5 c 128,-1,38
 882 1161 882 1161 856 1176.5 c 128,-1,39
 830 1192 830 1192 806 1200 c 128,-1,40
 782 1208 782 1208 762.5 1210 c 128,-1,41
 743 1212 743 1212 734 1212 c 0,42,43
 678 1212 678 1212 628.5 1186.5 c 128,-1,44
 579 1161 579 1161 538.5 1114.5 c 128,-1,45
 498 1068 498 1068 468.5 1003.5 c 128,-1,46
 439 939 439 939 423 862 c 1,47,-1
 875 862 l 1,48,-1
 832 729 l 1,49,-1
 410 729 l 1,50,51
 408 712 408 712 406.5 695 c 128,-1,52
 405 678 405 678 405 661 c 0,53,54
 405 624 405 624 411 587 c 1,55,-1
 812 587 l 1,56,-1
 770 454 l 1,57,-1
 426 454 l 1,58,59
 441 386 441 386 466 328 c 128,-1,60
 491 270 491 270 527 227.5 c 128,-1,61
 563 185 563 185 611.5 160.5 c 128,-1,62
 660 136 660 136 722 136 c 0,63,64
 825 136 825 136 892 196 c 128,-1,65
 959 256 959 256 973 370 c 1,66,-1
 1147 363 l 1,0,1
EndSplineSet
EndChar

StartChar: trademark
Encoding: 8482 8482 266
Width: 1603
Flags: W
LayerCount: 2
Fore
SplineSet
851 1226 m 1,0,-1
 826 1318 l 1,1,-1
 826 700 l 1,2,-1
 726 700 l 1,3,-1
 726 1416 l 1,4,-1
 897 1416 l 1,5,-1
 1080 850 l 1,6,-1
 1269 1416 l 1,7,-1
 1430 1416 l 1,8,-1
 1430 700 l 1,9,-1
 1330 700 l 1,10,-1
 1330 1322 l 1,11,-1
 1305 1230 l 1,12,-1
 1121 700 l 1,13,-1
 1027 700 l 1,14,-1
 851 1226 l 1,0,-1
310 1317 m 1,15,-1
 112 1317 l 1,16,-1
 112 1416 l 1,17,-1
 612 1416 l 1,18,-1
 612 1317 l 1,19,-1
 405 1317 l 1,20,-1
 405 700 l 1,21,-1
 310 700 l 1,22,-1
 310 1317 l 1,15,-1
EndSplineSet
EndChar

StartChar: partialdiff
Encoding: 8706 8706 267
Width: 1130
Flags: W
LayerCount: 2
Fore
SplineSet
822 702 m 1,0,1
 822 713 822 713 822.5 724.5 c 128,-1,2
 823 736 823 736 823 747 c 0,3,4
 823 808 823 808 816 870 c 128,-1,5
 809 932 809 932 792.5 990 c 128,-1,6
 776 1048 776 1048 749.5 1098.5 c 128,-1,7
 723 1149 723 1149 684.5 1186.5 c 128,-1,8
 646 1224 646 1224 594.5 1245.5 c 128,-1,9
 543 1267 543 1267 477 1267 c 0,10,11
 425 1267 425 1267 361 1252 c 128,-1,12
 297 1237 297 1237 228 1206 c 1,13,-1
 175 1328 l 1,14,15
 259 1368 259 1368 338.5 1388 c 128,-1,16
 418 1408 418 1408 489 1408 c 0,17,18
 614 1408 614 1408 709.5 1355 c 128,-1,19
 805 1302 805 1302 870 1202.5 c 128,-1,20
 935 1103 935 1103 968 961.5 c 128,-1,21
 1001 820 1001 820 1001 643 c 0,22,23
 1001 512 1001 512 982.5 412 c 128,-1,24
 964 312 964 312 932 238 c 128,-1,25
 900 164 900 164 855.5 114 c 128,-1,26
 811 64 811 64 759.5 34 c 128,-1,27
 708 4 708 4 651 -9 c 128,-1,28
 594 -22 594 -22 536 -22 c 0,29,30
 447 -22 447 -22 368.5 6.5 c 128,-1,31
 290 35 290 35 231 92 c 128,-1,32
 172 149 172 149 137.5 234.5 c 128,-1,33
 103 320 103 320 103 435 c 0,34,35
 103 539 103 539 134.5 618.5 c 128,-1,36
 166 698 166 698 220.5 752 c 128,-1,37
 275 806 275 806 349.5 833.5 c 128,-1,38
 424 861 424 861 510 861 c 0,39,40
 693 861 693 861 822 702 c 1,0,1
542 723 m 0,41,42
 481 723 481 723 432 703 c 128,-1,43
 383 683 383 683 349 646 c 128,-1,44
 315 609 315 609 296.5 556 c 128,-1,45
 278 503 278 503 278 436 c 0,46,47
 278 364 278 364 296 306 c 128,-1,48
 314 248 314 248 347.5 207 c 128,-1,49
 381 166 381 166 429 144 c 128,-1,50
 477 122 477 122 537 122 c 256,51,52
 597 122 597 122 647.5 147 c 128,-1,53
 698 172 698 172 734.5 216 c 128,-1,54
 771 260 771 260 791.5 320 c 128,-1,55
 812 380 812 380 812 449 c 0,56,57
 812 506 812 506 793 555.5 c 128,-1,58
 774 605 774 605 739 642.5 c 128,-1,59
 704 680 704 680 654 701.5 c 128,-1,60
 604 723 604 723 542 723 c 0,41,42
EndSplineSet
EndChar

StartChar: Delta
Encoding: 8710 8710 268
Width: 1277
Flags: W
LayerCount: 2
Fore
SplineSet
63 119 m 1,0,-1
 542 1396 l 1,1,-1
 743 1396 l 1,2,-1
 1214 121 l 1,3,-1
 1214 0 l 1,4,-1
 63 0 l 1,5,-1
 63 119 l 1,0,-1
1027 150 m 1,6,-1
 761 889 l 1,7,-1
 643 1227 l 1,8,-1
 529 888 l 1,9,-1
 529 889 l 1,10,-1
 256 150 l 1,11,-1
 1027 150 l 1,6,-1
EndSplineSet
EndChar

StartChar: product
Encoding: 8719 8719 269
Width: 1404
Flags: W
LayerCount: 2
Fore
SplineSet
1131 1193 m 1,0,-1
 1131 -187 l 1,1,-1
 956 -187 l 1,2,-1
 956 1193 l 1,3,-1
 449 1193 l 1,4,-1
 449 -187 l 1,5,-1
 274 -187 l 1,6,-1
 274 1193 l 1,7,-1
 65 1193 l 1,8,-1
 65 1361 l 1,9,-1
 1338 1361 l 1,10,-1
 1338 1193 l 1,11,-1
 1131 1193 l 1,0,-1
EndSplineSet
EndChar

StartChar: summation
Encoding: 8721 8721 270
Width: 1162
Flags: W
LayerCount: 2
Fore
SplineSet
79 -187 m 1,0,-1
 79 -65 l 1,1,-1
 586 585 l 1,2,-1
 102 1231 l 1,3,-1
 102 1361 l 1,4,-1
 1047 1361 l 1,5,-1
 1047 1204 l 1,6,-1
 343 1204 l 1,7,-1
 792 611 l 1,8,-1
 305 -14 l 1,9,-1
 1079 -14 l 1,10,-1
 1079 -187 l 1,11,-1
 79 -187 l 1,0,-1
EndSplineSet
EndChar

StartChar: minus
Encoding: 8722 8722 271
Width: 1268
Flags: W
LayerCount: 2
Fore
SplineSet
160 505 m 1,0,-1
 160 665 l 1,1,-1
 1108 665 l 1,2,-1
 1108 505 l 1,3,-1
 160 505 l 1,0,-1
EndSplineSet
EndChar

StartChar: radical
Encoding: 8730 8730 272
Width: 1105
Flags: W
LayerCount: 2
Fore
SplineSet
924 1618 m 1,0,-1
 1064 1618 l 1,1,-1
 630 -283 l 1,2,-1
 478 -283 l 1,3,-1
 177 597 l 1,4,-1
 32 540 l 1,5,-1
 -5 654 l 1,6,-1
 284 770 l 1,7,-1
 548 -57 l 1,8,-1
 924 1618 l 1,0,-1
EndSplineSet
EndChar

StartChar: infinity
Encoding: 8734 8734 273
Width: 1568
Flags: W
LayerCount: 2
Fore
SplineSet
1443 564 m 2,0,1
 1443 490 1443 490 1417.5 431 c 128,-1,2
 1392 372 1392 372 1349 331 c 128,-1,3
 1306 290 1306 290 1251 267.5 c 128,-1,4
 1196 245 1196 245 1138 245 c 0,5,6
 1094 245 1094 245 1052.5 258 c 128,-1,7
 1011 271 1011 271 968.5 298.5 c 128,-1,8
 926 326 926 326 881 368.5 c 128,-1,9
 836 411 836 411 784 470 c 1,10,11
 746 425 746 425 705.5 384 c 128,-1,12
 665 343 665 343 620.5 312.5 c 128,-1,13
 576 282 576 282 526.5 263.5 c 128,-1,14
 477 245 477 245 420 245 c 0,15,16
 361 245 361 245 307 268.5 c 128,-1,17
 253 292 253 292 212 333.5 c 128,-1,18
 171 375 171 375 147 432 c 128,-1,19
 123 489 123 489 123 557 c 0,20,21
 123 626 123 626 146.5 684.5 c 128,-1,22
 170 743 170 743 212 785.5 c 128,-1,23
 254 828 254 828 311 852 c 128,-1,24
 368 876 368 876 436 876 c 0,25,26
 488 876 488 876 535.5 858.5 c 128,-1,27
 583 841 583 841 627 810.5 c 128,-1,28
 671 780 671 780 712 739 c 128,-1,29
 753 698 753 698 793 652 c 1,30,31
 829 692 829 692 868 732 c 128,-1,32
 907 772 907 772 950.5 804 c 128,-1,33
 994 836 994 836 1044 856 c 128,-1,34
 1094 876 1094 876 1152 876 c 0,35,36
 1216 876 1216 876 1269.5 853.5 c 128,-1,37
 1323 831 1323 831 1361.5 790 c 128,-1,38
 1400 749 1400 749 1421.5 692 c 128,-1,39
 1443 635 1443 635 1443 566 c 2,40,-1
 1443 564 l 2,0,1
438 357 m 2,41,42
 477 357 477 357 513.5 373.5 c 128,-1,43
 550 390 550 390 585.5 417 c 128,-1,44
 621 444 621 444 654.5 479 c 128,-1,45
 688 514 688 514 721 551 c 1,46,47
 689 591 689 591 657.5 629.5 c 128,-1,48
 626 668 626 668 590.5 698 c 128,-1,49
 555 728 555 728 514 746.5 c 128,-1,50
 473 765 473 765 424 765 c 0,51,52
 380 765 380 765 345.5 748 c 128,-1,53
 311 731 311 731 287.5 702 c 128,-1,54
 264 673 264 673 251.5 635 c 128,-1,55
 239 597 239 597 239 555 c 0,56,57
 239 515 239 515 253.5 479 c 128,-1,58
 268 443 268 443 294.5 416 c 128,-1,59
 321 389 321 389 357 373 c 128,-1,60
 393 357 393 357 436 357 c 2,61,-1
 438 357 l 2,41,42
1138 765 m 2,62,63
 1102 765 1102 765 1066.5 748.5 c 128,-1,64
 1031 732 1031 732 995.5 704 c 128,-1,65
 960 676 960 676 925 640 c 128,-1,66
 890 604 890 604 854 564 c 1,67,68
 900 511 900 511 937 472.5 c 128,-1,69
 974 434 974 434 1008 408 c 128,-1,70
 1042 382 1042 382 1074.5 369.5 c 128,-1,71
 1107 357 1107 357 1144 357 c 0,72,73
 1188 357 1188 357 1222 375 c 128,-1,74
 1256 393 1256 393 1279.5 421.5 c 128,-1,75
 1303 450 1303 450 1315 485.5 c 128,-1,76
 1327 521 1327 521 1327 557 c 0,77,78
 1327 605 1327 605 1313 643.5 c 128,-1,79
 1299 682 1299 682 1274 709 c 128,-1,80
 1249 736 1249 736 1214.5 750.5 c 128,-1,81
 1180 765 1180 765 1140 765 c 2,82,-1
 1138 765 l 2,62,63
EndSplineSet
EndChar

StartChar: integral
Encoding: 8747 8747 274
Width: 710
Flags: W
LayerCount: 2
Fore
SplineSet
653 1504 m 1,0,1
 634 1515 634 1515 615 1521 c 128,-1,2
 596 1527 596 1527 580 1527 c 0,3,4
 539 1527 539 1527 509 1506 c 128,-1,5
 479 1485 479 1485 460 1439.5 c 128,-1,6
 441 1394 441 1394 432 1322 c 128,-1,7
 423 1250 423 1250 423 1147 c 0,8,9
 423 1033 423 1033 427.5 914 c 128,-1,10
 432 795 432 795 437 673.5 c 128,-1,11
 442 552 442 552 446.5 429.5 c 128,-1,12
 451 307 451 307 451 187 c 0,13,14
 451 34 451 34 427.5 -64 c 128,-1,15
 404 -162 404 -162 364.5 -217.5 c 128,-1,16
 325 -273 325 -273 272 -294 c 128,-1,17
 219 -315 219 -315 161 -315 c 0,18,19
 124 -315 124 -315 86 -304 c 128,-1,20
 48 -293 48 -293 24 -280 c 1,21,-1
 51 -146 l 1,22,23
 75 -157 75 -157 95.5 -164.5 c 128,-1,24
 116 -172 116 -172 143 -172 c 0,25,26
 171 -172 171 -172 197.5 -159.5 c 128,-1,27
 224 -147 224 -147 244 -108 c 128,-1,28
 264 -69 264 -69 276.5 2 c 128,-1,29
 289 73 289 73 289 190 c 0,30,31
 289 312 289 312 285 436 c 128,-1,32
 281 560 281 560 276.5 683 c 128,-1,33
 272 806 272 806 268 927 c 128,-1,34
 264 1048 264 1048 264 1164 c 0,35,36
 264 1296 264 1296 283.5 1390.5 c 128,-1,37
 303 1485 303 1485 341 1546 c 128,-1,38
 379 1607 379 1607 435.5 1635.5 c 128,-1,39
 492 1664 492 1664 566 1664 c 0,40,41
 595 1664 595 1664 627.5 1655 c 128,-1,42
 660 1646 660 1646 683 1636 c 1,43,-1
 653 1504 l 1,0,1
EndSplineSet
EndChar

StartChar: approxequal
Encoding: 8776 8776 275
Width: 1229
Flags: W
LayerCount: 2
Fore
SplineSet
1079 452 m 1,0,1
 1057 413 1057 413 1029.5 377.5 c 128,-1,2
 1002 342 1002 342 969.5 316 c 128,-1,3
 937 290 937 290 899.5 274.5 c 128,-1,4
 862 259 862 259 820 259 c 0,5,6
 782 259 782 259 746 270 c 128,-1,7
 710 281 710 281 676.5 297 c 128,-1,8
 643 313 643 313 610 332 c 128,-1,9
 577 351 577 351 545.5 367 c 128,-1,10
 514 383 514 383 482 394 c 128,-1,11
 450 405 450 405 418 405 c 256,12,13
 386 405 386 405 359 393 c 128,-1,14
 332 381 332 381 309 361 c 128,-1,15
 286 341 286 341 265.5 314.5 c 128,-1,16
 245 288 245 288 226 259 c 1,17,-1
 152 324 l 1,18,19
 200 415 200 415 271 468 c 128,-1,20
 342 521 342 521 430 521 c 0,21,22
 467 521 467 521 501.5 510 c 128,-1,23
 536 499 536 499 568.5 483 c 128,-1,24
 601 467 601 467 632 448 c 128,-1,25
 663 429 663 429 694.5 413 c 128,-1,26
 726 397 726 397 757.5 386 c 128,-1,27
 789 375 789 375 822 375 c 0,28,29
 878 375 878 375 919.5 411 c 128,-1,30
 961 447 961 447 1005 519 c 1,31,-1
 1079 452 l 1,0,1
1079 789 m 1,32,33
 1057 749 1057 749 1029.5 714 c 128,-1,34
 1002 679 1002 679 969.5 652.5 c 128,-1,35
 937 626 937 626 899.5 611 c 128,-1,36
 862 596 862 596 820 596 c 0,37,38
 761 596 761 596 710 618.5 c 128,-1,39
 659 641 659 641 611 668.5 c 128,-1,40
 563 696 563 696 515.5 718.5 c 128,-1,41
 468 741 468 741 416 741 c 0,42,43
 384 741 384 741 357.5 729 c 128,-1,44
 331 717 331 717 308 697 c 128,-1,45
 285 677 285 677 265 650.5 c 128,-1,46
 245 624 245 624 226 596 c 1,47,-1
 153 660 l 1,48,49
 201 750 201 750 272.5 803 c 128,-1,50
 344 856 344 856 430 856 c 0,51,52
 485 856 485 856 534.5 833.5 c 128,-1,53
 584 811 584 811 631.5 783.5 c 128,-1,54
 679 756 679 756 726.5 733.5 c 128,-1,55
 774 711 774 711 825 711 c 0,56,57
 879 711 879 711 920 748 c 128,-1,58
 961 785 961 785 1005 857 c 1,59,-1
 1079 789 l 1,32,33
EndSplineSet
EndChar

StartChar: notequal
Encoding: 8800 8800 276
Width: 1167
Flags: W
LayerCount: 2
Fore
SplineSet
742 804 m 1,0,-1
 1032 804 l 1,1,-1
 1032 687 l 1,2,-1
 693 687 l 1,3,-1
 572 421 l 1,4,-1
 1032 421 l 1,5,-1
 1032 305 l 1,6,-1
 524 305 l 1,7,-1
 421 76 l 1,8,-1
 329 118 l 1,9,-1
 415 305 l 1,10,-1
 132 305 l 1,11,-1
 132 421 l 1,12,-1
 464 421 l 1,13,-1
 582 687 l 1,14,-1
 132 687 l 1,15,-1
 132 804 l 1,16,-1
 630 804 l 1,17,-1
 731 1028 l 1,18,-1
 824 986 l 1,19,-1
 742 804 l 1,0,-1
EndSplineSet
EndChar

StartChar: lessequal
Encoding: 8804 8804 277
Width: 1118
Flags: W
LayerCount: 2
Fore
SplineSet
76 622 m 1,0,-1
 76 744 l 1,1,-1
 957 1183 l 1,2,-1
 957 1044 l 1,3,-1
 200 684 l 1,4,-1
 959 324 l 1,5,-1
 959 184 l 1,6,-1
 76 622 l 1,0,-1
65 2 m 1,7,-1
 65 123 l 1,8,-1
 964 123 l 1,9,-1
 964 2 l 1,10,-1
 65 2 l 1,7,-1
EndSplineSet
EndChar

StartChar: greaterequal
Encoding: 8805 8805 278
Width: 1110
Flags: W
LayerCount: 2
Fore
SplineSet
1040 743 m 1,0,-1
 1040 622 l 1,1,-1
 156 184 l 1,2,-1
 156 324 l 1,3,-1
 911 683 l 1,4,-1
 156 1044 l 1,5,-1
 156 1183 l 1,6,-1
 1040 743 l 1,0,-1
144 2 m 1,7,-1
 144 123 l 1,8,-1
 1042 123 l 1,9,-1
 1042 2 l 1,10,-1
 144 2 l 1,7,-1
EndSplineSet
EndChar

StartChar: lozenge
Encoding: 9674 9674 279
Width: 1045
Flags: W
LayerCount: 2
Fore
SplineSet
590 -89 m 1,0,-1
 450 -89 l 1,1,-1
 63 680 l 1,2,-1
 454 1449 l 1,3,-1
 595 1449 l 1,4,-1
 983 678 l 1,5,-1
 590 -89 l 1,0,-1
523 1285 m 1,6,-1
 226 683 l 1,7,-1
 524 65 l 1,8,-1
 820 676 l 1,9,-1
 523 1285 l 1,6,-1
EndSplineSet
EndChar

StartChar: fi
Encoding: 64257 64257 281
Width: 1205
Flags: W
LayerCount: 2
Fore
SplineSet
1046 0 m 1,0,-1
 860 0 l 1,1,-1
 860 866 l 1,2,-1
 420 866 l 1,3,-1
 420 0 l 1,4,-1
 231 0 l 1,5,-1
 231 866 l 1,6,-1
 43 866 l 1,7,-1
 43 997 l 1,8,-1
 232 1014 l 1,9,-1
 232 1062 l 2,10,11
 232 1113 232 1113 235.5 1152 c 128,-1,12
 239 1191 239 1191 246 1221.5 c 128,-1,13
 253 1252 253 1252 264.5 1275.5 c 128,-1,14
 276 1299 276 1299 293 1319 c 0,15,16
 330 1364 330 1364 390 1388 c 128,-1,17
 450 1412 450 1412 535 1412 c 0,18,19
 577 1412 577 1412 622.5 1404.5 c 128,-1,20
 668 1397 668 1397 709 1386 c 1,21,22
 703 1345 703 1345 697 1309.5 c 128,-1,23
 691 1274 691 1274 685 1234 c 1,24,25
 654 1240 654 1240 622 1244.5 c 128,-1,26
 590 1249 590 1249 561 1249 c 0,27,28
 515 1249 515 1249 487.5 1238.5 c 128,-1,29
 460 1228 460 1228 445 1208 c 128,-1,30
 430 1188 430 1188 425 1157 c 128,-1,31
 420 1126 420 1126 420 1086 c 2,32,-1
 420 1015 l 1,33,-1
 1046 1015 l 1,34,-1
 1046 0 l 1,0,-1
1064 1377 m 1,35,-1
 1064 1205 l 1,36,-1
 842 1205 l 1,37,-1
 842 1377 l 1,38,-1
 1064 1377 l 1,35,-1
EndSplineSet
EndChar

StartChar: fl
Encoding: 64258 64258 282
Width: 1194
Flags: W
LayerCount: 2
Fore
SplineSet
836 1261 m 1,0,-1
 561 1261 l 2,1,2
 515 1261 515 1261 487.5 1249 c 128,-1,3
 460 1237 460 1237 445 1214 c 128,-1,4
 430 1191 430 1191 425 1158.5 c 128,-1,5
 420 1126 420 1126 420 1086 c 2,6,-1
 420 1015 l 1,7,-1
 649 1015 l 1,8,-1
 649 866 l 1,9,-1
 420 866 l 1,10,-1
 420 0 l 1,11,-1
 231 0 l 1,12,-1
 231 866 l 1,13,-1
 43 866 l 1,14,-1
 43 997 l 1,15,-1
 232 1014 l 1,16,-1
 232 1062 l 2,17,18
 232 1113 232 1113 235.5 1152 c 128,-1,19
 239 1191 239 1191 246 1221.5 c 128,-1,20
 253 1252 253 1252 264.5 1275.5 c 128,-1,21
 276 1299 276 1299 293 1319 c 0,22,23
 330 1364 330 1364 390 1388 c 128,-1,24
 450 1412 450 1412 535 1412 c 2,25,-1
 1025 1412 l 1,26,-1
 1025 0 l 1,27,-1
 836 0 l 1,28,-1
 836 1261 l 1,0,-1
EndSplineSet
EndChar
